<?xml version="1.0" encoding="iso-8859-1"?>
<!-- Generator: Adobe Illustrator 19.0.0, SVG Export Plug-In . SVG Version: 6.00 Build 0)  -->
<svg xmlns="http://www.w3.org/2000/svg" xmlns:xlink="http://www.w3.org/1999/xlink" version="1.1" id="Layer_1" x="0px" y="0px" viewBox="0 0 512 512" style="enable-background:new 0 0 512 512;" xml:space="preserve">
<g>
	<g>
		<g>
			<path d="M511.979,151.644c-0.003-1.602-0.347-3.207-1.078-4.69c-17.525-35.564-35.051-71.116-52.577-106.669     c-1.796-3.643-5.505-5.95-9.567-5.95H63.243c-4.062,0-7.772,2.307-9.567,5.95C36.149,75.837,18.624,111.389,1.099,146.951     c-0.732,1.484-1.075,3.09-1.078,4.692L0,151.664v27.46c0,14.723,8.757,27.431,21.333,33.212v227.922     c0,20.626,16.781,37.407,37.408,37.407h394.517c20.626,0,37.408-16.781,37.408-37.407V212.336     c12.576-5.78,21.333-18.489,21.333-33.212v-27.46L511.979,151.644z M442.123,55.667c14.02,28.442,28.039,56.882,42.06,85.33     h-36.755l-31.538-85.33H442.123z M393.146,55.667l31.538,85.33h-37.661c-4.304-17.475-21.026-85.33-21.026-85.33H393.146z      M429.333,162.334v16.79c0,8.385-6.821,15.206-15.206,15.206h-9.587c-8.385,0-15.206-6.822-15.206-15.206v-16.79H429.333z      M368,162.334v16.79c0,8.384-6.821,15.206-15.206,15.206h-9.587c-8.385,0-15.206-6.822-15.206-15.206v-16.79H368z      M344.026,55.667c0,0,17.14,69.558,21.026,85.33h-38.286l-10.513-85.33H344.026z M266.667,55.667h28.092l10.513,85.33h-38.605     V55.667z M266.667,162.334h40v16.79c0,8.384-6.821,15.206-15.206,15.206h-9.587c-8.385,0-15.206-6.822-15.206-15.206V162.334z      M281.873,215.664h9.587c10.099,0,19.252-4.119,25.873-10.765c6.621,6.645,15.774,10.765,25.873,10.765h9.587     c10.099,0,19.252-4.119,25.873-10.765c6.621,6.645,15.774,10.765,25.873,10.765h9.587c4.403,0,8.627-0.783,12.54-2.218v28.843h0     h-63.139c-5.891,0-10.667,4.777-10.667,10.667s4.775,10.667,10.667,10.667h63.139v150.044H85.333V263.622h188.594     c5.891,0,10.667-4.777,10.667-10.667s-4.775-10.667-10.667-10.667H85.333v-28.843c3.913,1.434,8.137,2.218,12.54,2.218h9.587     c10.099,0,19.252-4.119,25.873-10.765c6.621,6.645,15.774,10.765,25.873,10.765h9.587c10.099,0,19.252-4.119,25.873-10.765     c6.621,6.645,15.774,10.765,25.873,10.765h9.587c10.099,0,19.252-4.119,25.873-10.765     C262.621,211.545,271.774,215.664,281.873,215.664z M82.667,179.124v-16.79h40v16.79c0,8.384-6.821,15.206-15.206,15.206h-9.587     C89.489,194.331,82.667,187.509,82.667,179.124z M144,179.124v-16.79h40v16.79c0,8.384-6.821,15.206-15.206,15.206h-9.587     C150.821,194.331,144,187.508,144,179.124z M207.657,133.467l9.585-77.801h28.092v85.331h-38.605L207.657,133.467z      M205.333,162.334h40v16.79c0,8.384-6.821,15.206-15.206,15.206h-9.587c-8.385,0-15.206-6.822-15.206-15.206V162.334z      M167.973,55.667h27.773l-10.513,85.33h-38.286C150.702,125.758,167.973,55.667,167.973,55.667z M146.001,55.667     c0,0-16.853,68.388-21.026,85.33h-37.66l31.538-85.33H146.001z M69.876,55.667H96.11l-31.538,85.33H27.817     C41.837,112.549,55.856,84.109,69.876,55.667z M21.333,179.124v-16.79h40v16.79c0,8.384-6.821,15.206-15.206,15.206H36.54     C28.155,194.331,21.333,187.508,21.333,179.124z M469.333,440.26c0,8.862-7.211,16.073-16.075,16.073H58.741     c-8.864,0-16.075-7.211-16.075-16.074V215.664h3.46c6.49,0,12.585-1.709,17.873-4.688v213.356c0,5.89,4.775,10.667,10.667,10.667     h362.667c5.891,0,10.667-4.777,10.667-10.667V210.977c5.289,2.979,11.383,4.688,17.873,4.688h3.46V440.26z M490.667,179.124     c0,8.385-6.821,15.206-15.206,15.206h-9.587c-8.385,0-15.206-6.822-15.206-15.206v-16.79h40V179.124z"/>
			<path d="M318.297,263.622h1.067c5.891,0,10.667-4.777,10.667-10.667s-4.776-10.667-10.667-10.667h-1.067     c-5.891,0-10.667,4.777-10.667,10.667S312.405,263.622,318.297,263.622z"/>
			<path d="M132.622,305.599h25.245c5.891,0,10.667-4.777,10.667-10.667s-4.775-10.667-10.667-10.667h-25.245     c-13.136,0-23.822,10.687-23.822,23.822v16.356c0,13.135,10.687,23.822,23.822,23.822h12.089c1.373,0,2.489,1.117,2.489,2.489     v16.356c0,1.372-1.117,2.489-2.489,2.489h-25.244c-5.891,0-10.667,4.776-10.667,10.667s4.775,10.667,10.667,10.667h25.245     c13.136,0,23.822-10.687,23.822-23.822v-16.356c0-13.135-10.687-23.822-23.822-23.822h-12.089c-1.373,0-2.489-1.117-2.489-2.489     v-16.356C130.133,306.715,131.25,305.599,132.622,305.599z"/>
			<path d="M230.045,284.266H213.69c-13.136,0-23.822,10.687-23.822,23.822v72.178c0,5.89,4.776,10.667,10.667,10.667     s10.667-4.776,10.667-10.667v-32h21.333v32c0,5.89,4.775,10.667,10.667,10.667c5.891,0,10.667-4.776,10.667-10.667v-72.178     C253.867,294.951,243.18,284.266,230.045,284.266z M232.532,326.932H211.2v-18.845c0-1.372,1.117-2.489,2.489-2.489h16.355     c1.373,0,2.489,1.117,2.489,2.489V326.932z"/>
			<path d="M275.2,294.932v85.333c0,5.89,4.775,10.667,10.667,10.667h32c5.891,0,10.667-4.776,10.667-10.667     s-4.775-10.667-10.667-10.667h-21.333v-74.667c0-5.89-4.775-10.667-10.667-10.667C279.975,284.266,275.2,289.042,275.2,294.932z"/>
			<path d="M360.533,390.932h32c5.891,0,10.667-4.776,10.667-10.667s-4.775-10.667-10.667-10.667H371.2v-21.333h21.333     c5.891,0,10.667-4.777,10.667-10.667s-4.775-10.667-10.667-10.667H371.2v-21.333h21.333c5.891,0,10.667-4.777,10.667-10.667     s-4.775-10.667-10.667-10.667h-32c-5.891,0-10.667,4.776-10.667,10.667v85.333C349.867,386.156,354.642,390.932,360.533,390.932z     "/>
		</g>
	</g>
</g>
<g>
</g>
<g>
</g>
<g>
</g>
<g>
</g>
<g>
</g>
<g>
</g>
<g>
</g>
<g>
</g>
<g>
</g>
<g>
</g>
<g>
</g>
<g>
</g>
<g>
</g>
<g>
</g>
<g>
</g>
</svg>
