<?xml version="1.0" encoding="iso-8859-1"?>
<!-- Generator: Adobe Illustrator 19.0.0, SVG Export Plug-In . SVG Version: 6.00 Build 0)  -->
<svg xmlns="http://www.w3.org/2000/svg" xmlns:xlink="http://www.w3.org/1999/xlink" version="1.1" id="Layer_1" x="0px" y="0px" viewBox="0 0 512.001 512.001" style="enable-background:new 0 0 512.001 512.001;" xml:space="preserve">
<g>
	<g>
		<g>
			<path d="M511.812,474.419c-3.884-20.3-19.463-107.05-23.369-127.469c-0.957-5.006-5.336-8.626-10.433-8.626h-25.494v-21.245     h29.212c5.867,0,10.622-4.757,10.622-10.622v-42.49c0-5.866-4.756-10.622-10.622-10.622h-288.93V125.876h42.136     c13.374,0,24.254-10.881,24.254-24.254V49.217c0-13.374-10.881-24.254-24.254-24.254H81.617     c-13.375,0-24.255,10.881-24.255,24.254v52.405c0,13.374,10.88,24.254,24.254,24.254h42.136v127.469H30.274     c-5.867,0-10.622,4.757-10.622,10.622v42.49c0,5.866,4.756,10.622,10.622,10.622h29.212v21.245H33.992     c-5.097,0-9.475,3.62-10.433,8.626C19.653,367.369,4.073,454.119,0.19,474.419c-0.596,3.11,0.228,6.324,2.247,8.765     s5.02,3.854,8.187,3.854h490.755c3.167,0,6.168-1.413,8.187-3.854S512.406,477.53,511.812,474.419z M81.617,104.631     c-1.66,0-3.01-1.349-3.01-3.009V49.217c0-1.66,1.35-3.009,3.009-3.009h153.316c1.66,0,3.009,1.35,3.009,3.009v52.405     c0,1.66-1.35,3.009-3.009,3.009H81.617z M171.552,125.876v127.469h-26.556V125.876H171.552z M40.897,295.834V274.59h430.208     v21.245H40.897z M431.27,317.079v21.245H80.731v-21.245H431.27z M23.441,465.793c3.126-16.734,15.996-88.394,19.349-106.224     h426.423c3.354,17.83,16.223,89.49,19.349,106.224H23.441z"/>
			<path d="M420.448,380.814H255.801c-5.867,0-10.622,4.757-10.622,10.622v42.49c0,5.866,4.756,10.622,10.622,10.622h164.647     c5.867,0,10.622-4.757,10.622-10.622v-42.49C431.071,385.57,426.315,380.814,420.448,380.814z M300.061,423.303h-33.638v-21.245     h33.638V423.303z M354.943,423.303h-33.638v-21.245h33.638V423.303z M409.826,423.303h-33.638v-21.245h33.638V423.303z"/>
			<path d="M187.132,423.303h-63.734c-5.867,0-10.622,4.757-10.622,10.622c0,5.866,4.756,10.622,10.622,10.622h63.734     c5.867,0,10.622-4.757,10.622-10.622C197.755,428.06,192.999,423.303,187.132,423.303z"/>
			<path d="M80.2,423.303h-1.416c-5.867,0-10.622,4.757-10.622,10.622c0,5.866,4.756,10.622,10.622,10.622H80.2     c5.867,0,10.622-4.757,10.622-10.622C90.822,428.06,86.067,423.303,80.2,423.303z"/>
		</g>
	</g>
</g>
<g>
</g>
<g>
</g>
<g>
</g>
<g>
</g>
<g>
</g>
<g>
</g>
<g>
</g>
<g>
</g>
<g>
</g>
<g>
</g>
<g>
</g>
<g>
</g>
<g>
</g>
<g>
</g>
<g>
</g>
</svg>
