<?xml version="1.0" encoding="iso-8859-1"?>
<!-- Generator: Adobe Illustrator 19.0.0, SVG Export Plug-In . SVG Version: 6.00 Build 0)  -->
<svg xmlns="http://www.w3.org/2000/svg" xmlns:xlink="http://www.w3.org/1999/xlink" version="1.1" id="Layer_1" x="0px" y="0px" viewBox="0 0 512 512" style="enable-background:new 0 0 512 512;" xml:space="preserve">
<g>
	<g>
		<g>
			<path d="M429.662,263.662c-0.256,0.149-0.515,0.293-0.778,0.434c-5.185,2.796-7.123,9.266-4.329,14.451     c1.929,3.576,5.603,5.607,9.4,5.607c1.71,0,3.443-0.412,5.052-1.279c0.458-0.246,0.909-0.5,1.356-0.759     c5.096-2.956,6.831-9.482,3.876-14.578C441.285,262.443,434.761,260.705,429.662,263.662z"/>
			<path d="M393.51,64.668c-0.527-0.08-274.844-0.134-274.844-0.134V34.667C118.667,15.551,103.115,0,84,0     S49.333,15.551,49.333,34.667v408H20c-5.891,0-10.667,4.777-10.667,10.667v48C9.333,507.224,14.109,512,20,512h128     c5.891,0,10.667-4.776,10.667-10.667v-48c0-5.89-4.776-10.667-10.667-10.667h-29.333v-148.8l273.23-0.075     c5.89,0,10.667-4.776,10.667-10.667V87.005c44.572,7.013,78.77,45.684,78.77,92.195c0,22.339-8.015,43.953-22.566,60.858     c-3.844,4.465-3.341,11.2,1.124,15.043c4.466,3.844,11.201,3.34,15.044-1.124c17.883-20.774,27.731-47.331,27.731-74.777     C502.667,117.821,454.189,67.554,393.51,64.668z M70.667,34.667c0-7.353,5.981-13.333,13.333-13.333s13.333,5.981,13.333,13.333     v408H70.667V34.667z M137.333,464v26.667H30.667V464H137.333z M152.43,272.533h-33.763V85.867h33.763V272.533z M381.23,272.459     H173.763V85.867H381.23V272.459z"/>
			<path d="M277.497,251.163c39.701,0,72-32.299,72-72c0-39.701-32.299-72-72-72c-39.701,0-72,32.299-72,72     C205.497,218.864,237.796,251.163,277.497,251.163z M277.497,128.496c27.937,0,50.667,22.73,50.667,50.667     s-22.73,50.667-50.667,50.667s-50.667-22.73-50.667-50.667S249.56,128.496,277.497,128.496z"/>
			<path d="M260.697,189.829h33.6c5.89,0,10.667-4.777,10.667-10.667s-4.777-10.667-10.667-10.667h-33.6     c-5.89,0-10.667,4.776-10.667,10.667S254.806,189.829,260.697,189.829z"/>
		</g>
	</g>
</g>
<g>
</g>
<g>
</g>
<g>
</g>
<g>
</g>
<g>
</g>
<g>
</g>
<g>
</g>
<g>
</g>
<g>
</g>
<g>
</g>
<g>
</g>
<g>
</g>
<g>
</g>
<g>
</g>
<g>
</g>
</svg>
