<?xml version="1.0" encoding="iso-8859-1"?>
<!-- Generator: Adobe Illustrator 19.0.0, SVG Export Plug-In . SVG Version: 6.00 Build 0)  -->
<svg xmlns="http://www.w3.org/2000/svg" xmlns:xlink="http://www.w3.org/1999/xlink" version="1.1" id="Layer_1" x="0px" y="0px" viewBox="0 0 511.999 511.999" style="enable-background:new 0 0 511.999 511.999;" xml:space="preserve">
<g>
	<g>
		<g>
			<path d="M500.817,106.149c-22.358-38.729-68.064-51.839-125.395-35.963c-0.001,0-0.003,0-0.004,0.001     c-0.779,0.216-1.567,0.45-2.35,0.676c-15.741-11.424-42.365-11.923-57.889-11.049c-28.014,1.575-58.417,9.332-85.611,21.843     c-32.227,14.828-58.722,35.816-76.622,60.695c-1.946,2.706-2.454,6.188-1.362,9.336c1.092,3.149,3.648,5.569,6.851,6.487     l48.949,14.043c-35.56,32.417-65.226,67.994-77.642,98.875c-32.46-2.54-71.869-3.833-120.805,2.451     c-4.406,0.565-7.945,3.908-8.761,8.275c-0.816,4.367,1.276,8.763,5.18,10.881c54.792,29.747,87.813,86.939,86.175,149.26     c-0.117,4.441,2.644,8.45,6.833,9.927c1.116,0.393,2.264,0.583,3.402,0.583c3.133,0,6.17-1.441,8.146-4.033     c29.932-39.264,48.508-74.035,62.527-103.408c6.432,0.915,13.336,1.363,20.643,1.363c50.466,0,119.566-20.801,176.734-47.919     c-0.078,13.683-2.139,27.233-6.124,39.841c-1.224,3.873-0.043,8.103,3.009,10.782c1.907,1.673,4.318,2.544,6.757,2.544     c1.465,0,2.942-0.314,4.323-0.958c3.554-1.657,7.039-3.468,10.359-5.384c35.529-20.513,59.529-56.51,66.304-99.196     c5.283-4.406,10.233-8.863,14.811-13.363v-0.001C511.674,191.035,523.178,144.896,500.817,106.149z M178.887,142.737     c35.564-39.715,93.072-59.983,137.439-62.476c11.117-0.624,20.191-0.09,27.348,1.105c-13.343,5.631-27.174,12.565-41.387,20.768     c-25.037,14.458-51.675,33.256-76.534,54.05L178.887,142.737z M110.397,412.778c-3.219-23.81-11.052-46.859-23.168-67.842     c-12.115-20.982-28.157-39.286-47.167-53.98c35.406-2.652,65.137-1.304,90.465,0.743l24.455,42.355     C144.099,357.007,130.407,383.428,110.397,412.778z M428.551,265.444c-7.821,22.326-21.579,41.392-39.873,55.027     c1.519-10.537,1.982-21.334,1.362-32.098l-0.031-0.007c5.154-2.723,10.182-5.484,15.022-8.278     c8.292-4.788,16.143-9.682,23.544-14.665L428.551,265.444z M394.789,262.349c-74.739,43.149-172.487,70.294-221.725,62.067     l-25.149-43.56c17.496-46.755,89.882-117.834,164.614-160.987c18.763-10.83,36.721-19.297,53.582-25.272     c-0.058,0.933-0.108,1.865-0.148,2.795c-0.003,0.073-0.005,0.145-0.007,0.217c-1.136,26.761,5.224,52.962,18.399,75.785     c13.854,23.988,34.095,42.837,59.1,55.197C429.841,240.21,413.531,251.526,394.789,262.349z M459.536,213.416     c-24.608-10.393-44.39-27.657-57.445-50.261c-11.25-19.49-16.668-41.906-15.667-64.825c0.003-0.072,0.005-0.142,0.007-0.213     c0.144-3.268,0.44-6.561,0.849-9.848c45.13-10.847,79.007-0.97,95.799,28.117C499.873,145.488,491.49,179.766,459.536,213.416z"/>
			<circle cx="434.203" cy="133.931" r="10.238"/>
			<path d="M371.692,225.653c-6.735,3.885-15.375,1.572-19.264-5.162c-3.887-6.734-1.572-15.376,5.162-19.264     c4.898-2.827,6.576-9.09,3.748-13.988c-2.827-4.899-9.091-6.576-13.988-3.748c-3.263,1.883-7.063,2.384-10.7,1.408     c-3.638-0.975-6.679-3.308-8.563-6.571c-1.883-3.262-2.384-7.062-1.409-10.7c0.975-3.638,3.309-6.68,6.571-8.563     c4.898-2.827,6.576-9.09,3.748-13.988s-9.09-6.576-13.988-3.748c-8,4.618-13.722,12.076-16.113,20.998     s-1.163,18.242,3.455,26.241c4.595,7.96,12.003,13.661,20.866,16.074c-2.241,8.515-1.264,17.878,3.476,26.088     c6.399,11.081,18.046,17.283,30.008,17.283c5.862,0,11.801-1.49,17.232-4.627c4.898-2.827,6.576-9.09,3.748-13.988     C382.853,224.502,376.589,222.825,371.692,225.653z"/>
			<path d="M296.036,240.663c-3.263,1.883-7.064,2.384-10.701,1.409c-3.638-0.975-6.679-3.309-8.563-6.571     c-3.887-6.734-1.572-15.376,5.162-19.264c4.898-2.827,6.576-9.09,3.748-13.988c-2.828-4.899-9.091-6.576-13.988-3.748     c-16.513,9.535-22.191,30.726-12.658,47.24c4.618,8,12.075,13.722,20.998,16.113c2.979,0.799,6.002,1.193,9.006,1.193     c5.993,0,11.907-1.572,17.235-4.648c4.898-2.827,6.576-9.09,3.748-13.988C307.197,239.513,300.934,237.836,296.036,240.663z"/>
			<path d="M232.794,277.177c-3.262,1.883-7.063,2.384-10.7,1.409c-3.638-0.975-6.679-3.309-8.563-6.571     c-1.883-3.261-2.384-7.062-1.409-10.7c0.975-3.638,3.309-6.68,6.571-8.563c4.898-2.827,6.576-9.09,3.748-13.988     c-2.828-4.899-9.091-6.576-13.988-3.748c-8,4.618-13.722,12.076-16.113,20.998c-2.391,8.922-1.163,18.242,3.455,26.241     c4.618,8,12.075,13.722,20.997,16.113c2.98,0.799,6.003,1.193,9.006,1.193c5.993,0,11.906-1.572,17.235-4.648     c4.898-2.828,6.575-9.09,3.748-13.989C243.953,276.026,237.69,274.348,232.794,277.177z"/>
		</g>
	</g>
</g>
<g>
</g>
<g>
</g>
<g>
</g>
<g>
</g>
<g>
</g>
<g>
</g>
<g>
</g>
<g>
</g>
<g>
</g>
<g>
</g>
<g>
</g>
<g>
</g>
<g>
</g>
<g>
</g>
<g>
</g>
</svg>
