<?xml version="1.0" encoding="iso-8859-1"?>
<!-- Generator: Adobe Illustrator 19.0.0, SVG Export Plug-In . SVG Version: 6.00 Build 0)  -->
<svg xmlns="http://www.w3.org/2000/svg" xmlns:xlink="http://www.w3.org/1999/xlink" version="1.1" id="Layer_1" x="0px" y="0px" viewBox="0 0 512 512" style="enable-background:new 0 0 512 512;" xml:space="preserve">
<g>
	<g>
		<g>
			<path d="M477.217,173.171h-119.56V71.327c0-17.594-14.314-31.908-31.908-31.908H186.249c-17.594,0-31.908,14.314-31.908,31.908     v101.844H34.783C15.604,173.171,0,188.774,0,207.953v30.609c0,16.085,10.977,29.649,25.83,33.609l12.012,144.87     c1.259,15.181,8.124,29.223,19.331,39.54c11.207,10.317,25.768,15.999,41.001,15.999h314.789     c15.171,0,29.688-5.641,40.878-15.884c11.191-10.243,18.089-24.206,19.427-39.318l12.849-145.19     c14.88-3.945,25.883-17.523,25.883-33.626v-30.609C512,188.774,496.396,173.171,477.217,173.171z M176.603,71.327     c0-5.319,4.328-9.647,9.647-9.647h139.501c5.319,0,9.647,4.328,9.647,9.647v101.844H176.603V71.327z M451.094,415.413     c-1.762,19.899-18.154,34.905-38.131,34.905H98.175c-19.759,0-36.516-15.425-38.147-35.117L48.266,273.345h415.402     L451.094,415.413z M489.739,238.562c0,6.904-5.618,12.522-12.522,12.522h-1.391H36.174h-1.391     c-6.904,0-12.522-5.618-12.522-12.522v-30.609c0-6.904,5.618-12.522,12.522-12.522h119.56v19.849     c0,6.147,4.983,11.13,11.13,11.13s11.13-4.983,11.13-11.13v-19.849h300.614c6.904,0,12.522,5.617,12.522,12.522V238.562z"/>
			<path d="M415.667,428.003c0.358,0.034,0.713,0.05,1.066,0.05c5.672,0,10.521-4.316,11.067-10.079l10.47-110.187     c0.581-6.12-3.908-11.551-10.027-12.133c-6.122-0.589-11.551,3.908-12.133,10.027l-10.47,110.187     C405.058,421.99,409.548,427.422,415.667,428.003z"/>
			<path d="M377.421,318.672c0.259,0.018,0.516,0.027,0.774,0.027c5.8,0,10.69-4.496,11.093-10.369l0.057-0.831     c0.421-6.133-4.21-11.445-10.342-11.866c-6.116-0.417-11.445,4.21-11.866,10.342l-0.057,0.831     C366.658,312.939,371.289,318.251,377.421,318.672z"/>
			<path d="M369.914,428.023c0.259,0.018,0.518,0.027,0.774,0.027c5.799,0,10.69-4.496,11.093-10.368l4.909-71.5     c0.421-6.133-4.21-11.445-10.342-11.867c-6.132-0.419-11.445,4.21-11.867,10.342l-4.909,71.5     C359.151,422.29,363.782,427.602,369.914,428.023z"/>
			<path d="M324.164,428.035c0.16,0.007,0.319,0.01,0.479,0.01c5.93,0,10.86-4.679,11.113-10.661l4.657-110.179     c0.259-6.142-4.509-11.331-10.651-11.591c-6.144-0.252-11.332,4.509-11.591,10.651l-4.657,110.179     C313.254,422.587,318.022,427.776,324.164,428.035z"/>
			<path d="M278.413,428.04c0.06,0.001,0.12,0.001,0.18,0.001c6.065,0,11.029-4.867,11.126-10.953l1.75-110.175     c0.098-6.146-4.805-11.208-10.952-11.305c-0.06-0.001-0.12-0.001-0.18-0.001c-6.065,0-11.029,4.867-11.126,10.953l-1.75,110.175     C267.363,422.881,272.267,427.943,278.413,428.04z"/>
			<path d="M232.545,428.038c0.04,0,0.08,0,0.119,0c6.146-0.065,11.078-5.1,11.014-11.246L242.52,306.62     c-0.065-6.107-5.034-11.014-11.127-11.014c-0.04,0-0.08,0-0.119,0c-6.146,0.065-11.078,5.1-11.014,11.246l1.158,110.171     C221.481,423.131,226.452,428.038,232.545,428.038z"/>
			<path d="M186.496,428.034c0.139,0,0.278-0.002,0.417-0.008c6.143-0.227,10.939-5.39,10.713-11.533l-4.064-110.168     c-0.226-6.143-5.386-10.969-11.533-10.713c-6.143,0.227-10.939,5.39-10.713,11.533l4.064,110.168     C175.603,423.317,180.539,428.034,186.496,428.034z"/>
			<path d="M129.352,417.602c0.373,5.896,5.27,10.428,11.097,10.428c0.236,0,0.475-0.008,0.713-0.023     c6.135-0.388,10.793-5.677,10.406-11.811l-6.971-110.163c-0.387-6.135-5.693-10.803-11.81-10.406     c-6.135,0.388-10.793,5.677-10.406,11.81L129.352,417.602z"/>
			<path d="M83.331,417.89c0.519,5.784,5.375,10.136,11.073,10.136c0.333,0,0.669-0.014,1.007-0.046     c6.123-0.549,10.641-5.957,10.092-12.08l-9.878-110.159c-0.549-6.123-5.956-10.636-12.08-10.092     c-6.123,0.549-10.641,5.957-10.092,12.08L83.331,417.89z"/>
		</g>
	</g>
</g>
<g>
</g>
<g>
</g>
<g>
</g>
<g>
</g>
<g>
</g>
<g>
</g>
<g>
</g>
<g>
</g>
<g>
</g>
<g>
</g>
<g>
</g>
<g>
</g>
<g>
</g>
<g>
</g>
<g>
</g>
</svg>
