<?xml version="1.0" encoding="iso-8859-1"?>
<!-- Generator: Adobe Illustrator 19.0.0, SVG Export Plug-In . SVG Version: 6.00 Build 0)  -->
<svg xmlns="http://www.w3.org/2000/svg" xmlns:xlink="http://www.w3.org/1999/xlink" version="1.1" id="Layer_1" x="0px" y="0px" viewBox="0 0 512 512" style="enable-background:new 0 0 512 512;" xml:space="preserve">
<g>
	<g>
		<g>
			<path d="M434.857,185.211c-48.08-27.44-111.565-42.899-178.76-43.53c-0.065-0.001-0.129-0.001-0.194,0     c-67.195,0.631-130.68,16.09-178.76,43.53C27.365,213.62-0.032,251.428,0,291.66l0.002,0.661     c0.262,35.329,29.134,66.66,64.411,69.847c63.563,5.434,127.575,8.152,191.587,8.152s128.023-2.717,191.586-8.152     c0.018-0.001,0.033-0.003,0.05-0.004c35.229-3.182,64.1-34.513,64.361-69.812l0.003-0.684     C512.032,251.428,484.634,213.62,434.857,185.211z M381.623,183.646l-12.037,54.565c-0.579,1.784-1.447,2.457-1.879,2.457     c-0.43,0-1.296-0.671-1.871-2.452l-14.047-63.674L381.623,183.646z M240.327,162.81h31.358c0.026,0.001,0.053,0.002,0.079,0.003     l-13.886,62.985c-0.579,1.783-1.447,2.456-1.879,2.456c-0.43,0-1.295-0.671-1.871-2.452l-13.895-62.988     C240.264,162.813,240.295,162.812,240.327,162.81z M160.206,174.542l-14.038,63.67c-0.578,1.783-1.447,2.457-1.879,2.457     c-0.43,0-1.295-0.671-1.871-2.452l-12.038-54.57L160.206,174.542z M491.311,292.168c-0.181,24.554-21.023,47.169-45.517,49.391     c-125.95,10.768-253.667,10.766-379.568,0.001c-24.502-2.214-45.354-24.833-45.537-49.424l-0.002-0.484     c-0.026-32.488,23.665-63.908,66.71-88.474c7.444-4.248,15.3-8.183,23.504-11.807l11.402,51.689     c0.048,0.218,0.103,0.434,0.165,0.649c3.103,10.715,11.665,17.641,21.813,17.645c0.003,0,0.004,0,0.007,0     c10.148,0,18.715-6.923,21.827-17.638c0.063-0.217,0.119-0.436,0.169-0.657l16.212-73.531     c11.984-2.286,24.306-4.041,36.876-5.243l14.64,66.363c0.048,0.218,0.103,0.434,0.166,0.649     c3.103,10.715,11.665,17.641,21.812,17.644c0.003,0,0.005,0,0.008,0c10.147,0,18.714-6.922,21.827-17.637     c0.063-0.217,0.119-0.436,0.168-0.658l14.631-66.362c12.569,1.202,24.89,2.957,36.873,5.242l16.223,73.534     c0.049,0.218,0.104,0.434,0.165,0.649c3.103,10.715,11.665,17.641,21.813,17.645c0.003,0,0.005,0,0.008,0     c10.148,0,18.715-6.922,21.828-17.637c0.063-0.217,0.118-0.437,0.168-0.657l11.402-51.687c8.202,3.623,16.058,7.558,23.5,11.805     c43.043,24.566,66.736,55.987,66.709,88.482L491.311,292.168z"/>
			<path d="M378.225,302.004H241.692c-5.713,0-10.343,4.631-10.343,10.343s4.631,10.343,10.343,10.343h136.533     c5.712,0,10.343-4.631,10.343-10.343S383.937,302.004,378.225,302.004z"/>
			<path d="M197.991,302.004h-1.034c-5.713,0-10.343,4.631-10.343,10.343s4.631,10.343,10.343,10.343h1.034     c5.713,0,10.343-4.631,10.343-10.343S203.703,302.004,197.991,302.004z"/>
		</g>
	</g>
</g>
<g>
</g>
<g>
</g>
<g>
</g>
<g>
</g>
<g>
</g>
<g>
</g>
<g>
</g>
<g>
</g>
<g>
</g>
<g>
</g>
<g>
</g>
<g>
</g>
<g>
</g>
<g>
</g>
<g>
</g>
</svg>
