<?xml version="1.0" encoding="iso-8859-1"?>
<!-- Generator: Adobe Illustrator 19.0.0, SVG Export Plug-In . SVG Version: 6.00 Build 0)  -->
<svg xmlns="http://www.w3.org/2000/svg" xmlns:xlink="http://www.w3.org/1999/xlink" version="1.1" id="Layer_1" x="0px" y="0px" viewBox="0 0 512 512" style="enable-background:new 0 0 512 512;" xml:space="preserve">
<g>
	<g>
		<g>
			<path d="M357.466,141.986L308.729,94.75c-3.899-3.778-6.135-9.06-6.135-14.49v-7.781h4.918c10.134,0,18.379-8.244,18.379-18.379     V18.379C325.891,8.244,317.646,0,307.512,0H204.489c-10.134,0-18.379,8.244-18.379,18.379V54.1     c0,10.135,8.245,18.379,18.379,18.379h4.918v7.781c0,5.43-2.235,10.711-6.135,14.49l-48.737,47.237     c-7.899,7.657-12.43,18.358-12.43,29.359v299.768c0,22.545,18.342,40.886,40.886,40.886h146.017     c22.544,0,40.886-18.341,40.886-40.886V171.346C369.896,160.344,365.365,149.642,357.466,141.986z M206.818,51.771V20.708h98.364     v31.062H206.818z M294.065,109.365h-76.13c7.741-7.638,12.18-18.222,12.18-29.104v-7.781h51.771v7.781     C281.886,91.142,286.325,101.726,294.065,109.365z M349.188,471.114c0,11.127-9.052,20.178-20.178,20.178H182.991     c-11.127,0-20.178-9.052-20.178-20.178V171.346c0-5.43,2.235-10.711,6.135-14.49l27.634-26.784h118.837l27.634,26.784     c3.899,3.778,6.135,9.06,6.135,14.49V471.114z"/>
			<path d="M305.052,378.963c0-5.719-4.637-10.354-10.354-10.354h-77.395c-4.295,0-8.144,2.652-9.675,6.664     c-1.529,4.012-0.424,8.552,2.779,11.413l34.691,30.973l-34.691,30.974c-3.204,2.86-4.309,7.401-2.779,11.413     c1.531,4.012,5.381,6.664,9.675,6.664h77.395c5.719,0,10.354-4.636,10.354-10.354c0-5.719-4.637-10.354-10.354-10.354h-50.252     l23.094-20.62c2.2-1.964,3.458-4.774,3.458-7.723c0-2.949-1.258-5.759-3.458-7.723l-23.094-20.619h50.252     C300.416,389.317,305.052,384.681,305.052,378.963z"/>
			<path d="M217.303,347.899h0.258c5.718,0,10.354-4.636,10.354-10.354c0-5.719-4.637-10.354-10.354-10.354h-0.258     c-5.718,0-10.354,4.636-10.354,10.354C206.949,343.264,211.585,347.899,217.303,347.899z"/>
			<path d="M294.698,327.191h-43.875c-5.718,0-10.354,4.636-10.354,10.354c0,5.719,4.637,10.354,10.354,10.354h43.875     c5.718,0,10.354-4.636,10.354-10.354C305.052,331.826,300.417,327.191,294.698,327.191z"/>
			<path d="M217.303,306.483H256h38.698c5.718,0,10.354-4.636,10.354-10.354v-38.698c0-5.718-4.636-10.354-10.354-10.354     c-5.718,0-10.354,4.636-10.354,10.354v28.343H256h-38.698c-5.718,0-10.354,4.636-10.354,10.354     C206.949,301.847,211.585,306.483,217.303,306.483z"/>
			<path d="M287.376,175.172l-31.376,31.376l-31.376-31.376c-4.044-4.043-10.599-4.043-14.644,0c-4.043,4.043-4.043,10.6,0,14.644     l21.022,21.022h-13.698c-5.718,0-10.354,4.636-10.354,10.354c0,5.719,4.637,10.354,10.354,10.354H256h38.698     c5.718,0,10.354-4.636,10.354-10.354c0-5.719-4.637-10.354-10.354-10.354h-13.7l21.022-21.022     c4.043-4.044,4.043-10.601-0.001-14.644C297.975,171.129,291.421,171.129,287.376,175.172z"/>
		</g>
	</g>
</g>
<g>
</g>
<g>
</g>
<g>
</g>
<g>
</g>
<g>
</g>
<g>
</g>
<g>
</g>
<g>
</g>
<g>
</g>
<g>
</g>
<g>
</g>
<g>
</g>
<g>
</g>
<g>
</g>
<g>
</g>
</svg>
