<?xml version="1.0" encoding="iso-8859-1"?>
<!-- Generator: Adobe Illustrator 19.0.0, SVG Export Plug-In . SVG Version: 6.00 Build 0)  -->
<svg xmlns="http://www.w3.org/2000/svg" xmlns:xlink="http://www.w3.org/1999/xlink" version="1.1" id="Layer_1" x="0px" y="0px" viewBox="0 0 512 512" style="enable-background:new 0 0 512 512;" xml:space="preserve">
<g>
	<g>
		<g>
			<path d="M495.123,290.6C503.033,280.834,512,269.765,512,256c0-13.765-8.967-24.834-16.877-34.599     c-4.943-6.102-10.054-12.413-11.195-17.427c-1.229-5.405,0.683-13.556,2.532-21.438c2.819-12.023,6.016-25.649,0.23-37.643     c-5.884-12.195-18.664-18.224-29.939-23.542c-7.214-3.404-14.673-6.922-17.998-11.086c-3.364-4.214-5.156-12.308-6.888-20.137     c-2.682-12.13-5.724-25.878-16.24-34.275c-10.467-8.358-24.516-8.284-36.9-8.212c-8.055,0.044-16.376,0.091-21.291-2.281     c-4.725-2.279-9.781-8.722-14.671-14.951c-7.731-9.85-16.493-21.016-29.804-24.042c-12.853-2.922-25.347,3.193-36.37,8.588     c-7.339,3.591-14.929,7.306-20.59,7.306c-5.66,0-13.25-3.715-20.59-7.308c-11.023-5.395-23.512-11.509-36.371-8.588     c-13.311,3.026-22.074,14.191-29.804,24.043c-4.89,6.23-9.945,12.671-14.67,14.95c-4.915,2.371-13.23,2.331-21.291,2.281     c-12.385-0.065-26.433-0.146-36.901,8.212c-10.515,8.397-13.557,22.145-16.239,34.275c-1.732,7.829-3.523,15.923-6.888,20.137     c-3.325,4.164-10.784,7.682-17.999,11.086c-11.275,5.319-24.055,11.347-29.939,23.542c-5.786,11.993-2.589,25.621,0.23,37.644     c1.85,7.883,3.762,16.033,2.533,21.438c-1.14,5.014-6.251,11.324-11.195,17.426C8.967,231.166,0,242.234,0,256     c0,13.766,8.967,24.834,16.878,34.6c4.942,6.102,10.054,12.413,11.195,17.426c1.229,5.405-0.683,13.556-2.532,21.438     c-2.82,12.023-6.017,25.65-0.232,37.644c5.884,12.195,18.665,18.224,29.94,23.543c7.214,3.403,14.673,6.922,17.998,11.084     c3.364,4.214,5.154,12.308,6.886,20.136c2.682,12.13,5.723,25.879,16.24,34.276c10.466,8.358,24.51,8.282,36.9,8.212     c8.055-0.046,16.377-0.09,21.291,2.281c4.725,2.28,9.781,8.722,14.671,14.952c7.73,9.852,16.493,21.016,29.804,24.043     c12.851,2.921,25.346-3.194,36.371-8.588c7.339-3.592,14.929-7.307,20.589-7.307c5.661,0,13.251,3.715,20.591,7.308     c9.05,4.429,19.09,9.344,29.51,9.344c2.271,0,4.559-0.233,6.86-0.756c13.311-3.026,22.074-14.191,29.805-24.043     c4.89-6.23,9.945-12.671,14.669-14.95c4.915-2.371,13.235-2.326,21.291-2.281c12.38,0.066,26.434,0.146,36.901-8.212     c10.515-8.397,13.557-22.145,16.239-34.275c1.732-7.829,3.523-15.923,6.888-20.137c3.324-4.163,10.783-7.682,17.998-11.085     c11.276-5.319,24.056-11.349,29.94-23.543c5.786-11.993,2.589-25.62-0.23-37.643c-1.849-7.883-3.761-16.033-2.532-21.441     C485.069,303.012,490.18,296.702,495.123,290.6z M477.825,276.587c-6.547,8.082-13.316,16.44-15.604,26.505     c-2.369,10.418,0.14,21.114,2.567,31.458c2.074,8.842,4.218,17.985,1.853,22.886c-2.459,5.097-11.065,9.157-19.388,13.083     c-9.511,4.487-19.347,9.127-25.896,17.328c-6.588,8.251-8.947,18.911-11.226,29.219c-1.979,8.948-4.026,18.199-8.395,21.688     c-4.321,3.449-13.755,3.394-22.888,3.347c-10.583-0.055-21.53-0.119-31.087,4.492c-9.375,4.523-16.051,13.03-22.508,21.257     c-5.712,7.278-11.618,14.803-17.229,16.079c-5.187,1.179-13.557-2.914-21.648-6.874c-9.617-4.708-19.561-9.576-30.377-9.576     c-10.817,0-20.76,4.867-30.377,9.574c-8.091,3.96-16.463,8.06-21.649,6.875c-5.61-1.276-11.517-8.801-17.229-16.078     c-6.457-8.227-13.133-16.733-22.51-21.258c-8.485-4.094-18.063-4.504-27.513-4.504c-1.192,0-2.386,0.007-3.573,0.013     c-9.128,0.047-18.569,0.102-22.888-3.347c-4.371-3.489-6.417-12.741-8.396-21.689c-2.28-10.308-4.637-20.968-11.225-29.219     c-6.55-8.201-16.385-12.841-25.896-17.327c-8.323-3.927-16.929-7.986-19.388-13.083c-2.365-4.902-0.22-14.046,1.853-22.888     c2.426-10.342,4.936-21.038,2.568-31.457c-2.288-10.066-9.058-18.423-15.605-26.505c-5.856-7.23-11.912-14.708-11.912-20.588     c0-5.88,6.056-13.357,11.914-20.588c6.547-8.081,13.316-16.437,15.605-26.505c2.369-10.418-0.141-21.113-2.568-31.457     c-2.074-8.842-4.218-17.985-1.853-22.888c2.459-5.097,11.064-9.156,19.387-13.082c9.512-4.487,19.348-9.127,25.897-17.329     c6.588-8.251,8.947-18.911,11.226-29.219c1.979-8.948,4.026-18.199,8.395-21.688c4.321-3.449,13.752-3.397,22.888-3.347     c10.586,0.06,21.531,0.119,31.086-4.491c9.376-4.523,16.053-13.03,22.509-21.257c5.712-7.278,11.618-14.803,17.229-16.079     c5.186-1.183,13.558,2.914,21.649,6.875c9.616,4.707,19.56,9.574,30.376,9.574c10.817,0,20.761-4.867,30.378-9.576     c8.091-3.96,16.46-8.057,21.648-6.874c5.61,1.276,11.517,8.801,17.228,16.078c6.458,8.228,13.134,16.735,22.511,21.258     c9.555,4.61,20.486,4.547,31.086,4.491c9.119-0.049,18.569-0.102,22.888,3.347c4.37,3.489,6.417,12.741,8.396,21.688     c2.279,10.309,4.638,20.969,11.226,29.22c6.549,8.202,16.385,12.841,25.896,17.329c8.323,3.926,16.928,7.985,19.387,13.082     c2.365,4.902,0.22,14.044-1.853,22.886c-2.426,10.342-4.935,21.039-2.567,31.456c2.287,10.066,9.057,18.424,15.604,26.506     c5.856,7.231,11.912,14.708,11.912,20.588C489.739,261.88,483.683,269.358,477.825,276.587z"/>
			<path d="M256,77.913c-98.198,0-178.087,79.89-178.087,178.087S157.802,434.087,256,434.087S434.087,354.197,434.087,256     S354.198,77.913,256,77.913z M256,411.826c-85.922,0-155.826-69.904-155.826-155.826S170.077,100.174,256,100.174     S411.826,170.078,411.826,256S341.923,411.826,256,411.826z"/>
			<path d="M378.342,268.2c-6.045-1.155-11.871,2.796-13.029,8.833c-3.841,20.01-13.175,38.613-26.992,53.797     c-4.137,4.547-3.805,11.586,0.741,15.723c2.134,1.941,4.814,2.898,7.489,2.898c3.025,0,6.039-1.227,8.235-3.64     c16.575-18.216,27.775-40.548,32.388-64.582C388.334,275.192,384.378,269.36,378.342,268.2z"/>
			<path d="M366.66,239.328c0.07,0.196,0.135,0.392,0.196,0.589c1.468,4.791,5.875,7.87,10.638,7.87c1.08,0,2.179-0.159,3.266-0.491     c5.877-1.802,9.182-8.027,7.38-13.904c-0.167-0.548-0.348-1.093-0.545-1.637c-2.091-5.78-8.472-8.772-14.254-6.68     S364.568,233.548,366.66,239.328z"/>
			<path d="M267.13,245.328v-51.959h22.571c6.146,0,11.13-4.983,11.13-11.13s-4.984-11.13-11.13-11.13H267.13v-27.896     c0-6.147-4.984-11.13-11.13-11.13c-6.146,0-11.13,4.983-11.13,11.13v28.356c-25.307,3.101-44.832,21.861-44.832,44.479v6.146     c0,22.618,19.525,41.378,44.832,44.478v51.959h-22.571c-6.146,0-11.13,4.983-11.13,11.13c0,6.147,4.984,11.13,11.13,11.13h22.571     v27.896c0,6.147,4.984,11.13,11.13,11.13c6.146,0,11.13-4.983,11.13-11.13v-28.356c25.307-3.101,44.832-21.86,44.832-44.478     v-6.147C311.963,267.188,292.438,248.429,267.13,245.328z M244.87,244.171c-12.959-2.499-22.571-11.404-22.571-21.977v-6.146     c0-10.574,9.612-19.479,22.571-21.977V244.171z M289.702,295.955c0,10.573-9.612,19.478-22.571,21.977v-50.1     c12.959,2.498,22.571,11.403,22.571,21.977V295.955z"/>
		</g>
	</g>
</g>
<g>
</g>
<g>
</g>
<g>
</g>
<g>
</g>
<g>
</g>
<g>
</g>
<g>
</g>
<g>
</g>
<g>
</g>
<g>
</g>
<g>
</g>
<g>
</g>
<g>
</g>
<g>
</g>
<g>
</g>
</svg>
