<?xml version="1.0" encoding="iso-8859-1"?>
<!-- Generator: Adobe Illustrator 19.0.0, SVG Export Plug-In . SVG Version: 6.00 Build 0)  -->
<svg xmlns="http://www.w3.org/2000/svg" xmlns:xlink="http://www.w3.org/1999/xlink" version="1.1" id="Layer_1" x="0px" y="0px" viewBox="0 0 512 512" style="enable-background:new 0 0 512 512;" xml:space="preserve">
<g>
	<g>
		<g>
			<path d="M419.056,256.15l-108.85-48.838c-3.454-1.55-5.832-4.712-6.363-8.46l-14.117-99.61     c-2.377-16.774-16.946-29.425-33.89-29.425h-8.967v-43.66C246.869,11.734,235.134,0,220.71,0h-75.682     c-14.424,0-26.159,11.734-26.159,26.159v43.776c-15.889,1.28-29.064,13.573-31.194,29.604L73.025,209.816     c-0.198,1.489-0.298,3.006-0.298,4.504v263.451c0,18.874,15.354,34.228,34.228,34.228h298.089     c18.874,0,34.228-15.354,34.228-34.228V287.379C439.273,273.919,431.338,261.661,419.056,256.15z M142.14,26.159h0.001     c0-1.592,1.294-2.886,2.886-2.886h75.682c1.592,0,2.886,1.295,2.886,2.886v43.66H142.14V26.159z M416.001,477.772H416     c0,6.04-4.915,10.956-10.956,10.956H106.956c-6.04,0-10.956-4.915-10.956-10.956V214.321c0-0.481,0.031-0.968,0.095-1.443     l14.651-110.273c0.72-5.424,5.39-9.514,10.86-9.514h134.23c5.423,0,10.086,4.048,10.846,9.418l14.117,99.61     c1.659,11.707,9.091,21.585,19.878,26.426l108.85,48.838c3.932,1.764,6.472,5.688,6.472,9.996V477.772z"/>
			<path d="M140.821,141.31c0.519,0.069,1.037,0.102,1.546,0.102c5.746,0,10.743-4.254,11.52-10.106l0.155-1.164     c0.846-6.371-3.633-12.221-10.004-13.066c-6.362-0.844-12.222,3.633-13.066,10.004l-0.155,1.164     C129.971,134.613,134.45,140.463,140.821,141.31z"/>
			<path d="M130.909,253.747c6.426,0,11.636-5.21,11.636-11.636v-25.438l5.655-42.566c0.847-6.371-3.632-12.22-10.003-13.068     c-6.362-0.842-12.222,3.632-13.068,10.003l-5.757,43.328c-0.068,0.508-0.101,1.019-0.101,1.533v26.207     C119.273,248.538,124.483,253.747,130.909,253.747z"/>
			<path d="M381.091,291.249H130.909c-6.426,0-11.636,5.21-11.636,11.636v150.933c0,6.427,5.211,11.636,11.636,11.636h250.182     c6.426,0,11.636-5.21,11.636-11.636V302.885C392.727,296.46,387.517,291.249,381.091,291.249z M369.454,442.182H142.545v-127.66     h226.909V442.182z"/>
			<path d="M256,428.547c20.854,0,37.818-16.966,37.818-37.818c0-16.891-21.711-48.451-28.365-57.721     c-2.186-3.045-5.704-4.851-9.453-4.851c-3.749,0-7.267,1.806-9.453,4.851c-6.654,9.27-28.365,40.83-28.365,57.721     C218.182,411.582,235.146,428.547,256,428.547z M256,360.69c8.39,13.403,14.545,25.82,14.545,30.038     c0,8.021-6.525,14.545-14.545,14.545s-14.545-6.524-14.545-14.545C241.454,386.51,247.61,374.093,256,360.69z"/>
		</g>
	</g>
</g>
<g>
</g>
<g>
</g>
<g>
</g>
<g>
</g>
<g>
</g>
<g>
</g>
<g>
</g>
<g>
</g>
<g>
</g>
<g>
</g>
<g>
</g>
<g>
</g>
<g>
</g>
<g>
</g>
<g>
</g>
</svg>
