<?xml version="1.0" encoding="iso-8859-1"?>
<!-- Generator: Adobe Illustrator 19.0.0, SVG Export Plug-In . SVG Version: 6.00 Build 0)  -->
<svg xmlns="http://www.w3.org/2000/svg" xmlns:xlink="http://www.w3.org/1999/xlink" version="1.1" id="Layer_1" x="0px" y="0px" viewBox="0 0 512.001 512.001" style="enable-background:new 0 0 512.001 512.001;" xml:space="preserve">
<g>
	<g>
		<g>
			<path d="M478.109,140.7H361.616V41.468c0-17.143-13.947-31.089-31.089-31.089H194.604c-17.143,0-31.089,13.947-31.089,31.089     V140.7H47.023c-18.687,0-33.891,15.204-33.891,33.891v29.824c0,15.672,10.695,28.889,25.168,32.747l6.676,80.517     C17.893,335.661,0,366.431,0,401.306c0,55.315,45.001,100.316,100.316,100.316c44.455,0,82.241-29.068,95.367-69.193h219.822     c14.781,0,28.927-5.496,39.829-15.477c10.904-9.981,17.625-23.587,18.929-38.31l12.519-141.466     c14.499-3.841,25.219-17.071,25.219-32.761v-29.824C512,155.903,496.798,140.7,478.109,140.7z M185.206,41.468     c0-5.183,4.217-9.399,9.399-9.399h135.923c5.183,0,9.399,4.216,9.399,9.399V140.7H185.206V41.468z M100.316,479.932     c-43.355,0-78.626-35.271-78.626-78.626s35.271-78.626,78.626-78.626c43.355,0,78.626,35.271,78.626,78.626     S143.671,479.932,100.316,479.932z M452.658,376.729c-1.717,19.39-17.688,34.01-37.153,34.01h-215.32     c0.291-3.106,0.447-6.252,0.447-9.433c0-4.56-0.312-9.048-0.904-13.448c3.667-1.85,6.124-5.706,5.963-10.078l-3.959-107.341     c-0.22-5.986-5.251-10.697-11.238-10.437c-5.985,0.22-10.658,5.252-10.438,11.236l2.692,72.968     c-6.939-9.986-15.642-18.658-25.657-25.557l-3.068-48.495c-0.378-5.978-5.543-10.495-11.508-10.139     c-5.978,0.38-10.516,5.532-10.139,11.509l2.247,35.51c-8.066-2.944-16.616-4.876-25.491-5.652l-2.825-31.512     c-0.535-5.965-5.804-10.362-11.77-9.832c-5.966,0.535-10.368,5.805-9.833,11.771l2.691,30.012     c-7.462,0.964-14.671,2.749-21.531,5.265l-5.702-68.782h404.748L452.658,376.729z M490.31,204.414     c0,6.727-5.473,12.201-12.201,12.201H47.023c-6.727,0-12.201-5.473-12.201-12.201V174.59c0-6.727,5.473-12.201,12.201-12.201     h116.493v19.34c0,5.989,4.855,10.845,10.845,10.845c5.99,0,10.845-4.856,10.845-10.845v-19.34h292.904     c6.727,0,12.201,5.473,12.201,12.201V204.414z"/>
			<path d="M418.139,388.996c0.349,0.033,0.695,0.05,1.039,0.05c5.527,0,10.251-4.207,10.783-9.82l10.202-107.361     c0.566-5.963-3.808-11.256-9.77-11.822c-5.96-0.564-11.255,3.809-11.822,9.77l-10.202,107.361     C407.802,383.137,412.177,388.43,418.139,388.996z"/>
			<path d="M373.559,389.016c0.253,0.017,0.504,0.025,0.754,0.025c5.65,0,10.415-4.38,10.808-10.102l7.369-107.356     c0.41-5.976-4.102-11.152-10.077-11.562c-5.97-0.397-11.152,4.102-11.563,10.077l-7.369,107.356     C363.072,383.429,367.583,388.606,373.559,389.016z"/>
			<path d="M333.505,282.198c0.154,0.006,0.306,0.01,0.458,0.01c5.783,0,10.586-4.565,10.828-10.395l0.022-0.523     c0.248-5.985-4.402-11.038-10.386-11.285c-5.997-0.244-11.037,4.402-11.285,10.385l-0.022,0.523     C322.871,276.897,327.521,281.95,333.505,282.198z"/>
			<path d="M328.982,389.027c0.156,0.007,0.311,0.01,0.466,0.01c5.778,0,10.581-4.559,10.828-10.387l2.956-69.956     c0.253-5.984-4.393-11.04-10.378-11.293c-5.985-0.255-11.041,4.394-11.294,10.378l-2.956,69.956     C318.351,383.718,322.998,388.774,328.982,389.027z"/>
			<path d="M284.406,389.033c0.059,0.001,0.117,0.001,0.176,0.001c5.908,0,10.746-4.742,10.84-10.672l1.705-107.349     c0.095-5.989-4.682-10.921-10.671-11.016c-0.059-0.001-0.117-0.001-0.176-0.001c-5.908,0-10.746,4.742-10.84,10.673     l-1.705,107.349C273.639,384.005,278.417,388.937,284.406,389.033z"/>
			<path d="M239.713,389.03c0.039,0,0.077,0,0.116-0.001c5.989-0.063,10.794-4.968,10.731-10.958l-1.128-107.344     c-0.063-5.95-4.905-10.731-10.843-10.731c-0.039,0-0.077,0-0.116,0.001c-5.989,0.063-10.794,4.968-10.731,10.958l1.128,107.344     C228.933,384.249,233.776,389.03,239.713,389.03z"/>
			<path d="M139.572,390.461H61.059c-5.99,0-10.845,4.856-10.845,10.845s4.855,10.845,10.845,10.845h78.513     c5.99,0,10.845-4.856,10.845-10.845S145.562,390.461,139.572,390.461z"/>
		</g>
	</g>
</g>
<g>
</g>
<g>
</g>
<g>
</g>
<g>
</g>
<g>
</g>
<g>
</g>
<g>
</g>
<g>
</g>
<g>
</g>
<g>
</g>
<g>
</g>
<g>
</g>
<g>
</g>
<g>
</g>
<g>
</g>
</svg>
