<?xml version="1.0" encoding="iso-8859-1"?>
<!-- Generator: Adobe Illustrator 19.0.0, SVG Export Plug-In . SVG Version: 6.00 Build 0)  -->
<svg xmlns="http://www.w3.org/2000/svg" xmlns:xlink="http://www.w3.org/1999/xlink" version="1.1" id="Layer_1" x="0px" y="0px" viewBox="0 0 512.001 512.001" style="enable-background:new 0 0 512.001 512.001;" xml:space="preserve">
<g>
	<g>
		<g>
			<path d="M176.814,426.166h-1.053c-5.816,0-10.532,4.716-10.532,10.532s4.716,10.532,10.532,10.532h1.053     c5.816,0,10.532-4.716,10.532-10.532S182.63,426.166,176.814,426.166z"/>
			<path d="M458.669,104.293l-0.023,0.029c-0.054-1.201-0.289-2.403-0.766-3.556c-1.63-3.935-5.471-6.502-9.731-6.502h-78.066     V34.866C370.083,15.642,354.441,0,335.215,0H225.898c-19.225,0-34.866,15.642-34.866,34.866v14.241h-14.241     c-19.225,0-34.866,15.642-34.866,34.866v10.291h-28.969c-2.793,0-5.472,1.11-7.447,3.085l-49.102,49.102l0.004,0.01     c-1.789,1.79-2.946,4.219-3.077,6.936c-2.939,61.431-5.929,118.547-8.821,173.781c-2.892,55.231-5.882,112.343-8.821,173.787     c-0.138,2.876,0.909,5.684,2.896,7.771c1.989,2.084,4.743,3.265,7.623,3.265h370.476c2.801,0,5.475-1.122,7.448-3.099     l-0.001,0.015l49.102-49.102c2.111-2.111,3.226-5.018,3.07-7.998C476.191,449.569,464.489,225.747,458.669,104.293z      M422.722,115.33l-28.037,28.037h-73.709V115.33H422.722z M212.097,34.866c0-7.611,6.191-13.802,13.802-13.802h109.317     c7.611,0,13.802,6.192,13.802,13.802v59.398h-28.041V83.974c0-19.226-15.642-34.866-34.866-34.866h-74.012V34.866z      M320.976,221.838c0,5.808-4.725,10.532-10.532,10.532s-10.532-4.725-10.532-10.532s4.725-10.532,10.532-10.532     S320.976,216.031,320.976,221.838z M212.097,70.172h74.012c7.611,0,13.802,6.192,13.802,13.802v10.291h-87.814V70.172z      M162.99,83.974c0-7.611,6.191-13.802,13.802-13.802h14.241v24.093H162.99V83.974z M162.99,115.33h136.921v28.037H162.99V115.33z      M152.458,211.306c5.808,0,10.532,4.725,10.532,10.532s-4.725,10.532-10.532,10.532s-10.532-4.725-10.532-10.532     S146.65,211.306,152.458,211.306z M117.32,115.33h24.606v28.037H89.281L117.32,115.33z M57.263,490.934     c2.766-57.222,5.569-110.77,8.286-162.656c2.735-52.244,5.558-106.164,8.344-163.847h68.033v27.621     c-12.259,4.348-21.065,16.056-21.065,29.786c0,17.423,14.174,31.597,31.597,31.597s31.597-14.174,31.597-31.597     c0-13.73-8.806-25.438-21.065-29.786v-27.621h136.921v27.621c-12.259,4.348-21.065,16.056-21.065,29.786     c0,17.423,14.174,31.597,31.597,31.597c17.423,0,31.597-14.174,31.597-31.597c0-13.73-8.806-25.438-21.065-29.786v-27.621h68.033     c2.786,57.684,5.609,111.604,8.344,163.847c1.667,31.846,3.367,64.323,5.071,97.887H225.131c-5.816,0-10.532,4.716-10.532,10.532     s4.716,10.532,10.532,10.532h178.355c0.718,14.347,1.437,28.9,2.152,43.704H57.263z M426.059,477.201v0.003     c-2.566-52.507-5.156-101.98-7.672-150.026c-2.82-53.833-5.731-109.465-8.598-169.127l28.987-28.987     c5.56,114.003,14.646,288.449,16.25,319.169L426.059,477.201z"/>
		</g>
	</g>
</g>
<g>
</g>
<g>
</g>
<g>
</g>
<g>
</g>
<g>
</g>
<g>
</g>
<g>
</g>
<g>
</g>
<g>
</g>
<g>
</g>
<g>
</g>
<g>
</g>
<g>
</g>
<g>
</g>
<g>
</g>
</svg>
