<?xml version="1.0" encoding="iso-8859-1"?>
<!-- Generator: Adobe Illustrator 19.0.0, SVG Export Plug-In . SVG Version: 6.00 Build 0)  -->
<svg xmlns="http://www.w3.org/2000/svg" xmlns:xlink="http://www.w3.org/1999/xlink" version="1.1" id="Layer_1" x="0px" y="0px" viewBox="0 0 512 512" style="enable-background:new 0 0 512 512;" xml:space="preserve">
<g>
	<g>
		<g>
			<path d="M463.495,48.505H336.842V21.558h123.419c5.953,0,10.779-4.827,10.779-10.779C471.04,4.827,466.214,0,460.261,0H51.739     C45.786,0,40.96,4.827,40.96,10.779c0,5.952,4.826,10.779,10.779,10.779h123.419v26.947H48.505     c-5.953,0-10.779,4.827-10.779,10.779v441.937c0,5.952,4.826,10.779,10.779,10.779h414.99c5.953,0,10.779-4.827,10.779-10.779     V59.284C474.274,53.332,469.448,48.505,463.495,48.505z M196.716,21.558h118.568v26.947H196.716V21.558z M245.221,490.442H59.284     v-28.564h185.937V490.442z M245.221,124.883l-65.289,65.289c-4.209,4.209-4.209,11.034,0,15.245     c2.105,2.104,4.863,3.157,7.622,3.157c2.758,0,5.518-1.053,7.622-3.157l50.046-50.046V440.32H59.284v-99.012l19.329-19.329     c4.209-4.209,4.209-11.034,0-15.245c-4.209-4.208-11.034-4.208-15.245,0l-4.084,4.084V70.063h170.692l-59.612,59.612     c-4.209,4.209-4.209,11.034,0,15.245c2.105,2.104,4.863,3.157,7.622,3.157c2.758,0,5.518-1.053,7.622-3.157l59.613-59.612     V124.883z M452.716,490.442H266.779v-28.564h185.937V490.442z M452.716,124.074l-66.098,66.098     c-4.209,4.209-4.209,11.034,0,15.245c2.105,2.104,4.863,3.157,7.622,3.157s5.518-1.053,7.622-3.157l50.854-50.854V440.32H266.779     v-99.821l19.598-19.598c4.209-4.209,4.209-11.034,0-15.245c-4.209-4.208-11.034-4.208-15.245,0l-4.354,4.354V70.063h169.884     l-59.612,59.612c-4.209,4.209-4.209,11.034,0,15.245c2.105,2.104,4.863,3.157,7.622,3.157s5.518-1.053,7.622-3.157l60.421-60.42     V124.074z"/>
			<path d="M152.254,205.879c-3.246,0-6.318,1.462-8.364,3.98l-56.084,68.993c-2.624,3.227-3.156,7.675-1.369,11.43     c1.787,3.755,5.575,6.148,9.733,6.148h22.381v67.899c0,5.952,4.826,10.779,10.779,10.779h45.846     c5.953,0,10.779-4.827,10.779-10.779V296.43h22.381c4.159,0,7.946-2.393,9.733-6.147c1.787-3.755,1.255-8.203-1.369-11.43     l-56.083-68.994C158.571,207.341,155.499,205.879,152.254,205.879z M175.176,274.872c-5.953,0-10.779,4.827-10.779,10.779v67.899     h-24.288v-67.899c0-5.952-4.826-10.779-10.779-10.779h-10.507l33.43-41.126l33.431,41.126H175.176z"/>
			<path d="M359.747,205.878c-3.246,0-6.318,1.462-8.365,3.98L295.3,278.851c-2.624,3.227-3.156,7.675-1.369,11.43     c1.787,3.754,5.575,6.147,9.733,6.147h22.381v67.9c0,5.952,4.826,10.779,10.779,10.779h45.846     c5.953,0,10.779-4.827,10.779-10.779V296.43h22.381c4.159,0,7.946-2.393,9.733-6.147c1.786-3.756,1.254-8.204-1.37-11.431     l-56.083-68.994C366.065,207.34,362.993,205.878,359.747,205.878z M382.671,274.872c-5.953,0-10.779,4.827-10.779,10.779v67.899     h-24.288v-67.899c0-5.952-4.826-10.779-10.779-10.779h-10.507l33.431-41.126l33.431,41.126H382.671z"/>
			<path d="M142.147,183.916c2.758,0,5.518-1.053,7.622-3.157l1.213-1.213c4.209-4.209,4.209-11.034,0-15.245     c-4.209-4.208-11.034-4.208-15.245,0l-1.213,1.213c-4.209,4.209-4.209,11.034,0,15.245     C136.63,182.863,139.389,183.916,142.147,183.916z"/>
			<path d="M348.834,183.916c2.758,0,5.518-1.053,7.622-3.157l1.213-1.213c4.209-4.209,4.209-11.034,0-15.245     c-4.209-4.208-11.034-4.208-15.245,0l-1.213,1.213c-4.209,4.209-4.209,11.034,0,15.245     C343.316,182.863,346.075,183.916,348.834,183.916z"/>
		</g>
	</g>
</g>
<g>
</g>
<g>
</g>
<g>
</g>
<g>
</g>
<g>
</g>
<g>
</g>
<g>
</g>
<g>
</g>
<g>
</g>
<g>
</g>
<g>
</g>
<g>
</g>
<g>
</g>
<g>
</g>
<g>
</g>
</svg>
