<?xml version="1.0" encoding="iso-8859-1"?>
<!-- Generator: Adobe Illustrator 19.0.0, SVG Export Plug-In . SVG Version: 6.00 Build 0)  -->
<svg xmlns="http://www.w3.org/2000/svg" xmlns:xlink="http://www.w3.org/1999/xlink" version="1.1" id="Layer_1" x="0px" y="0px" viewBox="0 0 512 512" style="enable-background:new 0 0 512 512;" xml:space="preserve">
<g>
	<g>
		<g>
			<path d="M434.024,171.19l-33.835-69.173c13.389-2.212,23.634-13.865,23.634-27.871V28.254C423.822,12.675,411.147,0,395.568,0     H116.432c-15.58,0-28.254,12.675-28.254,28.254v45.891c0,14.006,10.246,25.658,23.635,27.871L77.976,171.19     c-2.63,5.379-4.021,11.387-4.021,17.373v283.899c0,21.801,17.737,39.538,39.538,39.538h285.013     c21.801,0,39.538-17.737,39.538-39.538V188.563C438.044,182.577,436.654,176.569,434.024,171.19z M110.933,74.146V28.254     c0-3.032,2.467-5.499,5.499-5.499h279.136c3.032,0,5.499,2.467,5.499,5.499v45.891c0,3.032-2.467,5.499-5.499,5.499H116.432     C113.4,79.644,110.933,77.178,110.933,74.146z M415.289,472.462c0,9.254-7.529,16.782-16.782,16.782H113.493     c-9.254,0-16.782-7.529-16.782-16.782v-55.656h318.578V472.462z M415.289,394.051H96.711V265.102h53.116     c3.843,0,7.426-1.94,9.527-5.158c19.306-29.569,56.338-47.938,96.646-47.938s77.342,18.369,96.646,47.938     c2.1,3.218,5.683,5.158,9.527,5.158h53.116V394.051z M415.289,242.347h-47.167C343.91,209.449,301.571,189.251,256,189.251     s-87.91,20.198-112.122,53.096H96.711v-53.784c0-2.541,0.591-5.09,1.708-7.375l38.538-78.788h238.087l14.349,29.334h-85.415     c-6.283,0-11.378,5.095-11.378,11.378c0,6.283,5.095,11.378,11.378,11.378h96.545l13.059,26.698     c1.117,2.285,1.708,4.834,1.708,7.374V242.347z"/>
			<path d="M334.697,303.029c0-37.642-35.303-68.267-78.697-68.267s-78.697,30.624-78.697,68.267     c0,37.642,35.303,68.267,78.697,68.267h132.93c6.283,0,11.378-5.095,11.378-11.378c0-6.283-5.095-11.378-11.378-11.378h-74.336     C327.083,336.452,334.697,320.5,334.697,303.029z M256,348.54c-30.845,0-55.941-20.416-55.941-45.511     s25.096-45.511,55.941-45.511s55.941,20.416,55.941,45.511S286.845,348.54,256,348.54z"/>
			<path d="M251.354,134.637h-1.138c-6.283,0-11.378,5.095-11.378,11.378c0,6.283,5.095,11.378,11.378,11.378h1.138     c6.283,0,11.378-5.095,11.378-11.378C262.732,139.732,257.637,134.637,251.354,134.637z"/>
		</g>
	</g>
</g>
<g>
</g>
<g>
</g>
<g>
</g>
<g>
</g>
<g>
</g>
<g>
</g>
<g>
</g>
<g>
</g>
<g>
</g>
<g>
</g>
<g>
</g>
<g>
</g>
<g>
</g>
<g>
</g>
<g>
</g>
</svg>
