<?xml version="1.0" encoding="iso-8859-1"?>
<!-- Generator: Adobe Illustrator 19.0.0, SVG Export Plug-In . SVG Version: 6.00 Build 0)  -->
<svg xmlns="http://www.w3.org/2000/svg" xmlns:xlink="http://www.w3.org/1999/xlink" version="1.1" id="Layer_1" x="0px" y="0px" viewBox="0 0 512 512" style="enable-background:new 0 0 512 512;" xml:space="preserve">
<g>
	<g>
		<g>
			<path d="M506.866,341.578l-69.58-40.175c-2.358-1.361-5.161-1.729-7.789-1.026l-8.929,2.392l-37.2-138.836     c-0.705-2.63-2.425-4.873-4.783-6.234c-2.359-1.362-5.162-1.73-7.79-1.026l-24.793,6.644L328.245,97.05c0,0,0-0.001,0-0.002     c0-0.001,0-0.001,0-0.002l-11.472-42.814c-1.467-5.476-7.099-8.727-12.574-7.26L180.24,80.187     c-5.477,1.467-8.728,7.097-7.26,12.575l29.229,109.085l-24.791,6.643c-5.477,1.467-8.728,7.097-7.26,12.575l37.196,138.835     l-9.117,2.442c-10.866-7.434-23.965-10.827-36.993-9.648L69.519,122.125c-0.854-2.146-2.406-3.941-4.406-5.096L15.402,88.327     c-4.913-2.835-11.189-1.153-14.024,3.758c-2.836,4.911-1.153,11.19,3.758,14.024l46.623,26.918l89.609,225.249     c-23.654,11.663-36.631,38.816-29.554,65.247c6.751,25.198,29.623,41.857,54.555,41.857c4.823,0,9.727-0.623,14.602-1.93     c21.047-5.646,36.684-22.704,40.78-43.632L481,350.345l15.597,9.011c1.617,0.935,3.383,1.379,5.125,1.379     c3.547,0,6.998-1.84,8.9-5.132C513.458,350.693,511.776,344.414,506.866,341.578z M202.223,411.024     c-0.001,0.014-0.002,0.029-0.003,0.043c-0.92,15.454-11.597,28.535-26.566,32.55c-3.104,0.832-6.221,1.228-9.29,1.228     c-15.863-0.001-30.42-10.602-34.716-26.636c-5.125-19.141,6.272-38.882,25.41-44.007c3.059-0.82,6.179-1.222,9.279-1.222     c8.364,0,16.592,2.925,23.154,8.436c5.652,4.734,9.653,11.024,11.574,18.202C202.075,403.382,202.465,407.218,202.223,411.024z      M195.468,97.365l104.126-27.901l6.158,22.982l-24.454,6.552c-5.477,1.467-8.728,7.097-7.26,12.574     c1.229,4.587,5.377,7.613,9.91,7.613c0.879,0,1.774-0.114,2.663-0.352l24.454-6.552l15.1,56.353l-104.127,27.901L195.468,97.365z      M300.936,223.223l-29.751,7.972l-6.644-24.792l29.751-7.972L300.936,223.223z M192.645,225.667l52.063-13.95l9.299,34.708     c0.705,2.63,2.425,4.873,4.783,6.234c1.574,0.909,3.347,1.376,5.133,1.376c0.889,0,1.782-0.116,2.657-0.35l49.585-13.286     c2.631-0.705,4.873-2.425,6.234-4.783c1.361-2.358,1.731-5.16,1.026-7.79l-9.301-34.708l52.063-13.95l34.543,128.918     l-19.072,5.111l-154.472,41.389L192.645,225.667z M221.862,398.532l-0.003,0.007c-0.267-1.419-0.585-2.833-0.963-4.237     c-1.437-5.37-3.629-10.425-6.484-15.057l0.019,0.014l216.271-57.947l25.146,14.516L221.862,398.532z"/>
			<path d="M239.552,131.08c0.879,0,1.774-0.114,2.663-0.352l1.804-0.484c5.477-1.467,8.728-7.097,7.26-12.574     c-1.468-5.477-7.1-8.728-12.574-7.26l-1.804,0.484c-5.477,1.467-8.728,7.097-7.26,12.574     C230.87,128.056,235.018,131.08,239.552,131.08z"/>
		</g>
	</g>
</g>
<g>
</g>
<g>
</g>
<g>
</g>
<g>
</g>
<g>
</g>
<g>
</g>
<g>
</g>
<g>
</g>
<g>
</g>
<g>
</g>
<g>
</g>
<g>
</g>
<g>
</g>
<g>
</g>
<g>
</g>
</svg>
