<?xml version="1.0" encoding="iso-8859-1"?>
<!-- Generator: Adobe Illustrator 19.0.0, SVG Export Plug-In . SVG Version: 6.00 Build 0)  -->
<svg xmlns="http://www.w3.org/2000/svg" xmlns:xlink="http://www.w3.org/1999/xlink" version="1.1" id="Layer_1" x="0px" y="0px" viewBox="0 0 512 512" style="enable-background:new 0 0 512 512;" xml:space="preserve">
<g>
	<g>
		<g>
			<path d="M303.624,152.906c-3.17-1.677-5.141-4.997-5.141-8.663V69.035h2.655c5.865,0,10.621-4.756,10.621-10.621V10.621     C311.759,4.756,307.003,0,301.138,0h-90.277c-5.865,0-10.621,4.756-10.621,10.621v47.794c0,5.865,4.756,10.621,10.621,10.621     h2.655v75.207c0,3.666-1.969,6.986-5.142,8.664c-32.86,17.394-53.273,51.275-53.273,88.423v245.808     c0,13.709,11.153,24.862,24.862,24.862h152.071c13.709,0,24.862-11.153,24.862-24.862V241.329     C356.898,204.182,336.485,170.301,303.624,152.906z M221.482,21.242h69.035v26.552h-69.035V21.242z M335.656,487.138     c0,1.997-1.624,3.621-3.621,3.621H179.964c-1.997,0-3.621-1.624-3.621-3.621V241.329c0-29.258,16.082-55.946,41.969-69.648     c10.144-5.369,16.445-15.882,16.445-27.439V69.035h42.483v75.207c0,11.557,6.302,22.07,16.444,27.438     c25.888,13.703,41.97,40.391,41.97,69.649V487.138z"/>
			<path d="M303.794,257.265h-95.587c-5.865,0-10.621,4.756-10.621,10.621v164.455c0,5.865,4.756,10.621,10.621,10.621h95.587     c5.865,0,10.621-4.756,10.621-10.621V267.886C314.415,262.02,309.66,257.265,303.794,257.265z M293.173,421.719h-74.346V278.507     h74.346V421.719z"/>
			<path d="M256,323.581c5.865,0,10.621-4.756,10.621-10.621v-1.062c0-5.865-4.756-10.621-10.621-10.621     s-10.621,4.756-10.621,10.621v1.062C245.379,318.825,250.135,323.581,256,323.581z"/>
			<path d="M256,402.175c5.865,0,10.621-4.756,10.621-10.621v-42.13c0-5.865-4.756-10.621-10.621-10.621     s-10.621,4.756-10.621,10.621v42.13C245.379,397.419,250.135,402.175,256,402.175z"/>
		</g>
	</g>
</g>
<g>
</g>
<g>
</g>
<g>
</g>
<g>
</g>
<g>
</g>
<g>
</g>
<g>
</g>
<g>
</g>
<g>
</g>
<g>
</g>
<g>
</g>
<g>
</g>
<g>
</g>
<g>
</g>
<g>
</g>
</svg>
