<?xml version="1.0" encoding="iso-8859-1"?>
<!-- Generator: Adobe Illustrator 19.0.0, SVG Export Plug-In . SVG Version: 6.00 Build 0)  -->
<svg xmlns="http://www.w3.org/2000/svg" xmlns:xlink="http://www.w3.org/1999/xlink" version="1.1" id="Layer_1" x="0px" y="0px" viewBox="0 0 511.998 511.998" style="enable-background:new 0 0 511.998 511.998;" xml:space="preserve">
<g>
	<g>
		<g>
			<path d="M434.532,112.454c-3.595-0.75-6.454-3.414-7.285-6.787c-4.923-19.999-12.219-39.558-21.682-58.131     c-3.135-6.153-6.537-12.179-10.116-18.057l11.914-6.132c5.56-2.861,7.749-9.689,4.886-15.25     c-2.862-5.561-9.693-7.751-15.25-4.886L333.321,35.79c-2.941,1.498-5.08,4.204-5.861,7.411c-0.78,3.206-0.123,6.592,1.798,9.275     c36.958,51.561,47.393,118.334,27.913,178.617c-33.33,103.16-144.577,159.819-253.266,128.996     c-36.082-10.234-73.911,1.352-75.503,1.85c-0.435,0.136-0.859,0.298-1.274,0.485C9.356,370.439,5.916,383.112,3.64,391.499     c-0.374,1.378-1.226,4.219-1.226,4.219c-3.789,11.66-3.157,20.699,2.181,31.2c3.764,7.403,9.131,13.985,15.952,19.562     l24.44,19.988c0.392,0.32,0.805,0.615,1.237,0.879c44.771,27.535,94.077,41.89,146.549,42.666     c1.439,0.021,2.875,0.032,4.315,0.032c46.838,0,94.442-11.243,137.944-32.614c1.523-0.747,3.043-1.508,4.557-2.281     c74.805-38.105,125.896-101.958,156.193-195.207c8.179-25.172,16.5-55.107,16.208-86.264     C511.515,142.02,461.104,117.956,434.532,112.454z M474.244,272.948c-28.741,88.455-74.794,146.294-144.934,182.025     c-1.415,0.721-2.835,1.431-4.261,2.131c-40.942,20.113-84.481,30.113-127.347,30.111c-48.826-0.001-96.774-12.977-138.973-38.764     l-23.847-19.502c-4.373-3.576-7.771-7.712-10.102-12.295c-2.567-5.049-2.746-8.044-0.827-13.948c0,0,1.112-3.695,1.541-5.274     c1.886-6.95,2.859-10.536,10.278-14.055c4.694-1.329,34.743-9.218,61.953-1.5c120.471,34.175,243.899-29.004,280.996-143.818     c10.915-33.778,13.646-70.025,7.898-104.824c-4.85-29.363-15.716-57.827-31.632-83.065l20.281-10.334     c3.602,5.827,6.99,11.846,10.116,17.984c8.676,17.028,15.361,34.947,19.871,53.263c2.901,11.783,12.576,21.024,24.667,23.546     c9.943,2.059,24.983,7.72,37.369,17.433c14.481,11.355,21.902,25.429,22.052,41.833     C489.607,221.795,481.859,249.513,474.244,272.948z"/>
			<path d="M432.696,168.896c-0.151-0.007-0.3-0.009-0.448-0.009c-6.051,0-11.07,4.785-11.306,10.883     c-0.902,23.19-4.956,46.08-12.05,68.034c-19.768,61.181-62.09,112.008-119.17,143.118c-5.492,2.993-7.518,9.871-4.524,15.36     c2.054,3.771,5.94,5.907,9.952,5.907c1.831,0,3.688-0.446,5.408-1.384c62.198-33.898,108.324-89.313,129.883-156.039     c7.729-23.923,12.148-48.859,13.129-74.117C443.814,174.402,438.946,169.138,432.696,168.896z"/>
			<path d="M254.447,406.848l-0.52,0.188c-5.887,2.11-8.949,8.593-6.839,14.48c1.658,4.625,6.014,7.506,10.66,7.506     c1.268,0,2.558-0.214,3.82-0.667l0.628-0.228c5.876-2.14,8.905-8.639,6.766-14.514     C266.823,407.736,260.323,404.705,254.447,406.848z"/>
		</g>
	</g>
</g>
<g>
</g>
<g>
</g>
<g>
</g>
<g>
</g>
<g>
</g>
<g>
</g>
<g>
</g>
<g>
</g>
<g>
</g>
<g>
</g>
<g>
</g>
<g>
</g>
<g>
</g>
<g>
</g>
<g>
</g>
</svg>
