<?xml version="1.0" encoding="iso-8859-1"?>
<!-- Generator: Adobe Illustrator 19.0.0, SVG Export Plug-In . SVG Version: 6.00 Build 0)  -->
<svg xmlns="http://www.w3.org/2000/svg" xmlns:xlink="http://www.w3.org/1999/xlink" version="1.1" id="Layer_1" x="0px" y="0px" viewBox="0 0 512 512" style="enable-background:new 0 0 512 512;" xml:space="preserve">
<g>
	<g>
		<g>
			<path d="M453.989,210.826c-19.885-40.674-51.6-66.736-89.306-73.384c-24.98-4.408-56.059-2.56-87.507,5.201     c-2.285,0.564-4.592,1.025-6.913,1.403c6.566-21.57,24.969-64.826,73.131-102.065c4.815-3.723,5.7-10.645,1.977-15.46     c-3.725-4.815-10.644-5.699-15.46-1.977c-22.212,17.174-38.689,35.503-50.895,52.828c-2.951-16.398-9.618-36.022-24.361-50.767     c-29.991-29.99-80.184-26.572-82.307-26.411c-5.432,0.41-9.75,4.728-10.16,10.16c-0.161,2.123-3.578,52.315,26.412,82.306     c20.216,20.216,49.609,25.25,67.273,26.335c-4.436,10.578-7.127,19.477-8.715,25.763c-4.153-0.414-8.278-1.114-12.334-2.115     c-31.448-7.76-62.526-9.606-87.507-5.201c-37.706,6.648-69.422,32.709-89.306,73.384c-19.31,39.503-25.17,88.343-16.498,137.525     c8.672,49.183,30.882,93.074,62.539,123.589C131.253,498.16,162.715,512,194.296,512c6.264,0,12.533-0.544,18.774-1.644     c2.92-0.515,5.948-1.199,9.001-2.034c22.199-6.078,45.665-6.079,67.861,0.001c3.051,0.834,6.078,1.519,8.996,2.032     c6.243,1.101,12.51,1.645,18.776,1.645c31.578-0.002,63.045-13.842,90.244-40.059c31.657-30.514,53.867-74.406,62.539-123.589     C479.159,299.169,473.301,250.329,453.989,210.826z M204.187,77.073c-15.842-15.841-19.345-40.939-19.999-54.88     c13.949,0.656,39.043,4.158,54.881,19.998c15.841,15.841,19.345,40.939,19.999,54.88     C245.119,96.416,220.025,92.913,204.187,77.073z M448.782,344.525c-16.02,90.844-81.534,155.497-146.029,144.122     c-2.252-0.396-4.609-0.93-7.001-1.585c-26.004-7.123-53.496-7.122-79.502-0.001c-2.395,0.656-4.752,1.189-7.005,1.586     c-64.498,11.371-130.007-53.28-146.027-144.123c-7.869-44.627-2.686-88.672,14.594-124.017     c16.707-34.175,42.75-55.965,73.332-61.359c7.51-1.324,15.84-1.976,24.69-1.976c16.733,0,35.319,2.333,53.709,6.87     c8.601,2.123,17.445,3.188,26.29,3.202c0.06,0.001,0.12,0.012,0.18,0.012c0.11,0,0.219-0.012,0.328-0.015     c8.787-0.026,17.57-1.09,26.114-3.198c28.118-6.939,56.693-8.723,78.4-4.894c30.581,5.394,56.624,27.184,73.332,61.359     C451.466,255.853,456.65,299.898,448.782,344.525z"/>
			<path d="M414.447,349.063c-5.853-1.686-11.957,1.688-13.643,7.536c-7.172,24.877-19.014,46.712-34.245,63.143     c-15.612,16.841-33.022,26.116-49.023,26.116c-6.086,0-11.021,4.935-11.021,11.021s4.935,11.021,11.021,11.021     c22.207,0,45.358-11.781,65.189-33.174c17.562-18.945,31.137-43.849,39.258-72.02     C423.669,356.857,420.296,350.748,414.447,349.063z"/>
			<path d="M420.714,304.513c-6.01-0.984-11.673,3.085-12.661,9.09c-0.032,0.195-0.068,0.39-0.11,0.586     c-1.271,5.952,2.525,11.809,8.476,13.078c0.776,0.165,1.549,0.246,2.312,0.246c5.088,0,9.663-3.545,10.767-8.722     c0.115-0.54,0.217-1.079,0.305-1.618C430.789,311.169,426.721,305.501,420.714,304.513z"/>
		</g>
	</g>
</g>
<g>
</g>
<g>
</g>
<g>
</g>
<g>
</g>
<g>
</g>
<g>
</g>
<g>
</g>
<g>
</g>
<g>
</g>
<g>
</g>
<g>
</g>
<g>
</g>
<g>
</g>
<g>
</g>
<g>
</g>
</svg>
