<?xml version="1.0" encoding="iso-8859-1"?>
<!-- Generator: Adobe Illustrator 19.0.0, SVG Export Plug-In . SVG Version: 6.00 Build 0)  -->
<svg xmlns="http://www.w3.org/2000/svg" xmlns:xlink="http://www.w3.org/1999/xlink" version="1.1" id="Layer_1" x="0px" y="0px" viewBox="0 0 512.002 512.002" style="enable-background:new 0 0 512.002 512.002;" xml:space="preserve">
<g>
	<g>
		<g>
			<path d="M511.979,132.817c-0.003-1.592-0.345-3.186-1.072-4.659L458.712,22.262c-1.783-3.616-5.465-5.907-9.498-5.907H66.489     c-4.032,0-7.716,2.291-9.498,5.907L4.796,128.157c-0.726,1.474-1.068,3.07-1.072,4.661l-0.019,0.02V160.1     c0,18.475,13.887,33.757,31.768,35.985v128.646C14.529,334.632,0,355.956,0,380.617c0,9.51,5.163,27.159,49.809,70.427     c23.347,22.627,46.291,41.422,47.255,42.211c1.923,1.571,4.298,2.391,6.702,2.391c0.006,0,0.013,0,0.02,0     c2.404,0,4.78-0.818,6.704-2.391c0.886-0.725,20.322-16.649,41.578-36.776h291.027c20.477,0,37.137-16.659,37.137-37.136V196.084     c17.881-2.228,31.768-17.51,31.768-35.985v-27.262L511.979,132.817z M442.627,37.533l41.756,84.715h-36.488l-31.311-84.715     H442.627z M394.006,37.533l31.311,84.715h-37.388l-20.874-84.715H394.006z M429.932,143.428v16.671     c0,8.324-6.772,15.096-15.096,15.096h-9.518c-8.324,0-15.096-6.773-15.096-15.096v-16.671H429.932z M369.042,143.428v16.671     c0,8.323-6.772,15.096-15.096,15.096h-9.518c-8.324,0-15.096-6.773-15.096-15.096v-16.671h0H369.042z M345.241,37.533     l20.874,84.715h-38.009l-10.437-84.715H345.241z M268.441,37.533h27.888l10.437,84.715h-38.325V37.533z M308.153,143.428v16.671     c0,8.323-6.772,15.096-15.096,15.096h-9.518c-8.324,0-15.096-6.773-15.096-15.096v-16.671h0H308.153z M283.538,196.373h9.518     c10.026,0,19.113-4.09,25.686-10.687c6.573,6.597,15.66,10.687,25.686,10.687h9.518c10.026,0,19.113-4.09,25.686-10.687     c6.573,6.597,15.66,10.687,25.686,10.687h9.518c0.624,0,1.243-0.016,1.859-0.047v55.072h0h-62.418     c-5.849,0-10.589,4.742-10.589,10.589c0,5.848,4.741,10.59,10.589,10.59h62.418v120.366H204.784     c2.222-5.341,2.768-9.26,2.768-12.326c0-34.068-27.717-61.785-61.785-61.785c-15.707,0-30.674,6-41.99,16.483     c-1.524-1.412-3.118-2.734-4.766-3.978v-58.76H262.5c5.849,0,10.589-4.742,10.589-10.589c0-5.848-4.741-10.589-10.589-10.589     H99.01v-55.071c0.616,0.031,1.236,0.047,1.86,0.047h9.518c10.026,0,19.113-4.09,25.686-10.687     c6.573,6.597,15.66,10.687,25.686,10.687h9.518c10.026,0,19.113-4.09,25.686-10.687c6.573,6.597,15.66,10.687,25.686,10.687     h9.518c10.026,0,19.113-4.09,25.686-10.687C264.426,192.284,273.512,196.373,283.538,196.373z M85.774,160.099v-16.671h39.711     v16.671c0,8.323-6.772,15.096-15.096,15.096h-9.518C92.546,175.195,85.774,168.424,85.774,160.099z M146.663,160.099v-16.671     h39.711v16.671c0,8.323-6.772,15.096-15.096,15.096h-9.518C153.435,175.195,146.663,168.422,146.663,160.099z M219.374,37.533     h27.888v84.715h-38.325L219.374,37.533z M207.553,143.428h39.711v16.671c0,8.323-6.772,15.096-15.096,15.096h-9.518     c-8.324,0-15.096-6.773-15.096-15.096V143.428z M170.462,37.533h27.572l-10.437,84.715h-38.009L170.462,37.533z M148.651,37.533     l-20.875,84.715H90.388l31.311-84.715H148.651z M73.076,37.533h26.043l-31.311,84.715H31.319L73.076,37.533z M77.832,188.099     v132.878c-5.177-1.397-10.564-2.143-16.045-2.143c-1.73,0-3.438,0.09-5.134,0.23v-123.4c7.16-1.438,13.564-4.989,18.532-9.974     C76.027,186.535,76.909,187.339,77.832,188.099z M24.884,160.099v-16.671h39.711v16.671c0,8.323-6.772,15.096-15.096,15.096     h-9.518C31.656,175.195,24.884,168.424,24.884,160.099z M143.097,435.747c-15.313,14.848-30.792,28.279-39.321,35.512     c-8.507-7.212-23.929-20.594-39.229-35.423c-42.151-40.851-43.368-53.869-43.368-55.219c0-22.39,18.216-40.606,40.606-40.606     c13.248,0,25.701,6.504,33.309,17.397c1.981,2.837,5.222,4.526,8.681,4.526c3.46,0,6.701-1.69,8.681-4.526     c7.609-10.893,20.061-17.397,33.309-17.397c22.39,0,40.606,18.216,40.606,40.606     C186.373,381.966,185.158,394.965,143.097,435.747z M459.053,419.344c0,8.799-7.16,15.957-15.958,15.957H173.346     c7.699-8.134,13.692-15.131,18.351-21.179h235.587c5.849,0,10.589-4.742,10.589-10.589V188.099     c0.922-0.759,1.805-1.565,2.647-2.41c4.968,4.986,11.372,8.537,18.532,9.974V419.344z M490.821,160.099     c0,8.324-6.772,15.096-15.096,15.096h-9.518c-8.324,0-15.096-6.773-15.096-15.096v-16.671h39.711V160.099z"/>
			<path d="M309.095,272.577h2.118c5.849,0,10.589-4.742,10.589-10.589c0-5.848-4.741-10.59-10.589-10.59h-2.118     c-5.849,0-10.589,4.742-10.589,10.589C298.506,267.835,303.247,272.577,309.095,272.577z"/>
		</g>
	</g>
</g>
<g>
</g>
<g>
</g>
<g>
</g>
<g>
</g>
<g>
</g>
<g>
</g>
<g>
</g>
<g>
</g>
<g>
</g>
<g>
</g>
<g>
</g>
<g>
</g>
<g>
</g>
<g>
</g>
<g>
</g>
</svg>
