<?xml version="1.0" encoding="iso-8859-1"?>
<!-- Generator: Adobe Illustrator 19.0.0, SVG Export Plug-In . SVG Version: 6.00 Build 0)  -->
<svg xmlns="http://www.w3.org/2000/svg" xmlns:xlink="http://www.w3.org/1999/xlink" version="1.1" id="Layer_1" x="0px" y="0px" viewBox="0 0 512 512" style="enable-background:new 0 0 512 512;" xml:space="preserve">
<g>
	<g>
		<g>
			<path d="M484.33,96H27.67C12.413,96,0,108.414,0,123.67v264.657C0,403.586,12.413,416,27.67,416h456.658     C499.586,416,512,403.586,512,388.329V123.67C512,108.414,499.586,96,484.33,96z M21.333,123.67c0-3.494,2.844-6.337,6.337-6.337     h456.658c3.494,0,6.337,2.843,6.337,6.337v67.137H21.333V123.67z M490.667,388.329c0,3.494-2.843,6.338-6.337,6.338H27.67     c-3.494,0-6.337-2.844-6.337-6.338V275.075h469.333V388.329z M490.667,253.742H21.333v-41.6h469.333V253.742z"/>
			<path d="M375.307,376.242c9.246,0,17.807-2.966,24.802-7.983c6.995,5.018,15.555,7.983,24.8,7.983     c23.526,0,42.667-19.14,42.667-42.667c0-23.526-19.141-42.667-42.667-42.667c-9.246,0-17.806,2.965-24.8,7.983     c-6.995-5.018-15.556-7.983-24.802-7.983c-23.526,0-42.667,19.14-42.667,42.667C332.64,357.102,351.78,376.242,375.307,376.242z      M413.872,315.346c3.22-1.964,6.994-3.104,11.037-3.104c11.763,0,21.333,9.57,21.333,21.333c0,11.763-9.57,21.333-21.333,21.333     c-4.043,0-7.817-1.14-11.037-3.104c2.625-5.532,4.1-11.711,4.1-18.229C417.972,327.057,416.497,320.878,413.872,315.346z      M375.306,312.242c11.763,0,21.333,9.57,21.333,21.333c0,11.763-9.57,21.333-21.333,21.333c-11.763,0-21.333-9.57-21.333-21.333     C353.972,321.812,363.542,312.242,375.306,312.242z"/>
			<path d="M50.455,356.886c2.083,2.082,4.813,3.124,7.542,3.124s5.46-1.042,7.542-3.124l6.324-6.324l6.324,6.324     c2.083,2.082,4.813,3.124,7.542,3.124s5.46-1.042,7.542-3.124c4.165-4.165,4.165-10.919,0-15.086l-6.324-6.324l6.324-6.324     c4.167-4.166,4.167-10.921,0.002-15.086c-4.165-4.164-10.919-4.164-15.086,0l-6.324,6.324l-6.324-6.324     c-4.165-4.164-10.919-4.164-15.086,0c-4.165,4.165-4.165,10.919,0,15.086l6.324,6.324l-6.324,6.324     C46.29,345.966,46.29,352.72,50.455,356.886z"/>
			<path d="M120.855,356.886c2.083,2.082,4.813,3.124,7.542,3.124c2.73,0,5.46-1.042,7.542-3.124l6.324-6.324l6.324,6.324     c2.083,2.082,4.813,3.124,7.542,3.124c2.73,0,5.46-1.042,7.542-3.124c4.165-4.165,4.165-10.919,0-15.086l-6.324-6.324     l6.324-6.324c4.167-4.166,4.167-10.921,0.002-15.086c-4.165-4.164-10.919-4.164-15.086,0l-6.324,6.324l-6.324-6.324     c-4.165-4.164-10.919-4.164-15.086,0c-4.165,4.165-4.165,10.919,0,15.086l6.324,6.324l-6.324,6.324     C116.69,345.966,116.69,352.72,120.855,356.886z"/>
			<path d="M191.255,356.886c2.083,2.082,4.813,3.124,7.542,3.124s5.46-1.042,7.542-3.124l6.324-6.324l6.324,6.324     c2.083,2.082,4.813,3.124,7.542,3.124s5.46-1.042,7.542-3.124c4.165-4.165,4.165-10.919,0-15.086l-6.324-6.324l6.324-6.324     c4.167-4.166,4.167-10.921,0.002-15.086c-4.165-4.164-10.919-4.164-15.086,0l-6.324,6.324l-6.324-6.324     c-4.165-4.164-10.919-4.164-15.086,0c-4.165,4.165-4.165,10.919,0,15.086l6.324,6.324l-6.324,6.324     C187.09,345.966,187.09,352.72,191.255,356.886z"/>
			<path d="M261.656,356.886c2.083,2.082,4.813,3.124,7.542,3.124c2.73,0,5.459-1.042,7.542-3.124l6.324-6.324l6.324,6.324     c2.083,2.082,4.813,3.124,7.542,3.124s5.459-1.042,7.542-3.124c4.165-4.165,4.165-10.919,0-15.086l-6.324-6.324l6.324-6.324     c4.169-4.166,4.169-10.921,0.002-15.086c-4.166-4.164-10.918-4.164-15.086,0l-6.324,6.324l-6.324-6.324     c-4.166-4.164-10.918-4.164-15.086,0c-4.165,4.165-4.165,10.919,0,15.086l6.324,6.324l-6.324,6.324     C257.49,345.966,257.49,352.72,261.656,356.886z"/>
			<path d="M201.6,144.409H120c-5.891,0-10.667,4.777-10.667,10.667s4.776,10.667,10.667,10.667h81.6     c5.891,0,10.667-4.777,10.667-10.667S207.491,144.409,201.6,144.409z"/>
			<path d="M257.6,144.409h-1.067c-5.891,0-10.667,4.777-10.667,10.667s4.775,10.667,10.667,10.667h1.067     c5.89,0,10.667-4.777,10.667-10.667S263.49,144.409,257.6,144.409z"/>
		</g>
	</g>
</g>
<g>
</g>
<g>
</g>
<g>
</g>
<g>
</g>
<g>
</g>
<g>
</g>
<g>
</g>
<g>
</g>
<g>
</g>
<g>
</g>
<g>
</g>
<g>
</g>
<g>
</g>
<g>
</g>
<g>
</g>
</svg>
