<?xml version="1.0" encoding="iso-8859-1"?>
<!-- Generator: Adobe Illustrator 19.0.0, SVG Export Plug-In . SVG Version: 6.00 Build 0)  -->
<svg xmlns="http://www.w3.org/2000/svg" xmlns:xlink="http://www.w3.org/1999/xlink" version="1.1" id="Layer_1" x="0px" y="0px" viewBox="0 0 512 512" style="enable-background:new 0 0 512 512;" xml:space="preserve">
<g>
	<g>
		<g>
			<path d="M511.991,406.961c0-1.191-0.192-2.387-0.602-3.539c-8.839-24.839-43.436-110.619-51.908-134.28V151.709     c0-13.509-10.991-24.5-24.5-24.5h-51.289v-26.392h43.26c12.527,0,22.719-10.191,22.719-22.719V28.525     c0-12.528-10.191-22.719-22.719-22.719H271.813c-12.528,0-22.719,10.191-22.719,22.719v49.572     c0,12.528,10.191,22.719,22.719,22.719h43.26v26.392h-94.087V91.843c0-4.266-2.567-8.113-6.507-9.749l-30.493-12.668     c-2.594-1.078-5.508-1.078-8.1,0l-26.45,10.986l-26.449-10.986c-3.258-1.353-6.977-0.99-9.911,0.968     c-2.934,1.958-4.696,5.253-4.696,8.78v48.033H77.02c-13.509,0-24.5,10.991-24.5,24.5V269.14     C44.047,292.802,9.45,378.582,0.611,403.421l0.006,0.009C0.225,404.536,0,405.72,0,406.961v88.676     c0,5.83,4.727,10.557,10.557,10.557h490.887c5.829,0,10.557-4.726,10.557-10.557v-88.676H511.991z M271.813,79.703     c-0.885,0-1.606-0.72-1.606-1.606V28.525c0-0.886,0.721-1.606,1.606-1.606h155.139c0.886,0,1.606,0.72,1.606,1.606v49.572     c0,0.886-0.72,1.606-1.606,1.606H271.813z M362.578,100.817v26.392h-26.392v-26.392H362.578z M153.487,101.592l26.45-10.985     l19.937,8.283v94.826h-70.377V94.992l15.891,6.601C147.977,102.669,150.893,102.67,153.487,101.592z M73.633,151.708     c0-1.867,1.519-3.387,3.387-3.387h31.363v55.951c0,5.831,4.727,10.557,10.557,10.557h91.491c5.829,0,10.557-4.726,10.557-10.557     v-55.951H434.98c1.867,0,3.387,1.519,3.387,3.387v108.514H73.633V151.708z M70.573,281.336h370.856     c8.015,22.037,37.911,96.146,44.941,115.068H25.631C32.66,377.482,62.558,303.373,70.573,281.336z M490.887,485.08H21.113     v-67.563h469.773V485.08z"/>
			<path d="M449.852,360.832l-2.341-5.885c-2.157-5.418-8.298-8.061-13.711-5.906c-5.418,2.156-8.062,8.293-5.908,13.711     l2.341,5.885c1.647,4.137,5.615,6.657,9.812,6.657c1.298,0,2.619-0.242,3.899-0.751     C449.362,372.388,452.006,366.25,449.852,360.832z"/>
			<path d="M431.614,314.99l-2.341-5.885c-2.156-5.418-8.294-8.061-13.711-5.908c-5.418,2.156-8.062,8.293-5.908,13.711l2.341,5.885     c1.647,4.137,5.615,6.657,9.813,6.657c1.298,0,2.618-0.242,3.899-0.75C431.124,326.546,433.769,320.407,431.614,314.99z"/>
			<path d="M402.391,355.829c-1.668-5.588-7.55-8.762-13.135-7.096c-5.587,1.668-8.764,7.548-7.096,13.135l1.757,5.885     c1.367,4.579,5.564,7.54,10.111,7.54c1,0,2.016-0.144,3.023-0.443c5.587-1.668,8.764-7.548,7.096-13.135L402.391,355.829z"/>
			<path d="M390.469,315.872l-1.757-5.885c-1.668-5.587-7.549-8.766-13.135-7.096c-5.587,1.667-8.764,7.548-7.096,13.135     l1.757,5.885c1.367,4.579,5.564,7.541,10.111,7.541c1,0,2.016-0.143,3.023-0.443C388.96,327.34,392.137,321.459,390.469,315.872z     "/>
			<path d="M357.204,356.79c-1.136-5.719-6.697-9.431-12.413-8.295c-5.719,1.137-9.432,6.694-8.294,12.413l1.17,5.885     c0.998,5.023,5.408,8.5,10.342,8.5c0.682,0,1.376-0.066,2.07-0.205c5.719-1.137,9.432-6.694,8.294-12.413L357.204,356.79z"/>
			<path d="M340.96,329.246c5.719-1.137,9.432-6.694,8.294-12.413l-1.17-5.885c-1.136-5.72-6.691-9.433-12.413-8.295     c-5.719,1.137-9.432,6.694-8.294,12.413l1.17,5.885c0.998,5.024,5.408,8.5,10.342,8.5     C339.573,329.45,340.266,329.384,340.96,329.246z"/>
			<path d="M311.929,357.804c-0.577-5.801-5.743-10.039-11.55-9.459c-5.801,0.577-10.037,5.748-9.46,11.55l0.586,5.885     c0.543,5.446,5.132,9.513,10.492,9.513c0.349,0,0.702-0.018,1.058-0.053c5.801-0.577,10.037-5.748,9.46-11.55L311.929,357.804z"/>
			<path d="M298.497,329.397c5.801-0.576,10.037-5.748,9.46-11.55l-0.586-5.885c-0.577-5.802-5.733-10.039-11.55-9.459     c-5.801,0.576-10.037,5.748-9.46,11.55l0.586,5.885c0.543,5.446,5.132,9.513,10.492,9.513     C297.789,329.449,298.141,329.432,298.497,329.397z"/>
			<path d="M256,348.292c-5.829,0-10.557,4.726-10.557,10.557v5.885c0,5.831,4.727,10.557,10.557,10.557s10.557-4.726,10.557-10.557     v-5.885C266.557,353.018,261.829,348.292,256,348.292z"/>
			<path d="M256,302.45c-5.829,0-10.557,4.726-10.557,10.557v5.885c0,5.83,4.727,10.557,10.557,10.557s10.557-4.726,10.557-10.557     v-5.885C266.557,307.176,261.829,302.45,256,302.45z"/>
			<path d="M211.621,348.345c-5.813-0.585-10.974,3.658-11.55,9.459l-0.586,5.885c-0.577,5.802,3.659,10.973,9.46,11.55     c0.356,0.036,0.708,0.053,1.058,0.053c5.36,0,9.951-4.066,10.492-9.513l0.586-5.885     C221.658,354.093,217.422,348.921,211.621,348.345z"/>
			<path d="M216.179,302.501c-5.807-0.585-10.974,3.658-11.55,9.459l-0.586,5.885c-0.577,5.802,3.659,10.974,9.46,11.55     c0.356,0.036,0.708,0.053,1.058,0.053c5.36,0,9.951-4.066,10.492-9.513l0.586-5.885     C226.216,308.249,221.98,303.079,216.179,302.501z"/>
			<path d="M167.209,348.495c-5.723-1.137-11.277,2.577-12.413,8.295l-1.17,5.885c-1.137,5.719,2.576,11.276,8.294,12.413     c0.696,0.138,1.387,0.205,2.07,0.205c4.933,0,9.345-3.476,10.342-8.5l1.17-5.885C176.64,355.189,172.927,349.632,167.209,348.495     z"/>
			<path d="M176.326,302.652c-5.718-1.138-11.277,2.577-12.413,8.295l-1.17,5.885c-1.137,5.719,2.576,11.276,8.294,12.413     c0.695,0.138,1.387,0.205,2.07,0.205c4.934,0,9.345-3.476,10.342-8.5l1.17-5.885     C185.759,309.346,182.045,303.789,176.326,302.652z"/>
			<path d="M122.744,348.733c-5.587-1.67-11.468,1.51-13.135,7.096l-1.757,5.885c-1.668,5.587,1.51,11.468,7.096,13.135     c1.007,0.301,2.024,0.443,3.023,0.443c4.547,0,8.744-2.96,10.111-7.54l1.757-5.885     C131.508,356.282,128.33,350.401,122.744,348.733z"/>
			<path d="M136.423,302.891c-5.588-1.67-11.467,1.51-13.135,7.096l-1.757,5.885c-1.668,5.587,1.51,11.468,7.096,13.135     c1.007,0.301,2.024,0.443,3.023,0.443c4.547,0,8.744-2.96,10.111-7.541l1.757-5.885     C145.186,310.439,142.01,304.558,136.423,302.891z"/>
			<path d="M78.201,349.04c-5.416-2.156-11.555,0.489-13.711,5.906l-2.341,5.885c-2.155,5.417,0.49,11.555,5.908,13.711     c1.281,0.51,2.6,0.751,3.899,0.751c4.197,0,8.166-2.52,9.812-6.657l2.341-5.885C86.263,357.334,83.619,351.195,78.201,349.04z"/>
			<path d="M96.44,303.197c-5.418-2.155-11.554,0.49-13.711,5.908l-2.341,5.885c-2.155,5.418,0.49,11.556,5.908,13.711     c1.281,0.509,2.6,0.75,3.899,0.75c4.197,0,8.166-2.52,9.812-6.657l2.341-5.885C104.501,311.49,101.856,305.353,96.44,303.197z"/>
			<path d="M406.697,169.435H292.069c-5.829,0-10.557,4.726-10.557,10.557v48.561c0,5.83,4.727,10.557,10.557,10.557h114.628     c5.829,0,10.557-4.726,10.557-10.557v-48.561C417.254,174.161,412.526,169.435,406.697,169.435z M396.14,217.996h-93.514v-27.447     h93.514V217.996z"/>
			<path d="M154.656,152.28h20.058c5.829,0,10.557-4.726,10.557-10.557c0-5.83-4.727-10.557-10.557-10.557h-20.058     c-5.829,0-10.557,4.726-10.557,10.557C144.099,147.554,148.826,152.28,154.656,152.28z"/>
		</g>
	</g>
</g>
<g>
</g>
<g>
</g>
<g>
</g>
<g>
</g>
<g>
</g>
<g>
</g>
<g>
</g>
<g>
</g>
<g>
</g>
<g>
</g>
<g>
</g>
<g>
</g>
<g>
</g>
<g>
</g>
<g>
</g>
</svg>
