<?xml version="1.0" encoding="iso-8859-1"?>
<!-- Generator: Adobe Illustrator 19.0.0, SVG Export Plug-In . SVG Version: 6.00 Build 0)  -->
<svg xmlns="http://www.w3.org/2000/svg" xmlns:xlink="http://www.w3.org/1999/xlink" version="1.1" id="Layer_1" x="0px" y="0px" viewBox="0 0 512 512" style="enable-background:new 0 0 512 512;" xml:space="preserve">
<g>
	<g>
		<g>
			<path d="M458.24,271.36h-18.603v-35.84c0-5.655-4.585-10.24-10.24-10.24h-46.08c-5.655,0-10.24,4.585-10.24,10.24v35.84h-25.635     c0.007-0.229,0.035-0.453,0.035-0.683v-67.072c0-8.632-5.202-16.061-12.629-19.349v-22.891c0-10.963-8.919-19.882-19.883-19.882     h-31.914c-10.964,0-19.883,8.919-19.883,19.882v22.891c-7.427,3.288-12.629,10.718-12.629,19.349v67.072     c0,0.23,0.028,0.454,0.035,0.683h-25.635V138.24c0-5.655-4.586-10.24-10.24-10.24h-25.686v-23.083     c0-15.504-12.613-28.117-28.117-28.117h-15.445c-15.504,0-28.118,12.613-28.118,28.117V128H91.648     c-5.655,0-10.24,4.585-10.24,10.24v133.12H53.76C24.117,271.36,0,295.477,0,325.12c0,25.232,17.478,46.449,40.96,52.208v47.632     c0,5.655,4.585,10.24,10.24,10.24h409.6c5.654,0,10.24-4.585,10.24-10.24v-47.632c23.482-5.759,40.96-26.975,40.96-52.208     C512,295.477,487.883,271.36,458.24,271.36z M393.557,245.76h25.6v25.6h-25.6V245.76z M283.648,161.963h30.72v20.48h-30.72     V161.963z M271.019,203.605c0-0.376,0.306-0.682,0.682-0.682h54.614c0.376,0,0.682,0.306,0.682,0.682v67.072     c0,0.377-0.306,0.683-0.682,0.683h-54.614c-0.376,0-0.682-0.306-0.682-0.683V203.605z M137.813,104.917     c0-4.211,3.426-7.637,7.638-7.637h15.445c4.211,0,7.637,3.426,7.637,7.637V128h-30.72V104.917z M101.888,148.48h102.571v122.88     H101.888V148.48z M450.56,414.72H61.44v-35.84h389.12V414.72z M458.24,358.4H53.76c-18.351,0-33.28-14.929-33.28-33.28     c0-18.351,14.929-33.28,33.28-33.28h404.48c18.351,0,33.28,14.929,33.28,33.28C491.52,343.471,476.591,358.4,458.24,358.4z"/>
			<path d="M461.399,314.88h-1.024c-5.655,0-10.24,4.585-10.24,10.24s4.585,10.24,10.24,10.24h1.024     c5.655,0,10.24-4.586,10.24-10.24S467.054,314.88,461.399,314.88z"/>
			<path d="M51.625,314.88h-1.024c-5.655,0-10.24,4.585-10.24,10.24s4.585,10.24,10.24,10.24h1.024c5.655,0,10.24-4.586,10.24-10.24     S57.281,314.88,51.625,314.88z"/>
			<path d="M412.672,314.88H299.008c-5.655,0-10.24,4.585-10.24,10.24s4.585,10.24,10.24,10.24h113.664     c5.655,0,10.24-4.586,10.24-10.24S418.327,314.88,412.672,314.88z"/>
		</g>
	</g>
</g>
<g>
</g>
<g>
</g>
<g>
</g>
<g>
</g>
<g>
</g>
<g>
</g>
<g>
</g>
<g>
</g>
<g>
</g>
<g>
</g>
<g>
</g>
<g>
</g>
<g>
</g>
<g>
</g>
<g>
</g>
</svg>
