<?xml version="1.0" encoding="iso-8859-1"?>
<!-- Generator: Adobe Illustrator 19.0.0, SVG Export Plug-In . SVG Version: 6.00 Build 0)  -->
<svg xmlns="http://www.w3.org/2000/svg" xmlns:xlink="http://www.w3.org/1999/xlink" version="1.1" id="Layer_1" x="0px" y="0px" viewBox="0 0 512 512" style="enable-background:new 0 0 512 512;" xml:space="preserve">
<g>
	<g>
		<g>
			<path d="M429.405,358.763c-5.709-3.082-12.836-0.953-15.917,4.757c-7.547,13.98-18.4,26.749-32.259,37.956     c-31.939,25.823-75.897,40.044-123.776,40.044h-2.928c-6.486,0-11.747,5.259-11.747,11.747s5.26,11.747,11.747,11.747h2.928     c53.237,0,102.441-16.076,138.546-45.269c16.29-13.172,29.13-28.333,38.161-45.065     C437.243,368.971,435.115,361.844,429.405,358.763z"/>
			<path d="M437.636,302.29c-6.486,0-11.747,5.259-11.747,11.747c0,0.415-0.002,0.828-0.006,1.24     c-0.067,6.487,5.139,11.799,11.626,11.865c0.041,0,0.081,0,0.122,0c6.432,0,11.677-5.181,11.743-11.627     c0.006-0.491,0.008-0.984,0.008-1.479C449.382,307.549,444.123,302.29,437.636,302.29z"/>
			<path d="M441.814,186.383c-10.277-10.228-21.719-19.447-34.114-27.592l5.474-1.976c4.231-1.526,7.219-5.334,7.694-9.806     c0.476-4.472-1.642-8.823-5.457-11.206c-36.04-22.511-78.761-36.753-124.159-41.468V70.899l29.789-5.67     c4.056-0.772,7.409-3.617,8.831-7.493c1.422-3.876,0.706-8.214-1.888-11.427l-2.856-3.535     c-19.747-24.448-48.744-39.731-79.56-41.928l-12.269-0.82c-3.244-0.215-6.434,0.922-8.806,3.142     c-2.374,2.221-3.721,5.327-3.721,8.579v82.588c-45.378,4.713-88.101,18.951-124.154,41.456     c-3.815,2.381-5.937,6.732-5.461,11.205c0.475,4.472,3.462,8.281,7.692,9.808l5.483,1.979     c-12.408,8.145-23.862,17.366-34.145,27.601c-35.693,35.521-54.557,79.663-54.554,127.654     c-0.005,47.993,18.86,92.136,54.554,127.657c44.941,44.725,112.071,70.306,184.263,70.305c0.497,0,0.996-0.001,1.493-0.003     c0.503,0.002,0.995,0.003,1.497,0.003c72.3-0.002,139.436-25.583,184.376-70.307c35.693-35.521,54.557-79.663,54.554-127.654     C496.371,266.047,477.507,221.905,441.814,186.383z M233.332,116.825c6.156-0.428,10.933-5.547,10.933-11.718v-80.8     c18.997,1.437,37.125,9.198,51.583,21.803l-18.54,3.529c-5.541,1.055-9.55,5.899-9.55,11.54v43.93     c0,6.17,4.775,11.29,10.933,11.718c36.56,2.542,71.416,11.684,102.171,26.674l-51.319,18.517     c-3.121,1.125-5.612,3.536-6.873,6.605s-1.155,6.545,0.274,9.539c0.034,0.07,0.144,0.307,0.296,0.65l0.156,0.359     c8.395,19.232,8.224,34.844,5.071,46.592l-65.372-49.525c-4.196-3.179-9.993-3.179-14.186,0l-65.374,49.526     c-3.156-11.749-3.328-27.364,5.076-46.598l0.181-0.416c0.108-0.25,0.183-0.416,0.182-0.416c1.505-3.001,1.654-6.503,0.411-9.62     c-1.245-3.118-3.764-5.555-6.921-6.696l-51.299-18.523C161.929,128.505,196.785,119.364,233.332,116.825z M425.242,425.041     c-40.57,40.375-101.66,63.467-167.909,63.464c-0.46,0-0.929-0.001-1.391-0.003c-0.464,0.002-0.923,0.003-1.387,0.003     c-66.133,0-127.23-23.091-167.799-63.463c-31.164-31.015-47.636-69.399-47.634-111.004     c-0.002-41.603,16.469-79.987,47.632-111.002c13.322-13.258,28.867-24.638,46.069-33.964l30.305,10.942     c-10.369,31.159-3.277,54.995,5.073,70.023c1.654,2.975,4.517,5.087,7.847,5.789c3.328,0.701,6.801-0.075,9.516-2.131     l70.434-53.359l70.435,53.359c2.058,1.56,4.554,2.383,7.093,2.383c0.808,0,1.619-0.083,2.422-0.253     c3.331-0.702,6.193-2.815,7.847-5.79c8.347-15.025,15.436-38.859,5.073-70.019l30.305-10.935     c17.202,9.321,32.748,20.695,46.069,33.951c31.164,31.015,47.636,69.399,47.634,111.003v0.001     C472.878,355.643,456.408,394.027,425.242,425.041z"/>
		</g>
	</g>
</g>
<g>
</g>
<g>
</g>
<g>
</g>
<g>
</g>
<g>
</g>
<g>
</g>
<g>
</g>
<g>
</g>
<g>
</g>
<g>
</g>
<g>
</g>
<g>
</g>
<g>
</g>
<g>
</g>
<g>
</g>
</svg>
