<?xml version="1.0" encoding="iso-8859-1"?>
<!-- Generator: Adobe Illustrator 19.0.0, SVG Export Plug-In . SVG Version: 6.00 Build 0)  -->
<svg xmlns="http://www.w3.org/2000/svg" xmlns:xlink="http://www.w3.org/1999/xlink" version="1.1" id="Layer_1" x="0px" y="0px" viewBox="0 0 512 512" style="enable-background:new 0 0 512 512;" xml:space="preserve">
<g>
	<g>
		<g>
			<path d="M504.161,272.376L321.7,89.917V67.213c0-17.272-14.051-31.323-31.323-31.323H31.323C14.052,35.89,0,49.942,0,67.213     v377.574c0,17.272,14.052,31.323,31.323,31.323h259.053c17.272,0,31.323-14.051,31.323-31.323v-75.516l42.783,42.783     c5.063,5.064,11.794,7.853,18.957,7.853c7.161,0,13.893-2.789,18.957-7.852l101.765-101.765     C514.612,299.837,514.613,282.831,504.161,272.376z M253.973,453.535H31.323c-4.823,0-8.748-3.924-8.748-8.748V67.213     c0-4.823,3.925-8.748,8.748-8.748h222.65V453.535z M299.124,444.787c0,4.823-3.925,8.748-8.748,8.748h-13.827V58.465h13.827     c4.823,0,8.748,3.925,8.748,8.748V444.787z M386.432,396.091c-1.079,1.079-2.338,1.24-2.992,1.24     c-0.655,0-1.913-0.161-2.992-1.24L321.7,337.345v-73.429l98.455,98.454L386.432,396.091z M436.117,346.405L321.7,231.989v-39.908     l134.371,134.372L436.117,346.405z M488.198,294.326l-16.163,16.163L321.7,160.153v-38.309l166.498,166.496     C489.848,289.99,489.848,292.676,488.198,294.326z"/>
			<path d="M56.439,193.917H220.11c6.234,0,11.288-5.055,11.288-11.288V92.328c0-6.233-5.054-11.288-11.288-11.288H56.439     c-6.234,0-11.288,5.055-11.288,11.288v90.302C45.151,188.863,50.204,193.917,56.439,193.917z M67.726,103.616h141.096v67.726     H67.726V103.616z"/>
			<path d="M56.439,416.85H220.11c6.234,0,11.288-5.055,11.288-11.288V227.781c0-6.233-5.054-11.288-11.288-11.288H56.439     c-6.234,0-11.288,5.055-11.288,11.288v177.781C45.151,411.795,50.204,416.85,56.439,416.85z M176.841,239.068h31.981v36.685     h-31.981V239.068z M176.841,298.329h31.981v36.685h-31.981V298.329z M176.841,357.589h31.981v36.685h-31.981V357.589z      M122.284,239.068h31.981v36.685h-31.981V239.068z M122.283,298.329h31.981v36.685h-31.981V298.329z M122.283,357.589h31.981     v36.685h-31.981V357.589z M67.726,239.068h31.981v36.685H67.726V239.068z M67.726,298.329h31.981v36.685H67.726V298.329z      M67.726,357.589h31.981v36.685H67.726V357.589z"/>
			<path d="M181.356,126.191h-0.753c-6.234,0-11.288,5.055-11.288,11.288s5.053,11.288,11.288,11.288h0.753     c6.234,0,11.288-5.055,11.288-11.288S187.59,126.191,181.356,126.191z"/>
			<path d="M141.661,126.191H98.579c-6.234,0-11.288,5.055-11.288,11.288s5.055,11.288,11.288,11.288h43.082     c6.234,0,11.288-5.055,11.288-11.288S147.895,126.191,141.661,126.191z"/>
		</g>
	</g>
</g>
<g>
</g>
<g>
</g>
<g>
</g>
<g>
</g>
<g>
</g>
<g>
</g>
<g>
</g>
<g>
</g>
<g>
</g>
<g>
</g>
<g>
</g>
<g>
</g>
<g>
</g>
<g>
</g>
<g>
</g>
</svg>
