<?xml version="1.0" encoding="iso-8859-1"?>
<!-- Generator: Adobe Illustrator 19.0.0, SVG Export Plug-In . SVG Version: 6.00 Build 0)  -->
<svg xmlns="http://www.w3.org/2000/svg" xmlns:xlink="http://www.w3.org/1999/xlink" version="1.1" id="Layer_1" x="0px" y="0px" viewBox="0 0 512 512" style="enable-background:new 0 0 512 512;" xml:space="preserve">
<g>
	<g>
		<g>
			<path d="M495.638,216.577L461.217,79.376c-3.181-12.682-11.94-22.813-24.028-27.795c-12.087-4.982-25.442-3.964-36.635,2.795     l-16.761,10.12c-14.113-18.067-31.446-33.157-50.686-44.048C309.473,7.071,282.82,0,256.03,0     c-26.808,0-53.476,7.079-77.12,20.473c-19.231,10.893-36.556,25.984-50.662,44.048l-16.803-10.146     c-11.192-6.757-24.544-7.777-36.634-2.795c-12.088,4.982-20.847,15.112-24.029,27.795L16.362,216.577     c-1.113,4.434,0.626,9.095,4.371,11.716c3.745,2.621,8.719,2.66,12.504,0.099l55.056-37.261     c0.752,20.593,4.593,40.583,11.453,59.628c-27.322,20.215-38.725,56.532-27.155,89.917l7.927,22.874     c5.454,15.738,15.433,29.033,28.857,38.447l13.36,9.37c14.959,10.491,23.889,27.951,23.889,46.706v14.236     c0,21.884,17.396,39.689,38.777,39.689c21.382,0,38.777-17.805,38.777-39.69c0-31.591-5.26-62.683-15.63-92.409l-8.032-23.018     c17.757,6.781,36.571,10.3,55.515,10.3c16.908,0,33.371-2.678,49.195-7.987l-7.224,20.703     c-10.372,29.727-15.63,60.817-15.63,92.409c0,21.884,17.396,39.689,38.777,39.689c21.382,0,38.777-17.805,38.777-39.689v-14.236     c0-18.755,8.93-36.216,23.889-46.706l13.36-9.37c13.424-9.414,23.403-22.709,28.857-38.447l7.927-22.873     c10.846-31.297,1.417-65.608-22.907-86.5c7.652-20.042,11.918-41.168,12.717-63.006l54.996,37.22     c3.785,2.563,8.76,2.523,12.504-0.099C495.012,225.672,496.751,221.011,495.638,216.577z M418.589,161.04     c-3.494-2.364-8.031-2.527-11.686-0.421s-5.789,6.113-5.493,10.322c0.293,4.197,0.442,8.454,0.442,12.652     c0,24.454-4.813,47.95-14.306,69.837c-2.114,4.875-0.451,10.565,3.956,13.533c21.319,14.36,30.208,41.704,21.616,66.495     l-7.927,22.874c-3.927,11.329-11.077,20.878-20.681,27.613l-13.36,9.37c-20.838,14.615-33.279,38.825-33.279,64.761v14.236     c0,9.724-7.503,17.636-16.724,17.636c-9.222,0-16.724-7.912-16.724-17.637c0-29.112,4.845-57.758,14.4-85.144l15.461-44.313     c1.493-4.281,0.215-9.038-3.223-11.994c-2.045-1.759-4.607-2.665-7.19-2.665c-1.759,0-3.529,0.42-5.151,1.278     c-19.654,10.389-40.746,15.658-62.69,15.658c-24.097,0-47.975-6.651-69.051-19.232c-3.981-2.377-9.026-2.009-12.621,0.922     s-4.971,7.798-3.443,12.178l16.807,48.168c9.556,27.384,14.4,56.031,14.4,85.144c0,9.724-7.502,17.636-16.724,17.636     c-9.221,0-16.724-7.911-16.724-17.636v-14.236c0-25.937-12.441-50.148-33.279-64.761l-13.36-9.37     c-9.604-6.735-16.756-16.284-20.681-27.613l-7.927-22.874c-9.161-26.433,1.453-55.337,25.237-68.725     c4.863-2.737,6.914-8.677,4.777-13.831c-8.78-21.18-13.233-43.825-13.233-67.308c0-4.207,0.15-8.477,0.445-12.693     c0.296-4.209-1.837-8.217-5.492-10.324c-3.654-2.107-8.192-1.943-11.687,0.421l-48.701,32.96l27.4-109.214     c1.462-5.828,5.487-10.482,11.041-12.772c5.554-2.289,11.689-1.822,16.832,1.285l19.763,11.933     c1.319,3.127,4.041,5.541,7.452,6.405c4.509,1.143,9.252-0.666,11.852-4.525c27.853-41.317,70.467-65.014,116.918-65.014     c46.417,0,89.014,23.67,116.866,64.94c2.601,3.855,7.341,5.663,11.854,4.519c3.372-0.856,6.071-3.226,7.405-6.304l19.797-11.953     c5.143-3.104,11.279-3.574,16.833-1.285c5.555,2.289,9.579,6.943,11.041,12.772l27.4,109.214L418.589,161.04z"/>
			<path d="M354.815,155.567c1.107,5.178,5.682,8.723,10.772,8.723c0.764,0,1.539-0.079,2.317-0.246     c5.954-1.274,9.75-7.133,8.477-13.089c-0.119-0.56-0.243-1.12-0.367-1.677c-1.339-5.941-7.243-9.669-13.181-8.333     c-5.941,1.339-9.671,7.24-8.333,13.181C354.607,154.605,354.712,155.085,354.815,155.567z"/>
			<path d="M369.167,186.014c-6.062-0.557-11.43,3.912-11.985,9.977c-2.873,31.437-17.022,60.703-38.816,80.294     c-4.529,4.071-4.9,11.043-0.829,15.572c2.178,2.423,5.185,3.655,8.204,3.655c2.625,0,5.261-0.933,7.368-2.826     c25.882-23.266,42.661-57.778,46.035-94.688C379.698,191.933,375.231,186.568,369.167,186.014z"/>
		</g>
	</g>
</g>
<g>
</g>
<g>
</g>
<g>
</g>
<g>
</g>
<g>
</g>
<g>
</g>
<g>
</g>
<g>
</g>
<g>
</g>
<g>
</g>
<g>
</g>
<g>
</g>
<g>
</g>
<g>
</g>
<g>
</g>
</svg>
