<?xml version="1.0" encoding="iso-8859-1"?>
<!-- Generator: Adobe Illustrator 19.0.0, SVG Export Plug-In . SVG Version: 6.00 Build 0)  -->
<svg xmlns="http://www.w3.org/2000/svg" xmlns:xlink="http://www.w3.org/1999/xlink" version="1.1" id="Layer_1" x="0px" y="0px" viewBox="0 0 512.001 512.001" style="enable-background:new 0 0 512.001 512.001;" xml:space="preserve">
<g>
	<g>
		<g>
			<path d="M339.193,178.301c-7.237-9.065-18.039-14.263-29.638-14.263h-28.337l51.392-50.743c4.068-4.017,4.109-10.571,0.093-14.64     c-4.019-4.07-10.572-4.109-14.64-0.093l-51.712,51.059V10.351C266.352,4.635,261.717,0,256.001,0     c-5.716,0-10.351,4.635-10.351,10.351V149.62l-51.712-51.059c-4.069-4.016-10.621-3.975-14.64,0.093     c-4.016,4.069-3.975,10.622,0.093,14.64l51.392,50.743h-28.337c-11.599,0-22.401,5.198-29.638,14.263     c-7.236,9.066-9.912,20.751-7.342,32.063l63.658,280.183c2.915,12.831,13.715,21.454,26.875,21.454     c13.16,0,23.959-8.622,26.874-21.454l63.659-280.183C349.105,199.052,346.429,187.366,339.193,178.301z M326.347,205.776     l-12.044,53.006h-51.866c-5.716,0-10.351,4.635-10.351,10.351c0,5.716,4.635,10.351,10.351,10.351H309.6l-16.463,72.459h-22.626     c-5.716,0-10.351,4.635-10.351,10.351s4.635,10.351,10.351,10.351h17.922L262.687,485.96c-1.094,4.816-5.04,5.337-6.686,5.337     c-1.646,0-5.592-0.521-6.686-5.338l-15.161-66.733h15.413c5.716,0,10.351-4.635,10.351-10.351     c0-5.716-4.635-10.351-10.351-10.351H229.45l-16.463-72.459h32.905c5.716,0,10.351-4.635,10.351-10.351     s-4.635-10.351-10.351-10.351h-37.609l-16.464-72.459h33.748c5.716,0,10.351-4.635,10.351-10.351     c0-5.716-4.635-10.351-10.351-10.351h-38.452l-1.46-6.425c-1.168-5.136,0.048-10.443,3.334-14.559     c3.285-4.117,8.191-6.477,13.458-6.477h107.108c5.267,0,10.172,2.36,13.458,6.477C326.3,195.334,327.515,200.641,326.347,205.776     z"/>
			<path d="M266.024,212.201h-0.733c-5.716,0-10.351,4.635-10.351,10.351c0,5.716,4.635,10.351,10.351,10.351h0.733     c5.716,0,10.351-4.635,10.351-10.351C276.375,216.836,271.74,212.201,266.024,212.201z"/>
			<path d="M215.007,94.487c1.844,3.545,5.454,5.576,9.192,5.576c1.609,0,3.242-0.376,4.768-1.171     c5.071-2.639,7.044-8.889,4.405-13.96L212.41,44.637c-2.638-5.07-8.886-7.047-13.96-4.406c-5.071,2.639-7.044,8.889-4.405,13.96     L215.007,94.487z"/>
			<path d="M283.036,98.893c1.527,0.795,3.159,1.171,4.768,1.171c3.738,0,7.348-2.031,9.192-5.576l20.962-40.297     c2.639-5.071,0.667-11.322-4.406-13.96c-5.071-2.641-11.322-0.666-13.96,4.406l-20.962,40.296     C275.992,90.004,277.964,96.254,283.036,98.893z"/>
		</g>
	</g>
</g>
<g>
</g>
<g>
</g>
<g>
</g>
<g>
</g>
<g>
</g>
<g>
</g>
<g>
</g>
<g>
</g>
<g>
</g>
<g>
</g>
<g>
</g>
<g>
</g>
<g>
</g>
<g>
</g>
<g>
</g>
</svg>
