<?xml version="1.0" encoding="iso-8859-1"?>
<!-- Generator: Adobe Illustrator 19.0.0, SVG Export Plug-In . SVG Version: 6.00 Build 0)  -->
<svg xmlns="http://www.w3.org/2000/svg" xmlns:xlink="http://www.w3.org/1999/xlink" version="1.1" id="Layer_1" x="0px" y="0px" viewBox="0 0 512 512" style="enable-background:new 0 0 512 512;" xml:space="preserve">
<g>
	<g>
		<g>
			<path d="M253.95,433.524c5.659,0,10.247-4.588,10.247-10.247v-76.851c0-5.659-4.588-10.247-10.247-10.247     c-5.659,0-10.247,4.588-10.247,10.247v76.851C243.703,428.936,248.292,433.524,253.95,433.524z"/>
			<path d="M210.401,336.179c-5.659,0-10.247,4.588-10.247,10.247v35.177c0,5.659,4.588,10.247,10.247,10.247     s10.247-4.588,10.247-10.247v-35.177C220.648,340.766,216.06,336.179,210.401,336.179z"/>
			<path d="M210.401,412.344c-5.659,0-10.247,4.587-10.247,10.247v0.687c0,5.659,4.588,10.247,10.247,10.247     s10.247-4.587,10.247-10.247v-0.687C220.648,416.931,216.06,412.344,210.401,412.344z"/>
			<path d="M166.852,336.179c-5.659,0-10.247,4.588-10.247,10.247v76.851c0,5.659,4.588,10.247,10.247,10.247     s10.247-4.588,10.247-10.247v-76.851C177.099,340.766,172.511,336.179,166.852,336.179z"/>
			<path d="M123.303,336.179c-5.659,0-10.247,4.588-10.247,10.247v35.177c0,5.659,4.588,10.247,10.247,10.247     c5.659,0,10.247-4.588,10.247-10.247v-35.177C133.55,340.766,128.962,336.179,123.303,336.179z"/>
			<path d="M123.303,412.344c-5.659,0-10.247,4.587-10.247,10.247v0.687c0,5.659,4.588,10.247,10.247,10.247     c5.659,0,10.247-4.587,10.247-10.247v-0.687C133.55,416.931,128.962,412.344,123.303,412.344z"/>
			<path d="M79.754,336.179c-5.659,0-10.247,4.588-10.247,10.247v76.851c0,5.659,4.587,10.247,10.247,10.247     c5.659,0,10.247-4.588,10.247-10.247v-76.851C90.001,340.766,85.413,336.179,79.754,336.179z"/>
			<path d="M79.754,295.192H38.767c-5.659,0-10.247,4.588-10.247,10.247v40.987c0,5.659,4.587,10.247,10.247,10.247     c5.659,0,10.247-4.587,10.247-10.247v-30.74h30.74c5.659,0,10.247-4.587,10.247-10.247     C90.001,299.779,85.413,295.192,79.754,295.192z"/>
			<path d="M294.937,295.192H253.95c-5.659,0-10.247,4.588-10.247,10.247c0,5.659,4.588,10.247,10.247,10.247h30.74v30.74     c0,5.659,4.587,10.247,10.247,10.247c5.659,0,10.247-4.587,10.247-10.247v-40.987     C305.184,299.779,300.597,295.192,294.937,295.192z"/>
			<path d="M79.754,454.017h-30.74v-30.74c0-5.659-4.588-10.247-10.247-10.247c-5.659,0-10.247,4.587-10.247,10.247v40.987     c0,5.659,4.587,10.247,10.247,10.247h40.987c5.659,0,10.247-4.588,10.247-10.247C90.001,458.605,85.413,454.017,79.754,454.017z"/>
			<path d="M294.937,413.03c-5.659,0-10.247,4.587-10.247,10.247v30.74h-30.74c-5.659,0-10.247,4.587-10.247,10.247     c0,5.659,4.588,10.247,10.247,10.247h40.987c5.659,0,10.247-4.588,10.247-10.247v-40.987     C305.184,417.618,300.597,413.03,294.937,413.03z"/>
			<path d="M493.304,115.508c-1.66-31.817-28.066-57.193-60.289-57.193H170.614c-3.853,0-7.381,2.161-9.13,5.595     c-26.008,51.04-26.006,111.977,0,163.008c1.75,3.433,5.276,5.594,9.13,5.594h69.603c0.027,0,0.053,0.005,0.081,0.005     c0.032,0,0.064-0.005,0.095-0.005h49.423v36.038c0,5.659,4.588,10.247,10.247,10.247h45.817l38.114,171.126     c1.044,4.686,5.201,8.019,10.002,8.019c21.922,0,42.358-9.809,56.07-26.912c13.709-17.1,18.838-39.178,14.07-60.569     l-30.721-137.959c32.042-0.209,58.239-25.494,59.891-57.176c10.748-2.84,18.696-12.645,18.696-24.273v-11.272     C512,128.153,504.052,118.349,493.304,115.508z M224.414,212.018h-47.384c-19.419-42.134-19.419-91.067,0.001-133.209h47.386     C207.409,121.467,207.408,169.36,224.414,212.018z M310.308,258.303v-25.791h25.26l5.744,25.791H310.308z M444.13,374.917     c3.408,15.291-0.257,31.07-10.056,43.294c-8.093,10.095-19.465,16.635-32.005,18.608l-45.505-204.307h55.855L444.13,374.917z      M433.013,212.018H246.72c-19.42-42.143-19.419-91.067,0.003-133.209h186.29c20.636,0,37.66,15.754,39.679,35.867H327.557     c-5.659,0-10.247,4.587-10.247,10.247v40.987c0,5.659,4.588,10.247,10.247,10.247h145.136     C470.675,196.267,453.65,212.018,433.013,212.018z M491.506,151.053c0,2.542-2.069,4.611-4.611,4.611H337.804V135.17h149.091     c2.542,0,4.611,2.069,4.611,4.611V151.053z"/>
			<path d="M52.264,260.86c2.622,0,5.245-1.001,7.246-3.001c4.001-4.001,4.001-10.49,0-14.491     c-25.16-25.159-39.016-58.611-39.016-94.193S34.349,80.14,59.509,54.981c4.001-4.001,4.002-10.49,0-14.491     c-4.001-4.002-10.49-4.001-14.491,0C15.988,69.521,0,108.118,0,149.174c0,41.056,15.988,79.654,45.019,108.684     C47.02,259.86,49.642,260.86,52.264,260.86z"/>
			<path d="M61.481,149.174c0-24.633,9.593-47.792,27.012-65.211c4.001-4.001,4.001-10.49,0-14.492     c-4.001-4.001-10.49-4.001-14.492,0c-21.289,21.291-33.013,49.596-33.013,79.703c0,30.107,11.724,58.413,33.014,79.702     c2.001,2.001,4.623,3.001,7.246,3.001c2.622,0,5.245-1.001,7.246-3.001c4.001-4.001,4.001-10.49,0-14.491     C71.074,196.967,61.481,173.808,61.481,149.174z"/>
			<path d="M117.475,185.402c-9.676-9.676-15.006-22.543-15.006-36.228s5.329-26.552,15.006-36.228     c4.001-4.001,4.002-10.49,0-14.491c-4.001-4.002-10.49-4.001-14.491,0c-13.548,13.547-21.009,31.559-21.009,50.719     c0,19.159,7.461,37.171,21.009,50.72c2.001,2.001,4.623,3.001,7.246,3.001c2.622,0,5.245-1.001,7.246-3.001     C121.476,195.892,121.476,189.403,117.475,185.402z"/>
		</g>
	</g>
</g>
<g>
</g>
<g>
</g>
<g>
</g>
<g>
</g>
<g>
</g>
<g>
</g>
<g>
</g>
<g>
</g>
<g>
</g>
<g>
</g>
<g>
</g>
<g>
</g>
<g>
</g>
<g>
</g>
<g>
</g>
</svg>
