<?xml version="1.0" encoding="iso-8859-1"?>
<!-- Generator: Adobe Illustrator 19.0.0, SVG Export Plug-In . SVG Version: 6.00 Build 0)  -->
<svg xmlns="http://www.w3.org/2000/svg" xmlns:xlink="http://www.w3.org/1999/xlink" version="1.1" id="Layer_1" x="0px" y="0px" viewBox="0 0 512 512" style="enable-background:new 0 0 512 512;" xml:space="preserve">
<g>
	<g>
		<g>
			<path d="M501.146,194.854H214.719c-2.542-7.641-8.417-13.616-13.379-18.652c-3.079-3.124-6.569-6.666-7.575-9.095     c-1.122-2.707-1.188-7.667-1.25-12.463c-0.118-9.135-0.267-20.505-8.142-28.38c-7.876-7.876-19.246-8.025-28.382-8.144     c-4.796-0.063-9.755-0.127-12.461-1.249c-2.428-1.007-5.97-4.497-9.094-7.575c-6.629-6.534-14.88-14.665-26.433-14.665     c-11.551,0-19.802,8.131-26.432,14.664c-3.124,3.079-6.665,6.569-9.093,7.575c-2.707,1.122-7.667,1.188-12.463,1.249     c-9.135,0.119-20.506,0.268-28.38,8.143c-7.876,7.876-8.025,19.246-8.144,28.381c-0.063,4.797-0.127,9.756-1.249,12.462     c-1.007,2.428-4.497,5.969-7.575,9.093C8.131,182.83,0,191.081,0,202.633c0,11.552,8.131,19.803,14.665,26.433     c3.078,3.124,6.568,6.666,7.575,9.093c1.122,2.707,1.188,7.666,1.249,12.463c0.119,9.135,0.268,20.506,8.143,28.38     c7.876,7.875,19.245,8.025,28.38,8.143c0.509,0.007,1.019,0.014,1.528,0.022v119.35c0,5.994,4.861,10.854,10.854,10.854h428.75     c5.994,0,10.854-4.861,10.854-10.854V205.709C512,199.714,507.141,194.854,501.146,194.854z M60.297,265.438     c-4.651-0.062-11.679-0.154-13.314-1.789c-1.635-1.634-1.726-8.662-1.787-13.314c-0.085-6.53-0.181-13.931-2.904-20.495     c-2.628-6.337-7.478-11.257-12.167-16.015c-3.552-3.605-8.418-8.542-8.418-11.194c0-2.652,4.865-7.588,8.419-11.194     c4.688-4.759,9.537-9.678,12.166-16.016c2.722-6.565,2.819-13.964,2.904-20.494c0.062-4.651,0.154-11.68,1.788-13.315     c1.634-1.635,8.662-1.726,13.314-1.787c6.53-0.085,13.931-0.181,20.495-2.904c6.337-2.629,11.257-7.478,16.016-12.167     c3.604-3.552,8.541-8.418,11.193-8.418s7.589,4.865,11.194,8.418c4.758,4.689,9.678,9.539,16.016,12.167     c6.564,2.722,13.964,2.819,20.493,2.904c4.651,0.062,11.682,0.154,13.316,1.788c1.634,1.634,1.726,8.661,1.787,13.313     c0.086,6.53,0.182,13.932,2.905,20.495c2.628,6.338,7.478,11.258,12.167,16.017c3.552,3.605,8.417,8.541,8.417,11.193     c0,2.652-4.865,7.589-8.418,11.194c-4.689,4.759-9.538,9.679-12.166,16.016c-2.722,6.565-2.819,13.965-2.905,20.495     c-0.061,4.651-0.153,11.68-1.787,13.315c-1.634,1.634-8.662,1.726-13.314,1.787c-6.53,0.086-13.931,0.182-20.494,2.905     c-6.338,2.628-11.258,7.477-16.017,12.166c-3.604,3.552-8.541,8.418-11.194,8.418s-7.588-4.865-11.194-8.418     c-4.759-4.689-9.679-9.538-16.016-12.166C74.228,265.621,66.827,265.524,60.297,265.438z M192.124,259.981h28.977v92.263h-94.434     v-49.142c2.842-2.289,5.408-4.809,7.764-7.131c3.124-3.078,6.666-6.568,9.095-7.575c2.707-1.122,7.667-1.189,12.462-1.25     c9.136-0.118,20.506-0.268,28.38-8.143C189.701,273.669,191.487,266.738,192.124,259.981z M490.291,395.661H83.25v-98.045     c5.714,5.566,12.637,11.654,21.709,12.804v52.677c0,5.994,4.861,10.854,10.854,10.854h116.142     c5.994,0,10.854-4.861,10.854-10.854V249.125c0-5.994-4.861-10.854-10.854-10.854h-38.23c0.014-0.036,0.024-0.079,0.038-0.114     c1.007-2.428,4.497-5.97,7.575-9.094c3.546-3.597,7.552-7.68,10.484-12.501h278.468V395.661z"/>
			<path d="M319.514,259.981h138.214c5.994,0,10.854-4.861,10.854-10.854s-4.861-10.854-10.854-10.854H319.514     c-5.994,0-10.854,4.861-10.854,10.854S313.52,259.981,319.514,259.981z"/>
			<path d="M457.728,298.876c-5.994,0-10.854,4.861-10.854,10.854v53.368c0,5.994,4.861,10.854,10.854,10.854     c5.994,0,10.854-4.861,10.854-10.854V309.73C468.582,303.735,463.723,298.876,457.728,298.876z"/>
			<path d="M411.657,298.876c-5.994,0-10.854,4.861-10.854,10.854v53.368c0,5.994,4.861,10.854,10.854,10.854     s10.854-4.861,10.854-10.854V309.73C422.512,303.735,417.651,298.876,411.657,298.876z"/>
			<path d="M365.587,298.876c-5.994,0-10.854,4.861-10.854,10.854v53.368c0,5.994,4.861,10.854,10.854,10.854     c5.994,0,10.854-4.861,10.854-10.854V309.73C376.441,303.735,371.581,298.876,365.587,298.876z"/>
			<path d="M319.514,373.952c5.994,0,10.854-4.861,10.854-10.854V309.73c0-5.994-4.861-10.854-10.854-10.854     c-5.994,0-10.854,4.861-10.854,10.854v53.368C308.66,369.092,313.52,373.952,319.514,373.952z"/>
			<path d="M278.63,259.981h2.171c5.994,0,10.854-4.861,10.854-10.854s-4.861-10.854-10.854-10.854h-2.171     c-5.994,0-10.854,4.861-10.854,10.854S272.636,259.981,278.63,259.981z"/>
			<path d="M141.032,170.363c-4.24-4.238-11.111-4.238-15.351,0l-52.381,52.381c-4.239,4.239-4.239,11.112,0,15.351     c2.12,2.119,4.898,3.179,7.675,3.179s5.556-1.06,7.676-3.179l52.381-52.381C145.27,181.476,145.27,174.603,141.032,170.363z"/>
			<path d="M78.356,187.322c5.994,0,10.854-4.861,10.854-10.854v-1.049c0-5.994-4.861-10.854-10.854-10.854     s-10.854,4.861-10.854,10.854v1.049C67.502,182.463,72.361,187.322,78.356,187.322z"/>
			<path d="M135.713,221.923c-5.994,0-10.854,4.861-10.854,10.854v1.047c0,5.994,4.861,10.854,10.854,10.854     s10.854-4.861,10.854-10.854v-1.047C146.567,226.784,141.708,221.923,135.713,221.923z"/>
		</g>
	</g>
</g>
<g>
</g>
<g>
</g>
<g>
</g>
<g>
</g>
<g>
</g>
<g>
</g>
<g>
</g>
<g>
</g>
<g>
</g>
<g>
</g>
<g>
</g>
<g>
</g>
<g>
</g>
<g>
</g>
<g>
</g>
</svg>
