<?xml version="1.0" encoding="iso-8859-1"?>
<!-- Generator: Adobe Illustrator 19.0.0, SVG Export Plug-In . SVG Version: 6.00 Build 0)  -->
<svg xmlns="http://www.w3.org/2000/svg" xmlns:xlink="http://www.w3.org/1999/xlink" version="1.1" id="Layer_1" x="0px" y="0px" viewBox="0 0 512 512" style="enable-background:new 0 0 512 512;" xml:space="preserve">
<g>
	<g>
		<g>
			<path d="M189.26,100.751l-1.072,0.996c-4.39,4.068-4.65,10.924-0.581,15.314c2.136,2.304,5.038,3.47,7.949,3.47     c2.636,0,5.279-0.956,7.364-2.889l1.096-1.016c4.383-4.075,4.632-10.931,0.559-15.315     C200.499,96.927,193.642,96.678,189.26,100.751z"/>
			<path d="M156.509,131.986c-19.042,18.656-37.845,37.972-55.883,57.411c-4.071,4.386-3.815,11.242,0.572,15.314     c2.086,1.936,4.73,2.893,7.369,2.893c2.909,0,5.81-1.165,7.945-3.465c17.806-19.188,36.366-38.255,55.163-56.671     c4.275-4.188,4.345-11.049,0.158-15.324C167.645,127.87,160.784,127.797,156.509,131.986z"/>
			<path d="M507.136,34.439l-13.205-20.475c-4.405-6.869-11.303-11.589-19.424-13.295c-8.429-1.771-17.45,0.009-24.758,4.868     c-4.027,2.674-8.039,5.366-12.036,8.076c-3.119,2.113-5.794,4.675-7.97,7.572l-1.791-2.567     c-4.611-6.645-11.638-11.077-19.789-12.48c-8.606-1.487-17.721,0.669-25.004,5.902c-10.328,7.418-20.721,15.071-30.89,22.746     c-3.085,2.329-5.721,5.154-7.816,8.307l-8.639-11.128c-4.888-6.329-12.082-10.357-20.257-11.338     c-8.844-1.066-18.038,1.633-25.245,7.39c-14.874,11.874-29.77,24.196-44.274,36.62c-3.09,2.645-5.665,5.784-7.633,9.227     l-16.547-18.794c-5.193-5.928-12.55-9.453-20.719-9.927c-9.102-0.533-18.38,2.851-25.468,9.266     c-42.238,38.221-83.035,79.018-121.254,121.255c-6.417,7.088-9.795,16.369-9.268,25.466c0.474,8.169,3.999,15.529,9.906,20.703     l18.816,16.566c-3.443,1.967-6.582,4.541-9.227,7.631c-12.393,14.467-24.714,29.364-36.621,44.278     c-5.759,7.208-8.453,16.412-7.391,25.249c0.982,8.175,5.007,15.368,11.313,20.239l11.149,8.655     c-3.152,2.095-5.977,4.731-8.306,7.816c-7.67,10.162-15.323,20.555-22.745,30.89c-5.234,7.285-7.386,16.399-5.904,25.005     c1.404,8.15,5.836,15.177,12.456,19.772l2.589,1.806c-2.898,2.175-5.459,4.85-7.571,7.969c-2.71,3.997-5.401,8.01-8.074,12.032     c-4.862,7.313-6.637,16.339-4.87,24.763c1.704,8.121,6.426,15.018,13.27,19.407l20.523,13.236     c5.121,3.283,10.892,4.85,16.634,4.85c10.304,0,20.507-5.047,26.645-14.279c6.284-9.459,12.765-18.975,19.26-28.284     c0.001-0.001,0.002-0.002,0.003-0.004c14.532-20.827,29.797-41.56,45.372-61.619c18.885-24.324,38.775-48.373,59.12-71.479     c41.887-47.576,87.253-92.942,134.839-134.839c23.106-20.344,47.155-40.234,71.479-59.12     c20.047-15.564,40.779-30.83,61.62-45.372c0.004-0.003,0.009-0.007,0.013-0.01c9.279-6.475,18.791-12.951,28.274-19.253     c0.001,0,0.001-0.001,0.002-0.001C512.1,68.185,516.328,48.77,507.136,34.439z M59.693,485.726     c-3.048,4.584-9.116,6.013-13.507,3.196l-20.521-13.235c-1.939-1.242-3.282-3.243-3.783-5.632     c-0.592-2.816,0.015-5.767,1.708-8.313c2.638-3.969,5.292-7.928,7.966-11.872c1.71-2.523,4.206-4.198,7.026-4.717     c0.576-0.107,1.151-0.158,1.716-0.158c1.792,0,3.507,0.526,4.959,1.545l27.807,19.402     C68.551,472.507,64.074,479.131,59.693,485.726z M85.466,448.169l-54.491-38.023c-2.349-1.63-3.187-3.978-3.477-5.661     c-0.503-2.919,0.28-6.084,2.148-8.683c7.324-10.198,14.876-20.452,22.443-30.479c1.919-2.544,4.7-4.223,7.625-4.609     c0.424-0.056,0.843-0.083,1.258-0.083c1.927,0,3.735,0.598,5.203,1.739l52.471,40.736     C107.338,417.89,96.225,432.982,85.466,448.169z M131.935,385.989l-86.721-67.326c-2.169-1.676-2.865-4.018-3.064-5.688     c-0.373-3.109,0.649-6.439,2.809-9.141c11.755-14.722,23.915-29.424,36.146-43.702c2.24-2.617,5.311-4.242,8.424-4.458     c0.221-0.015,0.455-0.024,0.7-0.024c1.613,0,3.685,0.394,5.491,1.993l82.379,72.53     C162.315,348.363,146.842,367.071,131.935,385.989z M192.42,313.906L69.354,205.553c-1.953-1.71-2.476-4.029-2.571-5.672     c-0.193-3.334,1.155-6.859,3.701-9.67c37.739-41.706,78.022-81.989,119.728-119.729c2.634-2.383,5.894-3.717,9.037-3.717     c0.211,0,0.424,0.005,0.634,0.018c1.644,0.095,3.961,0.618,5.689,2.592l108.334,123.045     C271.284,230.495,230.487,271.29,192.42,313.906z M330.172,178.099l-72.551-82.403c-1.822-2.057-2.065-4.49-1.949-6.168     c0.216-3.113,1.84-6.183,4.459-8.425c14.319-12.263,29.022-24.425,43.704-36.147c2.334-1.865,5.14-2.882,7.865-2.882     c0.426,0,0.851,0.025,1.271,0.075c1.67,0.202,4.013,0.896,5.707,3.09l67.309,86.697     C367.069,146.844,348.362,162.316,330.172,178.099z M403.107,118.646l-40.745-52.481c-1.766-2.263-1.871-4.757-1.648-6.451     c0.385-2.926,2.065-5.706,4.611-7.625c10.033-7.572,20.287-15.123,30.479-22.444c2.083-1.496,4.527-2.295,6.919-2.295     c0.594,0,1.183,0.049,1.763,0.15c1.684,0.289,4.032,1.128,5.677,3.5l38.007,54.466     C432.976,96.23,417.883,107.343,403.107,118.646z M485.727,59.692c-6.61,4.392-13.234,8.869-19.786,13.371l-19.423-27.835     c-1.321-1.888-1.806-4.248-1.366-6.645c0.519-2.822,2.193-5.317,4.718-7.028c3.943-2.671,7.898-5.327,11.874-7.967     c1.908-1.27,4.046-1.928,6.184-1.928c0.712,0,1.423,0.073,2.126,0.22c2.388,0.502,4.389,1.845,5.647,3.808l13.207,20.476     C491.737,50.575,490.311,56.643,485.727,59.692z"/>
		</g>
	</g>
</g>
<g>
</g>
<g>
</g>
<g>
</g>
<g>
</g>
<g>
</g>
<g>
</g>
<g>
</g>
<g>
</g>
<g>
</g>
<g>
</g>
<g>
</g>
<g>
</g>
<g>
</g>
<g>
</g>
<g>
</g>
</svg>
