<?xml version="1.0" encoding="iso-8859-1"?>
<!-- Generator: Adobe Illustrator 19.0.0, SVG Export Plug-In . SVG Version: 6.00 Build 0)  -->
<svg xmlns="http://www.w3.org/2000/svg" xmlns:xlink="http://www.w3.org/1999/xlink" version="1.1" id="Layer_1" x="0px" y="0px" viewBox="0 0 511.999 511.999" style="enable-background:new 0 0 511.999 511.999;" xml:space="preserve">
<g>
	<g>
		<g>
			<path d="M328.6,305.552v-39.587c0-1.733-0.395-3.442-1.156-5.001L247.731,97.786c-1.911-3.911-5.883-6.391-10.235-6.391h-80.903     c-6.29,0-11.391,5.101-11.391,11.391v142.391v48.983h-34.743c-6.29,0-11.391,5.101-11.391,11.391s5.101,11.391,11.391,11.391     H317.21C323.499,316.943,328.6,311.842,328.6,305.552z M219.244,294.16h-51.261v-37.591h51.261V294.16z M305.818,294.16h-63.791     v-48.983c0-6.29-5.101-11.391-11.391-11.391h-62.652V114.178h62.399l75.435,154.42V294.16z"/>
			<path d="M500.609,392.125h-75.183v-85.435c0-6.29-5.101-11.391-11.391-11.391h-39.87V57.221c0-6.29-5.101-11.391-11.391-11.391     s-11.391,5.101-11.391,11.391v148.937l-75.2-153.937c-1.911-3.911-5.882-6.391-10.235-6.391H111.026     c-6.29,0-11.391,5.101-11.391,11.391v186.817H15.948c-6.29,0-11.391,5.101-11.391,11.391v145.327     C1.639,406.76,0,413.493,0,420.604c0,25.125,20.441,45.565,45.565,45.565s45.565-20.44,45.565-45.565     c0-1.93-0.134-3.827-0.369-5.696h170.016c5.374,29.124,30.94,51.261,61.595,51.261s56.221-22.137,61.595-51.261h116.64     c6.29,0,11.391-5.101,11.391-11.391S506.899,392.125,500.609,392.125z M45.565,443.386c-12.562,0-22.783-10.22-22.783-22.783     c0-12.562,10.22-22.783,22.783-22.783s22.783,10.22,22.783,22.783C68.348,433.166,58.128,443.386,45.565,443.386z      M260.779,392.125H81.097c-8.358-10.407-21.176-17.087-35.532-17.087c-6.478,0-12.641,1.368-18.226,3.816V266.821h83.687     c6.29,0,11.391-5.101,11.391-11.391V68.613h136.418l92.547,189.451v89.948c-8.68-4.555-18.545-7.147-29.009-7.147     C291.719,340.865,266.153,363.001,260.779,392.125z M322.374,443.386c-21.984,0-39.87-17.885-39.87-39.87     s17.885-39.87,39.87-39.87s39.87,17.885,39.87,39.87S344.358,443.386,322.374,443.386z M402.644,392.125h-18.675     c-1.605-8.696-4.998-16.773-9.803-23.819v-50.224h28.478V392.125z"/>
			<path d="M70.587,294.16h-1.139c-6.29,0-11.391,5.101-11.391,11.391s5.101,11.391,11.391,11.391h1.139     c6.29,0,11.391-5.101,11.391-11.391S76.878,294.16,70.587,294.16z"/>
		</g>
	</g>
</g>
<g>
</g>
<g>
</g>
<g>
</g>
<g>
</g>
<g>
</g>
<g>
</g>
<g>
</g>
<g>
</g>
<g>
</g>
<g>
</g>
<g>
</g>
<g>
</g>
<g>
</g>
<g>
</g>
<g>
</g>
</svg>
