<?xml version="1.0" encoding="iso-8859-1"?>
<!-- Generator: Adobe Illustrator 19.0.0, SVG Export Plug-In . SVG Version: 6.00 Build 0)  -->
<svg xmlns="http://www.w3.org/2000/svg" xmlns:xlink="http://www.w3.org/1999/xlink" version="1.1" id="Layer_1" x="0px" y="0px" viewBox="0 0 512 512" style="enable-background:new 0 0 512 512;" xml:space="preserve">
<g>
	<g>
		<g>
			<path d="M102.069,184.721l-52.402,70.595c-0.345,0.466-0.668,0.947-1.04,1.514c-2.186,3.333-2.367,7.596-0.473,11.102     c1.894,3.507,5.559,5.693,9.545,5.693h96.335c5.991,0.001,10.847-4.856,10.847-10.846v-71.593c0-5.99-4.856-10.847-10.847-10.847     H110.78C107.346,180.339,104.116,181.964,102.069,184.721z M116.237,202.034h26.949v49.898H79.198L116.237,202.034z"/>
			<path d="M104.136,366.915c-5.981,0-10.847,4.866-10.847,10.847c0,5.981,4.866,10.847,10.847,10.847     c5.981,0,10.847-4.866,10.847-10.847C114.983,371.781,110.117,366.915,104.136,366.915z"/>
			<path d="M501.153,74.034H197.424c-5.991,0-10.847,4.857-10.847,10.847v52.068h-76.853c-16.425,0-32.076,7.874-41.867,21.064     l-53.029,71.441C5.265,242.337,0,258.267,0,274.309v103.453c0,5.99,4.856,10.847,10.847,10.847H44.93     c5.124,28.034,29.713,49.356,59.205,49.356c29.492,0,54.081-21.322,59.205-49.356h149.883     c5.124,28.034,29.713,49.356,59.205,49.356c29.492,0,54.081-21.322,59.205-49.356h69.518c5.991,0,10.847-4.857,10.847-10.847     V84.881C512,78.891,507.144,74.034,501.153,74.034z M104.136,416.271c-21.234,0-38.508-17.275-38.508-38.508     c0-21.234,17.275-38.508,38.508-38.508c21.234,0,38.508,17.275,38.508,38.508C142.644,398.997,125.37,416.271,104.136,416.271z      M186.576,366.915h-23.235c-5.124-28.034-29.713-49.356-59.205-49.356c-29.492,0-54.081,21.322-59.205,49.356H21.695v-92.606     c0-11.418,3.748-22.757,10.554-31.925l53.029-71.441c5.717-7.702,14.854-12.299,24.446-12.299h76.853V366.915z M251.661,95.729     h21.695v91.119c0,5.99,4.856,10.847,10.847,10.847c5.991,0,10.847-4.857,10.847-10.847V95.729h21.695v227.797h-21.695v-33.627     c0-5.99-4.856-10.847-10.847-10.847c-5.991,0-10.847,4.857-10.847,10.847v33.627h-21.695V95.729z M208.271,95.729h21.695v227.797     h-21.695V95.729z M313.224,366.915H208.271V345.22h113.548C317.633,351.708,314.662,359.045,313.224,366.915z M381.831,95.729     h21.695v227.797h-4.979c-5.201-2.514-10.818-4.299-16.716-5.227V95.729z M338.441,95.729h21.695v223.096     c-4.844,1.01-9.479,2.599-13.823,4.7h-7.872V95.729z M372.429,416.271c-21.234,0-38.508-17.275-38.508-38.508     c0-21.234,17.275-38.508,38.508-38.508c21.234,0,38.508,17.275,38.508,38.508C410.938,398.997,393.663,416.271,372.429,416.271z      M425.22,95.729h21.695v227.797H425.22V95.729z M490.305,366.915h-58.67c-1.438-7.87-4.409-15.207-8.596-21.695h67.265V366.915z      M490.305,323.525H468.61V95.729h21.695V323.525z"/>
			<path d="M372.429,366.915c-5.981,0-10.847,4.866-10.847,10.847c0,5.981,4.866,10.847,10.847,10.847     c5.981,0,10.847-4.866,10.847-10.847C383.276,371.781,378.41,366.915,372.429,366.915z"/>
			<path d="M284.203,249.763c5.991,0,10.847-4.857,10.847-10.847v-1.085c0-5.99-4.856-10.847-10.847-10.847     c-5.991,0-10.847,4.857-10.847,10.847v1.085C273.356,244.905,278.212,249.763,284.203,249.763z"/>
		</g>
	</g>
</g>
<g>
</g>
<g>
</g>
<g>
</g>
<g>
</g>
<g>
</g>
<g>
</g>
<g>
</g>
<g>
</g>
<g>
</g>
<g>
</g>
<g>
</g>
<g>
</g>
<g>
</g>
<g>
</g>
<g>
</g>
</svg>
