<?xml version="1.0" encoding="iso-8859-1"?>
<!-- Generator: Adobe Illustrator 19.0.0, SVG Export Plug-In . SVG Version: 6.00 Build 0)  -->
<svg xmlns="http://www.w3.org/2000/svg" xmlns:xlink="http://www.w3.org/1999/xlink" version="1.1" id="Layer_1" x="0px" y="0px" viewBox="0 0 512 512" style="enable-background:new 0 0 512 512;" xml:space="preserve">
<g>
	<g>
		<g>
			<path d="M473.947,135.114c-25.237-30.571-58.518-49.658-93.69-53.741c-82.452-9.728-166.063-9.728-248.492-0.002     c-35.194,4.085-68.474,23.171-93.711,53.744C13.863,164.418-0.007,201.461,0,236.742v88.314     c-0.018,35.843,14.081,66.915,39.697,87.494c20.735,16.657,47.656,25.373,76.83,25.373c11.04,0,22.405-1.249,33.878-3.787     c80.602-18.182,162.491-26.988,243.383-26.168c34.282,0.341,64.992-11.217,86.524-32.536     C501.041,354.904,512,327.125,512,295.099c0,0,0-54.17,0-58.355C512.007,201.461,498.137,164.418,473.947,135.114z      M464.815,359.783c-17.322,17.153-42.495,26.461-70.809,26.164c-82.6-0.826-166.185,8.149-248.404,26.698     c-35.189,7.787-68.764,1.494-92.114-17.264c-17.793-14.294-28.33-34.387-30.862-58.578c4.937,6.397,10.641,12.224,17.07,17.389     c20.735,16.657,47.656,25.373,76.83,25.373c11.04,0,22.405-1.247,33.877-3.787c80.602-18.183,162.488-26.988,243.38-26.168     c0,0,0.001,0,0.002,0c34.258,0.337,64.992-11.217,86.524-32.536c3.249-3.217,6.257-6.612,9.021-10.174     C487.073,327.886,478.728,346.008,464.815,359.783z M464.815,301.427c-17.322,17.153-42.461,26.465-70.811,26.164     c-82.599-0.825-166.184,8.149-248.403,26.698c-35.188,7.786-68.763,1.494-92.114-17.263     c-20.599-16.55-31.48-40.864-31.465-70.321V236.74c-0.013-64.17,52.455-126.55,112.303-133.497     c40.369-4.763,81.015-7.144,121.671-7.144s81.322,2.383,121.702,7.146c59.826,6.945,112.294,69.325,112.281,133.497     C489.979,262.76,481.277,285.127,464.815,301.427z"/>
			<path d="M430.079,152.016c-15.623-14.261-37.409-17.792-56.856-9.213c-19.67,8.678-31.889,27.384-31.889,48.818v60.74     c0,29.104,23.682,52.973,52.736,53.207l1.198,0.007c33.532,0,72.69-18.03,72.69-68.839     C467.964,205.34,453.804,173.669,430.079,152.016z M395.325,283.553l-1.022-0.006c-17.064-0.136-30.948-14.127-30.948-31.186     v-60.74c0-15.037,9.689-24.671,18.757-28.671c4.207-1.856,8.529-2.768,12.771-2.768c7.369,0,14.497,2.755,20.351,8.097     c19.229,17.551,30.707,43.14,30.701,68.453C445.936,278.991,410.502,283.553,395.325,283.553z"/>
			<path d="M265.312,119.51c-10.12,0.149-20.641,0.36-31.268,0.625c-3.692,0.093-7.092,2.03-9.054,5.16l-27.608,44.043     c-3.831-9.024-8.421-21.839-12.41-38.548c-1.233-5.167-5.974-8.728-11.285-8.44c-15.937,0.832-28.34,1.765-36.844,2.769     c-23.522,2.73-47.237,16.688-65.061,38.295c-17.633,21.375-27.743,48.103-27.737,73.327v29.979     c-0.01,21.076,6.702,38,19.951,50.3c12.866,11.947,31.494,18.526,52.45,18.524c7.888,0,16.067-0.922,24.359-2.752     c43.096-9.718,87.092-16.938,130.765-21.459c27.219-2.818,47.744-25.501,47.744-52.762v-85.859c0-14.36-5.632-27.82-15.86-37.898     C293.222,124.736,279.665,119.314,265.312,119.51z M297.29,258.572c0,15.94-12.034,29.206-27.99,30.858     c-44.537,4.611-89.4,11.973-133.291,21.87c-6.687,1.474-13.27,2.223-19.567,2.223c-15.38,0.001-28.684-4.488-37.464-12.64     c-8.576-7.962-12.92-19.453-12.913-34.158V236.74h0c-0.004-20.198,8.271-41.816,22.704-59.311     c14.24-17.26,32.688-28.354,50.634-30.437c6.412-0.756,15.276-1.475,26.426-2.145c9.361,34.569,20.827,52.144,21.349,52.932     c2.066,3.12,5.567,4.96,9.317,4.932c3.743-0.046,7.204-1.991,9.193-5.162l34.816-55.542c8.537-0.198,16.966-0.359,25.132-0.479     c8.419-0.113,16.363,3.063,22.36,8.973c5.994,5.907,9.295,13.795,9.295,22.212V258.572z"/>
			<path d="M151.381,262.972c-8.326,1.689-16.733,3.488-24.926,5.335c-3.552,0.778-6.921,1.174-10.016,1.174     c-6.081,0.001-11.011,4.932-11.01,11.012c0.001,6.082,4.932,11.012,11.012,11.011c4.676,0,9.632-0.568,14.792-1.699     c8.102-1.826,16.353-3.592,24.525-5.25c5.96-1.209,9.812-7.019,8.603-12.979C163.153,265.616,157.348,261.764,151.381,262.972z"/>
			<path d="M190.791,255.657l-1.113,0.221c-5.965,1.188-9.837,6.985-8.649,12.95c1.042,5.238,5.641,8.861,10.786,8.861     c0.712,0,1.437-0.069,2.163-0.214l1.089-0.217c5.964-1.18,9.844-6.973,8.663-12.939     C202.549,258.355,196.753,254.473,190.791,255.657z"/>
		</g>
	</g>
</g>
<g>
</g>
<g>
</g>
<g>
</g>
<g>
</g>
<g>
</g>
<g>
</g>
<g>
</g>
<g>
</g>
<g>
</g>
<g>
</g>
<g>
</g>
<g>
</g>
<g>
</g>
<g>
</g>
<g>
</g>
</svg>
