<?xml version="1.0" encoding="iso-8859-1"?>
<!-- Generator: Adobe Illustrator 19.0.0, SVG Export Plug-In . SVG Version: 6.00 Build 0)  -->
<svg xmlns="http://www.w3.org/2000/svg" xmlns:xlink="http://www.w3.org/1999/xlink" version="1.1" id="Layer_1" x="0px" y="0px" viewBox="0 0 512.001 512.001" style="enable-background:new 0 0 512.001 512.001;" xml:space="preserve">
<g>
	<g>
		<g>
			<path d="M375.466,31.452L348.193,3.15C346.252,1.137,343.579,0,340.782,0H211.625c-5.684,0-10.291,4.607-10.291,10.291v5.146     h-30.874c-5.684,0-10.291,4.607-10.291,10.291v41.166c0,5.684,4.607,10.291,10.291,10.291h30.874v5.146     c0,5.684,4.607,10.291,10.291,10.291h42.048l-15.047,15.047c-4.019,4.019-4.019,10.535,0,14.555     c2.01,2.01,4.643,3.014,7.277,3.014s5.268-1.004,7.277-3.014l15.047-15.047v16.677c-4.396,1.171-7.639,5.168-7.639,9.933v41.166     c0,4.499,2.892,8.314,6.915,9.713c-3.402,13.515-3.968,27.781-1.593,41.946c2.79,16.61-5.428,33.325-20.447,41.59     c-8.21,4.516-16.164,8.605-23.855,12.56c-23.003,11.826-42.87,22.04-58.318,37.697c-17.343,17.579-26.553,39.741-28.983,69.747     c0,0.001,0,0.003,0,0.004s0,0.003,0,0.005c0,0.001,0,0.001,0,0.002v0.001c-0.432,5.3-0.651,10.997-0.651,16.936v73.635     c0,18.313,14.898,33.211,33.211,33.211h162.543c16.055,0,29.796-11.469,32.674-27.273c4.049-22.271,9.371-56.835,11.743-95.023     c0-0.003,0.001-0.006,0.001-0.009c0.905-14.411,1.32-28.553,1.236-42.03c1.883-68.279-9.496-138.877-14.658-165.356     c1.908-1.868,3.096-4.47,3.096-7.351v-41.166c0-5.276-3.973-9.618-9.088-10.215l23.533-82.146     C378.96,37.897,378.014,34.096,375.466,31.452z M201.333,56.603H180.75V36.02h20.583V56.603z M231.02,299.069     c7.817-4.019,15.901-8.176,24.366-12.831c22.672-12.477,35.06-37.808,30.824-63.03c-2.166-12.922-1.294-25.913,2.509-37.961     h17.261c0.132,28.671-2.23,115.195-32.296,193.51H156.151C163.406,333.828,190.899,319.696,231.02,299.069z M281.171,164.663     V144.08h59.611h2.138v20.583h-61.396H281.171z M341.834,481.041c-1.095,6.012-6.321,10.376-12.424,10.376H166.867     c-6.963,0-12.628-5.664-12.628-12.628c0,0,0.027-77.549,0.079-79.45h110.698c-5.053,10.966-10.713,21.646-17.078,31.835     c-3.011,4.822-1.544,11.17,3.277,14.181c1.696,1.059,3.58,1.564,5.443,1.564c3.431,0,6.786-1.716,8.738-4.841     c8.517-13.636,15.825-28.046,22.112-42.738h65.012C349.961,432.158,345.392,461.465,341.834,481.041z M354.484,347.266     c-0.003,0.118-0.005,0.237-0.004,0.355c0.066,10.044-0.156,20.481-0.663,31.136h-58.208     c14.398-39.851,21.95-80.152,25.897-111.58c4.617-36.751,5.182-66.734,5.082-81.93h13.446     C344.813,209.225,356.383,279.256,354.484,347.266z M333.026,123.497H288.81V82.332c0-5.684-4.608-10.291-10.291-10.291h-56.603     V20.583h114.491l20.12,20.879L333.026,123.497z"/>
			<path d="M242.652,456.182c-4.423-3.57-10.903-2.877-14.472,1.545l-0.357,0.44c-3.585,4.41-2.9,10.872,1.511,14.457     c1.903,1.547,4.194,2.298,6.473,2.298c3.002,0,5.982-1.305,8.02-3.812l0.37-0.457     C247.767,466.232,247.076,459.752,242.652,456.182z"/>
		</g>
	</g>
</g>
<g>
</g>
<g>
</g>
<g>
</g>
<g>
</g>
<g>
</g>
<g>
</g>
<g>
</g>
<g>
</g>
<g>
</g>
<g>
</g>
<g>
</g>
<g>
</g>
<g>
</g>
<g>
</g>
<g>
</g>
</svg>
