<?xml version="1.0" encoding="iso-8859-1"?>
<!-- Generator: Adobe Illustrator 19.0.0, SVG Export Plug-In . SVG Version: 6.00 Build 0)  -->
<svg xmlns="http://www.w3.org/2000/svg" xmlns:xlink="http://www.w3.org/1999/xlink" version="1.1" id="Layer_1" x="0px" y="0px" viewBox="0 0 512 512" style="enable-background:new 0 0 512 512;" xml:space="preserve">
<g>
	<g>
		<g>
			<path d="M511.979,138.312c-0.002-1.604-0.347-3.212-1.078-4.698c-17.525-35.552-35.05-71.104-52.575-106.666     c-1.796-3.644-5.505-5.952-9.568-5.952H63.243c-4.063,0-7.772,2.307-9.568,5.952C36.149,62.511,18.624,98.063,1.098,133.615     c-0.733,1.486-1.076,3.094-1.078,4.7L0,138.334v27.46c0,18.61,13.988,34.004,32,36.247v150.885     C16.581,367.52,6.933,388.15,6.933,411.003c0,44.112,35.888,80,80,80c23.638,0,44.907-10.313,59.565-26.667h296.095     c20.626,0,37.407-16.781,37.407-37.408V202.042c18.012-2.243,32-17.637,32-36.247v-27.46L511.979,138.312z M442.122,42.331     c14.021,28.449,28.041,56.892,42.061,85.333h-36.754l-31.539-85.333H442.122z M429.333,165.795     c0,8.385-6.822,15.206-15.206,15.206h-9.587c-8.384,0-15.206-6.821-15.206-15.206v-16.794h40L429.333,165.795L429.333,165.795z      M393.147,42.331l31.537,85.333h-37.661c0,0-17.479-70.938-21.026-85.333H393.147z M368,149.001v16.794     c0,8.385-6.822,15.206-15.206,15.206h-9.587c-8.384,0-15.206-6.821-15.206-15.206v-16.794H368z M344.025,42.331     c3.966,16.099,21.026,85.333,21.026,85.333h-38.286l-10.512-85.333H344.025z M294.758,42.331l10.512,85.333h-38.605V42.331     H294.758z M306.667,149.001v16.794c0,8.385-6.822,15.206-15.206,15.206h-9.587c-8.384,0-15.206-6.821-15.206-15.206v-16.794     H306.667z M217.241,42.331h28.092v85.333h-38.605L217.241,42.331z M205.333,149.001h40v16.794     c0,8.385-6.822,15.206-15.206,15.206h-9.587c-8.384,0-15.206-6.821-15.206-15.206V149.001z M167.974,42.331h27.772     l-10.513,85.333h-38.286C146.947,127.665,163.554,60.278,167.974,42.331z M184,149.001v16.794     c0,8.385-6.822,15.206-15.206,15.206h-9.587c-8.384,0-15.206-6.821-15.206-15.206v-16.794H184z M146.001,42.331     c-4.001,16.243-21.027,85.333-21.027,85.333H87.313c10.513-28.442,21.027-56.884,31.54-85.333H146.001z M122.667,149.001v16.794     c0,8.385-6.822,15.206-15.206,15.206h-9.587c-8.384,0-15.206-6.822-15.206-15.206v-16.794H122.667z M69.877,42.331H96.11     c-10.513,28.448-21.027,56.892-31.54,85.333H27.817C41.837,99.223,55.857,70.78,69.877,42.331z M74.667,193.997v137.947     c-7.507,1.161-14.664,3.382-21.333,6.483V201.617c7.212-1.449,13.663-5.025,18.667-10.047     C72.849,192.422,73.738,193.233,74.667,193.997z M21.333,165.795v-16.794h40v16.794c0,8.385-6.822,15.206-15.206,15.206H36.54     C28.156,181.001,21.333,174.179,21.333,165.795z M86.933,469.67c-32.349,0-58.667-26.318-58.667-58.667     s26.318-58.667,58.667-58.667s58.667,26.318,58.667,58.667S119.282,469.67,86.933,469.67z M96,331.531v-52.439h188.416     c5.89,0,10.667-4.775,10.667-10.667s-4.777-10.667-10.667-10.667H96v-55.472c0.621,0.031,1.245,0.048,1.873,0.048h9.587     c10.099,0,19.252-4.119,25.873-10.765c6.621,6.645,15.774,10.765,25.873,10.765h9.587c10.099,0,19.252-4.119,25.873-10.765     c6.621,6.645,15.774,10.765,25.873,10.765h9.587c10.099,0,19.252-4.119,25.873-10.765c6.621,6.645,15.774,10.765,25.873,10.765     h9.587c10.099,0,19.252-4.119,25.873-10.765c6.621,6.645,15.774,10.765,25.873,10.765h9.587c10.099,0,19.252-4.119,25.873-10.765     c6.621,6.645,15.774,10.765,25.873,10.765h9.587c0.628,0,1.252-0.016,1.873-0.048v55.472h0h-49.184     c-5.89,0-10.667,4.775-10.667,10.667c0,5.891,4.777,10.667,10.667,10.667H416v121.245H166.201     C161.363,364.213,132.344,335.652,96,331.531z M458.667,426.929c0,8.864-7.211,16.075-16.074,16.075H160.234     c2.93-6.687,4.965-13.847,5.967-21.333h260.466c5.89,0,10.667-4.775,10.667-10.667V193.997c0.929-0.766,1.818-1.577,2.667-2.428     c5.004,5.022,11.455,8.598,18.667,10.047V426.929z M490.667,165.795c0,8.385-6.822,15.206-15.206,15.206h-9.587     c-8.384,0-15.206-6.821-15.206-15.206v-16.794h40V165.795z"/>
			<path d="M325.749,279.092h1.067c5.89,0,10.667-4.775,10.667-10.667s-4.777-10.667-10.667-10.667h-1.067     c-5.89,0-10.667,4.775-10.667,10.667C315.083,274.316,319.859,279.092,325.749,279.092z"/>
			<path d="M116.106,381.831c-4.166-4.165-10.918-4.165-15.086,0L57.761,425.09c-4.165,4.165-4.165,10.919,0,15.086     c2.083,2.083,4.813,3.124,7.542,3.124s5.459-1.041,7.542-3.124l43.259-43.259C120.271,392.751,120.271,385.997,116.106,381.831z"/>
			<path d="M63.141,398.743c5.89,0,10.667-4.775,10.667-10.667v-0.865c0-5.891-4.776-10.667-10.667-10.667     s-10.667,4.775-10.667,10.667v0.865C52.475,393.967,57.251,398.743,63.141,398.743z"/>
			<path d="M110.509,423.912c-5.89,0-10.667,4.775-10.667,10.667v0.865c0,5.891,4.776,10.667,10.667,10.667     s10.667-4.775,10.667-10.667v-0.865C121.175,428.687,116.399,423.912,110.509,423.912z"/>
		</g>
	</g>
</g>
<g>
</g>
<g>
</g>
<g>
</g>
<g>
</g>
<g>
</g>
<g>
</g>
<g>
</g>
<g>
</g>
<g>
</g>
<g>
</g>
<g>
</g>
<g>
</g>
<g>
</g>
<g>
</g>
<g>
</g>
</svg>
