<?xml version="1.0" encoding="iso-8859-1"?>
<!-- Generator: Adobe Illustrator 19.0.0, SVG Export Plug-In . SVG Version: 6.00 Build 0)  -->
<svg xmlns="http://www.w3.org/2000/svg" xmlns:xlink="http://www.w3.org/1999/xlink" version="1.1" id="Layer_1" x="0px" y="0px" viewBox="0 0 512 512" style="enable-background:new 0 0 512 512;" xml:space="preserve">
<g>
	<g>
		<g>
			<path d="M501.221,140.126H369.179V91.621c0-5.952-4.826-10.779-10.779-10.779H153.6c-5.953,0-10.779,4.827-10.779,10.779v48.505     H10.779C4.826,140.126,0,144.953,0,150.905v269.474c0,5.952,4.826,10.779,10.779,10.779h490.442     c5.953,0,10.779-4.827,10.779-10.779V150.905C512,144.953,507.174,140.126,501.221,140.126z M164.379,102.4h183.242v37.726     H164.379V102.4z M447.326,409.6h-93.931v-91.621h36.187v28.923c0,5.952,4.826,10.779,10.779,10.779     c5.953,0,10.779-4.827,10.779-10.779v-28.923h36.186V409.6z M490.442,409.6h-21.558V307.2c0-5.952-4.826-10.779-10.779-10.779     H342.616c-5.953,0-10.779,4.827-10.779,10.779v102.4H21.558V161.684h468.884V409.6z"/>
			<path d="M53.895,388.042h230.978c5.953,0,10.779-4.827,10.779-10.779V307.2c0-5.952-4.826-10.779-10.779-10.779H53.895     c-5.953,0-10.779,4.827-10.779,10.779v70.063C43.116,383.215,47.942,388.042,53.895,388.042z M237.908,317.979h36.186v48.505     h-36.186V317.979z M180.163,317.979h36.186v48.505h-36.186V317.979z M122.418,317.979h36.187v48.505h-36.187V317.979z      M64.674,317.979h36.186v48.505H64.674V317.979z"/>
			<path d="M53.895,274.863h404.211c5.953,0,10.779-4.827,10.779-10.779v-70.063c0-5.952-4.826-10.779-10.779-10.779H53.895     c-5.953,0-10.779,4.827-10.779,10.779v70.063C43.116,270.036,47.942,274.863,53.895,274.863z M411.14,204.8h36.186v48.505H411.14     V204.8z M353.395,204.8h36.187v48.505h-36.187V204.8z M295.651,204.8h36.186v48.505h-36.186V204.8z M237.906,204.8h36.186v48.505     h-36.186V204.8z M180.163,204.8h36.186v48.505h-36.186V204.8z M122.418,204.8h36.187v48.505h-36.187V204.8z M64.674,204.8h36.186     v48.505H64.674V204.8z"/>
			<path d="M400.361,374.029c-5.953,0-10.779,4.827-10.779,10.779v1.078c0,5.952,4.826,10.779,10.779,10.779     c5.953,0,10.779-4.827,10.779-10.779v-1.078C411.14,378.856,406.315,374.029,400.361,374.029z"/>
		</g>
	</g>
</g>
<g>
</g>
<g>
</g>
<g>
</g>
<g>
</g>
<g>
</g>
<g>
</g>
<g>
</g>
<g>
</g>
<g>
</g>
<g>
</g>
<g>
</g>
<g>
</g>
<g>
</g>
<g>
</g>
<g>
</g>
</svg>
