<?xml version="1.0" encoding="iso-8859-1"?>
<!-- Generator: Adobe Illustrator 19.0.0, SVG Export Plug-In . SVG Version: 6.00 Build 0)  -->
<svg xmlns="http://www.w3.org/2000/svg" xmlns:xlink="http://www.w3.org/1999/xlink" version="1.1" id="Layer_1" x="0px" y="0px" viewBox="0 0 512.001 512.001" style="enable-background:new 0 0 512.001 512.001;" xml:space="preserve">
<g>
	<g>
		<g>
			<path d="M451.441,11.011c0-6.08-4.93-11.011-11.011-11.011H71.57C65.489,0,60.56,4.931,60.56,11.011v44.043     c0,0.021,0.003,0.041,0.003,0.062c-0.406,11.8,5.424,30.086,17.369,54.401c1.506,3.068,1.929,6.573,1.19,9.871     c-20.048,89.373-20.048,183.853,0,273.226c0.739,3.298,0.317,6.804-1.19,9.871c-11.946,24.313-17.776,42.598-17.369,54.401     c0,0.021-0.003,0.041-0.003,0.062v44.043c0,6.08,4.93,11.011,11.011,11.011h368.86c6.081,0,11.011-4.931,11.011-11.011v-44.043     c0-0.021-0.003-0.041-0.003-0.062c0.406-11.802-5.424-30.088-17.369-54.402c-1.506-3.067-1.929-6.573-1.19-9.871     c20.048-89.373,20.048-183.853,0-273.226c-0.739-3.298-0.317-6.804,1.19-9.871c11.946-24.313,17.776-42.598,17.369-54.401     c0-0.021,0.003-0.041,0.003-0.062V11.011z M429.42,489.979H82.581v-22.022H429.42V489.979z M100.609,387.793     c-19.339-86.221-19.339-177.367,0-263.588c1.834-8.179,0.8-16.844-2.912-24.4C91.128,86.433,86.425,74.662,84.13,66.065h343.741     c-2.295,8.598-6.996,20.369-13.566,33.742c-3.713,7.556-4.748,16.221-2.912,24.4c19.339,86.221,19.339,177.367,0,263.588     c-1.834,8.179-0.8,16.843,2.912,24.4c6.57,13.374,11.272,25.144,13.567,33.742H84.13c2.295-8.598,6.996-20.369,13.566-33.742     C101.41,404.637,102.445,395.972,100.609,387.793z M429.42,44.043H82.581V22.021H429.42V44.043z"/>
			<path d="M376.75,391.308c0.811,0.182,1.622,0.269,2.42,0.269c5.039,0,9.585-3.481,10.733-8.603     c3.562-15.876,6.485-32.169,8.69-48.424c0.817-6.026-3.406-11.573-9.431-12.39c-6.028-0.807-11.573,3.406-12.39,9.431     c-2.12,15.633-4.932,31.3-8.355,46.565C367.086,384.087,370.816,389.977,376.75,391.308z"/>
			<path d="M390.885,305.063c0.245,0.017,0.488,0.024,0.73,0.024c5.753,0,10.6-4.508,10.985-10.33l0.052-0.785     c0.39-6.069-4.215-11.305-10.283-11.693c-6.077-0.386-11.305,4.215-11.693,10.283l-0.054,0.833     C380.219,299.463,384.818,304.661,390.885,305.063z"/>
			<path d="M227.569,367.013c37.722,0,69.593-25.433,79.429-60.044c34.596-9.841,60.016-41.691,60.016-79.401     c0-45.535-37.046-82.581-82.581-82.581c-37.71,0-69.559,25.419-79.402,60.016c-34.611,9.836-60.044,41.708-60.044,79.429     C144.988,329.968,182.034,367.013,227.569,367.013z M284.432,167.009c33.392,0,60.559,27.167,60.559,60.559     c0,24.22-14.301,45.148-34.895,54.825c-1.074-43.913-36.576-79.415-80.49-80.49C239.285,181.31,260.212,167.009,284.432,167.009z      M227.569,223.873c33.392,0,60.559,27.167,60.559,60.559s-27.167,60.559-60.559,60.559c-33.392,0-60.559-27.167-60.559-60.559     C167.009,251.04,194.176,223.873,227.569,223.873z"/>
			<path d="M224.34,268.563c2.15,2.154,4.971,3.232,7.791,3.232c2.815,0,5.631-1.074,7.78-3.22     c4.303-4.296,4.309-11.268,0.011-15.571l-0.367-0.368c-4.296-4.303-11.268-4.309-15.571-0.012     c-4.303,4.296-4.309,11.268-0.011,15.571L224.34,268.563z"/>
			<path d="M195.523,301.039c2.151,2.157,4.975,3.236,7.798,3.236c2.812,0,5.625-1.071,7.775-3.214     c4.306-4.293,4.316-11.264,0.023-15.571l-0.367-0.368c-4.294-4.305-11.265-4.317-15.571-0.023     c-4.306,4.293-4.316,11.264-0.023,15.571L195.523,301.039z"/>
			<path d="M235.178,298.32c-4.303,4.296-4.308,11.268-0.011,15.571l0.367,0.368c2.15,2.154,4.971,3.232,7.791,3.232     c2.815,0,5.631-1.074,7.78-3.22c4.303-4.296,4.309-11.268,0.011-15.571l-0.367-0.368     C246.453,294.028,239.482,294.022,235.178,298.32z"/>
		</g>
	</g>
</g>
<g>
</g>
<g>
</g>
<g>
</g>
<g>
</g>
<g>
</g>
<g>
</g>
<g>
</g>
<g>
</g>
<g>
</g>
<g>
</g>
<g>
</g>
<g>
</g>
<g>
</g>
<g>
</g>
<g>
</g>
</svg>
