<?xml version="1.0" encoding="iso-8859-1"?>
<!-- Generator: Adobe Illustrator 19.0.0, SVG Export Plug-In . SVG Version: 6.00 Build 0)  -->
<svg xmlns="http://www.w3.org/2000/svg" xmlns:xlink="http://www.w3.org/1999/xlink" version="1.1" id="Layer_1" x="0px" y="0px" viewBox="0 0 512 512" style="enable-background:new 0 0 512 512;" xml:space="preserve">
<g>
	<g>
		<g>
			<path d="M409.834,131.486c-4.483-4.217-11.533-4.003-15.751,0.48c-4.216,4.481-4.002,11.533,0.48,15.751     c11.819,11.12,22.128,22.765,30.64,34.609c3.499,4.865,6.621,9.675,9.283,14.296c2.062,3.58,5.811,5.582,9.666,5.582     c1.885,0,3.798-0.48,5.551-1.489c5.332-3.072,7.165-9.884,4.093-15.217c-3.034-5.266-6.566-10.709-10.497-16.179     C433.955,156.315,422.694,143.586,409.834,131.486z"/>
			<path d="M379.499,106.385l-0.811-0.587c-4.987-3.601-11.953-2.477-15.556,2.512c-3.602,4.988-2.478,11.955,2.511,15.556     l0.761,0.552c1.977,1.436,4.267,2.127,6.538,2.127c3.446,0,6.845-1.593,9.025-4.596     C385.584,116.969,384.478,110.001,379.499,106.385z"/>
			<path d="M171.543,259.905c-24.165,0-43.827,19.661-43.827,43.826c0,24.166,19.662,43.826,43.827,43.826     c24.166,0,43.826-19.661,43.826-43.826S195.709,259.905,171.543,259.905z M171.543,325.274c-11.879,0-21.543-9.664-21.543-21.541     c0-11.879,9.664-21.542,21.543-21.542c11.878,0,21.542,9.664,21.542,21.542C193.084,315.61,183.421,325.274,171.543,325.274z"/>
			<path d="M422.223,250.806c-24.165,0-43.827,19.661-43.827,43.826c0,24.165,19.661,43.826,43.827,43.826     c24.165,0,43.826-19.661,43.826-43.826C466.049,270.467,446.388,250.806,422.223,250.806z M422.223,316.174     c-11.879,0-21.543-9.664-21.543-21.541c0-11.878,9.663-21.542,21.543-21.542c11.878,0,21.542,9.664,21.542,21.542     C443.764,306.511,434.101,316.174,422.223,316.174z"/>
			<path d="M479.492,143.307c-24.092-33.522-58.809-65.131-97.756-89.006c-3.201-1.962-7.173-2.182-10.572-0.581L6.393,225.549     c-3.963,1.866-6.383,5.834-6.385,10.072L0,235.629v84.116c0,5.308,3.744,9.879,8.948,10.924     c8.968,1.802,15.479,9.763,15.479,18.932s-6.51,17.131-15.479,18.932C3.744,369.579,0,374.149,0,379.458V448.2     c0,6.154,4.99,11.142,11.142,11.142h488.915c6.153,0,11.142-4.988,11.142-11.142V236.468     C515.222,210.431,503.999,177.407,479.492,143.307z M22.285,437.058v-49.564c14.571-6.624,24.427-21.348,24.427-37.892     s-9.857-31.27-24.427-37.893v-64.938h229.886c7.66,15.574,23.688,26.319,42.183,26.319c18.495,0,34.522-10.747,42.181-26.319     h152.379v190.286H22.285z M269.655,226.107c0-13.619,11.08-24.699,24.699-24.699s24.698,11.08,24.698,24.699     s-11.079,24.699-24.698,24.699S269.655,239.726,269.655,226.107z M341.296,224.486c-0.859-25.157-21.579-45.363-46.942-45.363     c-25.363,0-46.084,20.206-46.943,45.363H60.943L375.159,76.471c65.578,41.845,114.077,105.069,114.613,148.015H341.296z"/>
			<path d="M291.664,300.766c-31.486,0-57.101,25.616-57.101,57.102s25.615,57.102,57.101,57.102s57.102-25.616,57.102-57.102     C348.766,326.382,323.15,300.766,291.664,300.766z M291.664,392.685c-19.197,0-34.816-15.619-34.816-34.818     s15.619-34.818,34.816-34.818c19.198,0,34.818,15.619,34.818,34.818S310.862,392.685,291.664,392.685z"/>
			<path d="M99.549,356.286c-18.432,0-33.427,14.995-33.427,33.427s14.995,33.427,33.427,33.427s33.427-14.995,33.427-33.427     S117.981,356.286,99.549,356.286z M99.549,400.855c-6.144,0-11.142-4.998-11.142-11.142c0-6.144,4.998-11.142,11.142-11.142     c6.144,0,11.142,4.998,11.142,11.142C110.691,395.857,105.692,400.855,99.549,400.855z"/>
			<path d="M415.985,362.444c-18.432,0-33.427,14.995-33.427,33.427s14.995,33.427,33.427,33.427     c18.432,0,33.427-14.995,33.427-33.427S434.417,362.444,415.985,362.444z M415.985,407.014c-6.144,0-11.142-4.998-11.142-11.142     c0-6.144,4.998-11.142,11.142-11.142c6.144,0,11.142,4.998,11.142,11.142C427.128,402.015,422.129,407.014,415.985,407.014z"/>
		</g>
	</g>
</g>
<g>
</g>
<g>
</g>
<g>
</g>
<g>
</g>
<g>
</g>
<g>
</g>
<g>
</g>
<g>
</g>
<g>
</g>
<g>
</g>
<g>
</g>
<g>
</g>
<g>
</g>
<g>
</g>
<g>
</g>
</svg>
