<?xml version="1.0" encoding="iso-8859-1"?>
<!-- Generator: Adobe Illustrator 19.0.0, SVG Export Plug-In . SVG Version: 6.00 Build 0)  -->
<svg xmlns="http://www.w3.org/2000/svg" xmlns:xlink="http://www.w3.org/1999/xlink" version="1.1" id="Layer_1" x="0px" y="0px" viewBox="0 0 512.001 512.001" style="enable-background:new 0 0 512.001 512.001;" xml:space="preserve">
<g>
	<g>
		<g>
			<path d="M90.061,393.211c-5.981,0-10.847,4.866-10.847,10.847s4.866,10.847,10.847,10.847s10.847-4.866,10.847-10.847     S96.042,393.211,90.061,393.211z"/>
			<path d="M501.153,393.211H477.72c-8.767-13.071-23.675-21.693-40.563-21.693c-13.114,0-25.027,5.208-33.806,13.652V241.357     c0-5.99-4.857-10.847-10.847-10.847H370.45v-81.351c0-5.99-4.857-10.847-10.847-10.847h-81.351V84.079     c0-5.99-4.857-10.847-10.847-10.847h-70.504c-5.99,0-10.847,4.857-10.847,10.847V230.51h-26.756     c-5.99,0-10.847,4.857-10.847,10.847v134.001c-10.398-21.068-31.861-35.719-56.755-36.339L60.402,91.142     c-0.3-2.388-1.388-4.609-3.091-6.311L18.517,46.038c-4.237-4.235-11.103-4.235-15.341,0c-4.236,4.236-4.236,11.104,0,15.341     l36.169,36.166l30.874,244.537c-26.21,8.411-45.239,33.009-45.239,61.976c0,35.885,29.195,65.08,65.081,65.08     c32.189,0,58.978-23.495,64.16-54.234h234.435c-0.197,1.782-0.308,3.59-0.308,5.423c0,26.914,21.896,48.81,48.81,48.81     s48.81-21.896,48.81-48.81c0-1.833-0.111-3.641-0.308-5.423h15.493c5.99,0,10.847-4.857,10.847-10.847     S507.143,393.211,501.153,393.211z M90.061,447.445c-23.924,0-43.387-19.463-43.387-43.387s19.463-43.387,43.387-43.387     s43.387,19.463,43.387,43.387S113.984,447.445,90.061,447.445z M278.252,160.006h70.504v70.504h-70.504V160.006z      M292.172,252.204v27.117h-32.54v-27.117H292.172z M207.748,94.926h48.81V230.51h-48.81V94.926z M381.658,347.113h-59.476     c-5.99,0-10.847,4.857-10.847,10.847s4.857,10.847,10.847,10.847h59.476v24.405H170.146V252.204h67.792v37.964     c0,5.99,4.857,10.847,10.847,10.847h54.234c5.99,0,10.847-4.857,10.847-10.847v-37.964h67.792V347.113z M437.157,447.445     c-14.952,0-27.117-12.165-27.117-27.117c0-14.952,12.165-27.117,27.117-27.117c14.952,0,27.117,12.165,27.117,27.117     C464.274,435.28,452.109,447.445,437.157,447.445z"/>
			<path d="M282.23,347.113h-1.085c-5.99,0-10.847,4.857-10.847,10.847s4.857,10.847,10.847,10.847h1.085     c5.99,0,10.847-4.857,10.847-10.847S288.219,347.113,282.23,347.113z"/>
		</g>
	</g>
</g>
<g>
</g>
<g>
</g>
<g>
</g>
<g>
</g>
<g>
</g>
<g>
</g>
<g>
</g>
<g>
</g>
<g>
</g>
<g>
</g>
<g>
</g>
<g>
</g>
<g>
</g>
<g>
</g>
<g>
</g>
</svg>
