<?xml version="1.0" encoding="iso-8859-1"?>
<!-- Generator: Adobe Illustrator 19.0.0, SVG Export Plug-In . SVG Version: 6.00 Build 0)  -->
<svg xmlns="http://www.w3.org/2000/svg" xmlns:xlink="http://www.w3.org/1999/xlink" version="1.1" id="Layer_1" x="0px" y="0px" viewBox="0 0 511.999 511.999" style="enable-background:new 0 0 511.999 511.999;" xml:space="preserve">
<g>
	<g>
		<g>
			<path d="M435.11,184.422c4.546-10.821,6.914-22.496,6.914-34.322c0-48.884-39.771-88.654-88.654-88.654     c-7.167,0-14.214,0.846-21.074,2.524C323.741,27.177,290.639,0,251.7,0c-38.506,0-71.137,26.096-80.242,62.382     c-4.247-0.623-8.534-0.936-12.829-0.936c-48.884,0-88.654,39.771-88.654,88.654c0,11.827,2.368,23.5,6.912,34.322     c-29.862,16.013-49.233,47.657-49.233,82.07c0,51.301,41.737,93.038,93.038,93.038c7.331,0,14.603-0.861,21.705-2.568     c6.195,7.744,13.638,14.212,21.938,19.208c17.401,37.452,28.629,79.022,34.143,126.273c0.635,5.448,5.25,9.555,10.735,9.555     h84.971c5.484,0,10.1-4.108,10.735-9.555c5.521-47.312,16.773-88.926,34.21-126.414c8.991-5.423,16.973-12.54,23.402-21.051     c9.263,3.022,18.907,4.55,28.774,4.55c51.301,0,93.038-41.737,93.038-93.038C484.344,232.079,464.974,200.435,435.11,184.422z      M284.65,490.385h-65.901c-5.077-37.737-13.802-72.043-26.374-103.691c4.772,0.851,9.653,1.294,14.604,1.294     c16.095,0,31.399-4.513,44.719-13.123c13.32,8.609,28.624,13.123,44.718,13.123c4.941,0,9.829-0.452,14.615-1.321     C298.457,418.321,289.728,452.636,284.65,490.385z M391.306,337.916c-9.927,0-19.554-2.012-28.614-5.98     c-5.004-2.191-10.852-0.305-13.635,4.392c-10.976,18.532-31.146,30.045-52.639,30.045c-13.941,0-27.08-4.585-37.994-13.259     c-1.968-1.565-4.346-2.346-6.724-2.346c-2.379,0-4.755,0.782-6.724,2.346c-10.915,8.674-24.053,13.259-37.995,13.259     c-20.721,0-39.872-10.385-51.227-27.781c-2.685-4.113-7.807-5.9-12.468-4.346c-7.305,2.435-14.906,3.669-22.592,3.669     c-39.383,0-71.423-32.04-71.423-71.423c0-29.493,18.531-56.334,46.113-66.792c2.98-1.13,5.309-3.518,6.366-6.526     c1.056-3.008,0.731-6.327-0.889-9.073c-6.063-10.278-9.269-22.036-9.269-34.003c0-36.966,30.074-67.039,67.039-67.039     c6.248,0,12.481,0.88,18.524,2.613c3.076,0.882,6.383,0.358,9.032-1.433c2.65-1.791,4.372-4.663,4.7-7.845     c3.221-31.231,29.365-54.781,60.813-54.781c32.201,0,58.998,25.152,61.006,57.263c0.218,3.487,2.107,6.652,5.072,8.499     c2.965,1.846,6.638,2.147,9.865,0.805c8.169-3.398,16.824-5.121,25.726-5.121c36.965,0,67.039,30.074,67.039,67.039     c0,11.967-3.206,23.726-9.27,34.002c-1.62,2.745-1.945,6.065-0.889,9.073c1.056,3.008,3.386,5.395,6.366,6.526     c27.582,10.458,46.114,37.3,46.114,66.792C462.729,305.875,430.689,337.916,391.306,337.916z"/>
			<path d="M171.19,106.451c-4.106-1.177-8.332-1.775-12.561-1.775c-25.048,0-45.424,20.377-45.424,45.424     c0,8.221,2.11,15.966,6.269,23.018c2.016,3.417,5.619,5.318,9.319,5.318c1.866,0,3.758-0.484,5.481-1.5     c5.141-3.033,6.85-9.659,3.817-14.8c-2.171-3.68-3.271-7.73-3.271-12.036c0-13.128,10.681-23.809,23.809-23.809     c2.213,0,4.434,0.316,6.599,0.937c5.74,1.644,11.724-1.671,13.369-7.409S176.927,108.097,171.19,106.451z"/>
			<path d="M129.616,293.235c-2.889,0.963-5.891,1.451-8.923,1.451c-15.546,0-28.193-12.647-28.193-28.193     c0-5.969-4.84-10.808-10.808-10.808s-10.808,4.839-10.808,10.808c0,27.464,22.344,49.808,49.808,49.808     c5.359,0,10.661-0.861,15.757-2.56c5.662-1.888,8.723-8.008,6.836-13.67C141.398,294.407,135.28,291.347,129.616,293.235z"/>
			<path d="M430.306,255.685c-5.968,0-10.808,4.839-10.808,10.808c0,15.546-12.647,28.193-28.193,28.193     c-3.921,0-7.712-0.79-11.269-2.349c-5.468-2.393-11.84,0.095-14.237,5.563c-2.395,5.468,0.096,11.842,5.563,14.236     c6.308,2.763,13.018,4.165,19.942,4.165c27.464,0,49.808-22.344,49.808-49.808C441.114,260.523,436.274,255.685,430.306,255.685z     "/>
			<path d="M406.066,241.599c5.968,0,10.808-4.839,10.808-10.808v-0.776c0-5.969-4.84-10.808-10.808-10.808     s-10.808,4.839-10.808,10.808v0.776C395.259,236.761,400.097,241.599,406.066,241.599z"/>
			<path d="M294.428,134.811c-5.968,0-10.807,4.839-10.807,10.808c0,5.969,4.84,10.808,10.807,10.808     c20.262,0,36.746,16.484,36.746,36.746c0,5.969,4.84,10.808,10.808,10.808c5.968,0,10.808-4.839,10.808-10.808     C352.789,160.991,326.608,134.811,294.428,134.811z"/>
		</g>
	</g>
</g>
<g>
</g>
<g>
</g>
<g>
</g>
<g>
</g>
<g>
</g>
<g>
</g>
<g>
</g>
<g>
</g>
<g>
</g>
<g>
</g>
<g>
</g>
<g>
</g>
<g>
</g>
<g>
</g>
<g>
</g>
</svg>
