<?xml version="1.0" encoding="iso-8859-1"?>
<!-- Generator: Adobe Illustrator 19.0.0, SVG Export Plug-In . SVG Version: 6.00 Build 0)  -->
<svg xmlns="http://www.w3.org/2000/svg" xmlns:xlink="http://www.w3.org/1999/xlink" version="1.1" id="Layer_1" x="0px" y="0px" viewBox="0 0 512 512" style="enable-background:new 0 0 512 512;" xml:space="preserve">
<g>
	<g>
		<g>
			<path d="M491.803,115.482l-19.987-23.82l22.883-19.201c4.359-3.658,4.928-10.157,1.27-14.515     c-3.658-4.359-10.157-4.928-14.515-1.27l-22.884,19.201l-25.766-30.707c-17.422-20.762-43.975-32.251-71.039-30.742     l-14.869,0.831c-18.514,1.034-36.533,8.168-50.738,20.087L13.895,272.192c-7.957,6.677-12.838,16.054-13.744,26.401     c-0.906,10.349,2.273,20.429,8.951,28.387l131.595,156.83c6.677,7.957,16.054,12.838,26.401,13.744     c1.157,0.101,2.309,0.151,3.456,0.151c9.118,0,17.863-3.171,24.931-9.101l282.263-236.846     c14.204-11.919,24.359-28.425,28.594-46.479l3.4-14.499C515.93,164.392,509.223,136.244,491.803,115.482z M489.679,186.073     l-3.4,14.499c-3.225,13.75-10.958,26.322-21.777,35.398L182.239,472.817c-7.722,6.48-19.277,5.469-25.756-2.253L24.886,313.734     c-3.138-3.74-4.633-8.48-4.207-13.345c0.426-4.864,2.72-9.273,6.461-12.411L309.403,51.131     c10.818-9.078,24.542-14.511,38.642-15.299c0,0,17.283-0.932,18.488-0.932c19.337,0,37.993,8.629,50.484,23.514l25.766,30.708     l-14.441,12.119c-4.428-2.775-9.478-4.489-14.835-4.958c-8.908-0.778-17.591,1.957-24.442,7.707     c-6.852,5.749-11.054,13.823-11.834,22.733c-0.779,8.91,1.958,17.591,7.707,24.442s13.823,11.054,22.733,11.834     c0.995,0.087,1.989,0.13,2.977,0.13c7.851,0,15.381-2.73,21.466-7.837c6.852-5.749,11.054-13.823,11.834-22.733     c0.471-5.387-0.351-10.685-2.339-15.551l14.42-12.1l19.987,23.82C489.285,144.54,494.393,165.977,489.679,186.073z      M423.42,130.762c-0.3,3.427-1.916,6.532-4.551,8.743c-2.636,2.211-5.975,3.263-9.401,2.964     c-3.427-0.301-6.532-1.916-8.743-4.552c-2.211-2.636-3.264-5.974-2.964-9.401c0.3-3.427,1.916-6.531,4.551-8.742     c2.341-1.965,5.237-3.015,8.257-3.015c0.38,0,0.762,0.016,1.145,0.049c3.425,0.3,6.53,1.916,8.742,4.552     C422.667,123.997,423.72,127.335,423.42,130.762z"/>
			<path d="M170.531,340.569c-7.838-9.341-21.813-10.564-31.155-2.726l-21.451,18c-0.638,0.534-1.59,0.45-2.125-0.185l-18-21.451     c-0.332-0.396-0.372-0.816-0.347-1.1c0.025-0.283,0.138-0.691,0.533-1.023l30.499-25.591c4.359-3.658,4.928-10.157,1.27-14.515     c-3.658-4.358-10.158-4.928-14.515-1.27l-30.499,25.591c-9.341,7.838-10.564,21.814-2.726,31.155l18,21.451     c7.839,9.34,21.815,10.562,31.155,2.725l21.45-18c0.637-0.535,1.59-0.451,2.125,0.185l18,21.451     c0.332,0.396,0.372,0.816,0.347,1.1c-0.025,0.283-0.138,0.691-0.533,1.023L142.06,402.98c-4.359,3.658-4.928,10.157-1.27,14.515     c2.038,2.428,4.958,3.68,7.898,3.68c2.337,0,4.687-0.791,6.617-2.41l30.5-25.591c4.525-3.798,7.3-9.129,7.815-15.013     c0.515-5.884-1.293-11.617-5.09-16.142L170.531,340.569z"/>
			<path d="M209.992,241.572c-3.995-4.761-9.605-7.681-15.796-8.223c-6.19-0.541-12.224,1.36-16.985,5.355l-19.683,16.516     c-9.828,8.247-11.115,22.953-2.868,32.781l58.033,69.161c2.038,2.428,4.958,3.681,7.898,3.68c2.337,0,4.687-0.791,6.617-2.41     c4.359-3.658,4.928-10.157,1.27-14.515l-26.561-31.654l20.833-17.482l2.928-2.456l26.56,31.654     c3.658,4.359,10.156,4.928,14.515,1.27s4.928-10.157,1.27-14.515L209.992,241.572z M188.671,296.479l-18.226-21.722     c-0.943-1.125-0.795-2.808,0.329-3.75l19.683-16.516c0.498-0.417,1.104-0.621,1.708-0.621c0.76,0,1.516,0.323,2.041,0.95     l18.227,21.722L188.671,296.479z"/>
			<path d="M219.051,218.717c2.038,2.43,4.959,3.682,7.899,3.682c2.336,0,4.685-0.79,6.616-2.409     c4.359-3.657,4.93-10.155,1.273-14.515l-0.824-0.983c-3.656-4.358-10.155-4.929-14.515-1.273     c-4.359,3.657-4.93,10.155-1.273,14.515L219.051,218.717z"/>
			<path d="M321.466,252.442l-26.552,22.281c-0.396,0.333-0.818,0.37-1.1,0.347c-0.283-0.025-0.691-0.138-1.023-0.533     c-0.047-0.056-0.095-0.111-0.142-0.166l-34.638-39.545c-3.749-4.281-10.259-4.712-14.539-0.962     c-4.28,3.749-4.711,10.259-0.962,14.539l34.576,39.474c3.792,4.469,9.091,7.209,14.934,7.72c0.658,0.058,1.313,0.086,1.966,0.086     c5.186,0,10.158-1.803,14.176-5.175l26.553-22.28c4.359-3.658,4.928-10.157,1.27-14.515     C332.324,249.353,325.825,248.784,321.466,252.442z"/>
			<path d="M389.773,195.125l-30.499,25.591c-0.396,0.332-0.819,0.372-1.1,0.347c-0.284-0.025-0.692-0.137-1.024-0.533     l-18.969-22.606l31.654-26.561c4.359-3.658,4.928-10.157,1.27-14.515c-3.659-4.359-10.157-4.927-14.515-1.27l-31.655,26.561     l-18.968-22.606c-0.332-0.396-0.372-0.816-0.347-1.1c0.025-0.283,0.138-0.691,0.533-1.023l30.499-25.591     c4.359-3.658,4.928-10.157,1.27-14.515c-3.658-4.359-10.157-4.928-14.515-1.27l-30.499,25.591     c-4.525,3.798-7.3,9.129-7.815,15.013c-0.515,5.884,1.293,11.617,5.09,16.142l51.182,60.997c3.797,4.525,9.129,7.3,15.013,7.815     c0.658,0.058,1.313,0.086,1.966,0.086c5.185,0,10.158-1.803,14.176-5.175l30.499-25.591c4.359-3.658,4.928-10.157,1.27-14.515     C400.632,192.036,394.132,191.467,389.773,195.125z"/>
		</g>
	</g>
</g>
<g>
</g>
<g>
</g>
<g>
</g>
<g>
</g>
<g>
</g>
<g>
</g>
<g>
</g>
<g>
</g>
<g>
</g>
<g>
</g>
<g>
</g>
<g>
</g>
<g>
</g>
<g>
</g>
<g>
</g>
</svg>
