<?xml version="1.0" encoding="iso-8859-1"?>
<!-- Generator: Adobe Illustrator 19.0.0, SVG Export Plug-In . SVG Version: 6.00 Build 0)  -->
<svg xmlns="http://www.w3.org/2000/svg" xmlns:xlink="http://www.w3.org/1999/xlink" version="1.1" id="Layer_1" x="0px" y="0px" viewBox="0 0 512 512" style="enable-background:new 0 0 512 512;" xml:space="preserve">
<g>
	<g>
		<g>
			<path d="M511.98,151.647c-0.002-1.605-0.347-3.213-1.079-4.699l-4.842-9.823c-15.911-32.277-31.822-64.556-47.733-96.844     c-1.795-3.644-5.505-5.951-9.568-5.951H63.243c-4.063,0-7.773,2.307-9.568,5.951C36.149,75.844,18.624,111.396,1.099,146.947     c-0.733,1.486-1.077,3.094-1.079,4.7L0,151.667v27.459c0,18.611,13.988,34.004,32,36.249v224.886     c0,20.627,16.781,37.408,37.408,37.408h373.184c20.626,0,37.408-16.781,37.408-37.408V215.375c18.012-2.244,32-17.637,32-36.249     v-27.459L511.98,151.647z M442.123,55.664c14.02,28.448,28.042,56.893,42.061,85.333h-36.754L415.89,55.664H442.123z      M393.147,55.664l31.539,85.333h-37.661c0,0-17.273-70.093-21.026-85.333H393.147z M429.333,162.334v16.793     c0,8.385-6.821,15.207-15.206,15.207h-9.587c-8.385,0-15.206-6.822-15.206-15.207v-16.793h0H429.333z M368,162.334v16.793     c0,8.385-6.821,15.207-15.206,15.207h-9.587c-8.385,0-15.206-6.822-15.206-15.207v-16.793H368z M344.026,55.664     c4.173,16.943,21.027,85.333,21.027,85.333h-38.286l-10.513-85.333H344.026z M266.667,55.664h28.092l10.513,85.333h-38.605     V55.664z M266.667,162.334h40v16.793c0,8.385-6.821,15.207-15.206,15.207h-9.587c-8.385,0-15.206-6.822-15.206-15.207V162.334z      M217.242,55.664h28.092v85.333h-38.605L217.242,55.664z M205.333,162.334h40v16.793c0,8.385-6.821,15.207-15.206,15.207h-9.587     c-8.385,0-15.206-6.822-15.206-15.207V162.334z M167.974,55.664h27.772l-10.513,85.333h-38.286     C146.947,140.997,163.802,72.607,167.974,55.664z M184,162.334v16.793c0,8.385-6.821,15.207-15.206,15.207h-9.587     c-8.385,0-15.206-6.822-15.206-15.207v-16.793H184z M146.002,55.664c-3.755,15.241-21.026,85.333-21.026,85.333H87.314     l31.539-85.333H146.002z M122.667,162.334v16.793c0,8.385-6.821,15.207-15.206,15.207h-9.587     c-8.385,0-15.206-6.822-15.206-15.207v-16.793H122.667z M69.877,55.664H96.11l-31.539,85.333H27.818     C41.838,112.556,55.857,84.113,69.877,55.664z M36.54,194.334c-8.384,0-15.206-6.822-15.206-15.207v-16.793h40v16.793     c0,8.385-6.821,15.207-15.206,15.207H36.54z M214.667,456.336h-108.8V267.593c0-3.792,3.085-6.876,6.877-6.876h95.046     c3.792,0,6.877,3.085,6.877,6.876V456.336z M458.667,440.261c0,8.863-7.211,16.075-16.075,16.075H236V267.593     c0-15.555-12.655-28.209-28.21-28.209h-95.046c-15.555,0-28.21,12.654-28.21,28.209v188.743H69.408     c-8.864,0-16.075-7.212-16.075-16.075V214.95c7.212-1.449,13.663-5.025,18.667-10.047c6.621,6.645,15.774,10.765,25.873,10.765     h9.587c10.099,0,19.252-4.119,25.873-10.765c6.621,6.645,15.774,10.765,25.873,10.765h9.587c10.099,0,19.252-4.119,25.873-10.765     c6.621,6.645,15.774,10.765,25.873,10.765h9.587c10.099,0,19.252-4.119,25.873-10.765c6.621,6.645,15.774,10.765,25.873,10.765     h9.587c10.099,0,19.252-4.119,25.873-10.765c6.621,6.645,15.774,10.765,25.873,10.765h9.587c10.099,0,19.252-4.119,25.873-10.765     c6.621,6.645,15.774,10.765,25.873,10.765h9.587c10.099,0,19.252-4.119,25.873-10.765c5.004,5.022,11.455,8.598,18.667,10.047     V440.261z M490.667,179.126c0,8.385-6.821,15.207-15.206,15.207h-9.587c-8.385,0-15.206-6.822-15.206-15.207v-16.793h40V179.126z     "/>
			<path d="M182.667,326.526h-44.8c-5.891,0-10.667,4.777-10.667,10.667s4.775,10.667,10.667,10.667h44.8     c5.891,0,10.667-4.777,10.667-10.667S188.558,326.526,182.667,326.526z"/>
			<path d="M404.133,239.382h-101.6c-18.307,0-33.2,14.894-33.2,33.2v129.22c0,18.306,14.893,33.2,33.2,33.2h101.6     c18.307,0,33.2-14.894,33.2-33.2v-129.22C437.333,254.276,422.441,239.382,404.133,239.382z M416,401.803     c0,6.544-5.324,11.867-11.867,11.867h-101.6c-6.543,0-11.867-5.323-11.867-11.867v-20.133h53.067     c5.891,0,10.667-4.777,10.667-10.667s-4.775-10.667-10.667-10.667h-53.067v-87.754c0-6.544,5.324-11.867,11.867-11.867h101.6     c6.543,0,11.867,5.323,11.867,11.867V401.803z"/>
			<path d="M383.6,360.336h-1.067c-5.891,0-10.667,4.777-10.667,10.667s4.775,10.667,10.667,10.667h1.067     c5.891,0,10.667-4.777,10.667-10.667S389.491,360.336,383.6,360.336z"/>
		</g>
	</g>
</g>
<g>
</g>
<g>
</g>
<g>
</g>
<g>
</g>
<g>
</g>
<g>
</g>
<g>
</g>
<g>
</g>
<g>
</g>
<g>
</g>
<g>
</g>
<g>
</g>
<g>
</g>
<g>
</g>
<g>
</g>
</svg>
