<?xml version="1.0" encoding="iso-8859-1"?>
<!-- Generator: Adobe Illustrator 19.0.0, SVG Export Plug-In . SVG Version: 6.00 Build 0)  -->
<svg xmlns="http://www.w3.org/2000/svg" xmlns:xlink="http://www.w3.org/1999/xlink" version="1.1" id="Layer_1" x="0px" y="0px" viewBox="0 0 512 512" style="enable-background:new 0 0 512 512;" xml:space="preserve">
<g>
	<g>
		<g>
			<path d="M508.296,3.703c-4.939-4.938-12.943-4.938-17.884,0l-12.248,12.248c-15.288-0.114-55.888,2.241-82.113,28.464     c-26.222,26.223-28.579,66.824-28.464,82.112l-23.622,23.622c1.334-10.705,1.105-22.107-1.938-33.462     c-9.599-35.827-43.586-58.166-56.879-65.706l-4.483-16.731c-1.808-6.745-8.745-10.751-15.486-8.941     c-6.746,1.807-10.75,8.742-8.941,15.488l4.483,16.729c-7.741,13.177-26.006,49.517-16.406,85.342     c7.75,28.925,31.399,49.058,47.22,59.711l-38.414,38.414c1.334-10.705,1.105-22.107-1.937-33.462     c-9.6-35.827-43.587-58.166-56.88-65.707l-4.483-16.729c-1.808-6.746-8.736-10.75-15.488-8.941     c-6.745,1.807-10.748,8.742-8.941,15.488l4.483,16.729c-7.741,13.177-26.004,49.517-16.406,85.342     c7.75,28.925,31.4,49.058,47.22,59.711l-38.414,38.414c1.334-10.707,1.105-22.107-1.937-33.464     c-9.6-35.826-43.586-58.166-56.88-65.706l-4.483-16.729c-1.807-6.745-8.744-10.751-15.488-8.941     c-6.745,1.808-10.748,8.741-8.941,15.488l4.483,16.729c-7.741,13.177-26.004,49.518-16.406,85.344     c7.75,28.925,31.399,49.057,47.22,59.711l-52.907,52.907c-6.935-14.47-17.051-39.078-23.396-70.296     c-13.764-67.713-4.216-132.843,28.378-193.582c3.302-6.154,0.99-13.82-5.163-17.121c-6.156-3.302-13.818-0.991-17.121,5.163     C-4.748,244.055-1.537,322.07,8.974,372.951c8.204,39.713,21.8,69.178,29.099,83.093L3.703,490.413     c-4.938,4.938-4.938,12.945,0,17.883c2.47,2.47,5.705,3.704,8.941,3.704c3.236,0,6.473-1.234,8.941-3.704l34.372-34.372     c12.195,6.393,36.339,17.627,68.868,25.839c21.318,5.38,48.381,9.902,79.145,9.902c31.781,0,67.513-4.827,104.913-18.516     c6.558-2.4,9.929-9.663,7.528-16.221c-2.401-6.558-9.661-9.929-16.221-7.529c-67.183,24.591-128.595,17.961-168.282,8.066     c-24.954-6.22-44.722-14.472-57.088-20.404l52.91-52.91c10.653,15.821,30.787,39.47,59.711,47.221     c7.157,1.918,14.329,2.722,21.338,2.722c28.076,0,53.457-12.931,64.006-19.128l16.728,4.483c1.096,0.293,2.198,0.434,3.281,0.434     c5.583,0,10.693-3.725,12.206-9.375c1.808-6.745-2.195-13.679-8.94-15.488l-16.731-4.483     c-7.541-13.292-29.88-47.28-65.706-56.878c-11.355-3.044-22.757-3.273-33.464-1.938l38.414-38.414     c10.653,15.82,30.787,39.47,59.714,47.22c7.156,1.918,14.328,2.722,21.337,2.722c28.074-0.001,53.454-12.932,64.005-19.128     l16.728,4.483c1.096,0.293,2.198,0.434,3.281,0.434c5.583,0,10.693-3.725,12.206-9.375c1.808-6.745-2.195-13.679-8.94-15.488     l-16.731-4.483c-7.541-13.292-29.88-47.28-65.707-56.878c-11.355-3.042-22.757-3.271-33.464-1.937l38.416-38.416     c10.653,15.821,30.787,39.47,59.712,47.22c7.156,1.918,14.328,2.722,21.337,2.722c28.074-0.001,53.455-12.932,64.006-19.128     l16.729,4.483c1.096,0.293,2.196,0.434,3.28,0.434c5.583,0,10.693-3.727,12.206-9.375c1.808-6.746-2.195-13.679-8.941-15.488     l-16.729-4.483c-7.541-13.292-29.881-47.28-65.707-56.88c-11.355-3.042-22.758-3.273-33.465-1.937l23.625-23.625     c0.328,0.003,0.651,0.005,1.003,0.005c16,0,55.446-2.805,81.11-28.468c26.222-26.223,28.579-66.824,28.464-82.112l12.247-12.247     C513.234,16.649,513.234,8.643,508.296,3.703z M125.666,364.388c-12.457-8.109-32.676-24.229-38.61-46.376     c-5.936-22.153,3.519-46.226,10.247-59.469c12.457,8.109,32.675,24.23,38.61,46.377     C141.849,327.072,132.394,351.146,125.666,364.388z M207.078,376.087c22.131,5.931,38.245,26.125,46.357,38.575     c-13.301,6.712-37.475,16.168-59.447,10.282c-22.131-5.931-38.245-26.125-46.355-38.575     C160.933,379.657,185.104,370.199,207.078,376.087z M216.528,273.509c-12.464-8.162-32.74-24.366-38.628-46.341     c-5.929-22.131,3.503-46.182,10.229-59.433c12.463,8.162,32.739,24.366,38.628,46.341     C232.685,236.207,223.255,260.258,216.528,273.509z M297.924,285.243c22.131,5.93,38.245,26.125,46.355,38.575     c-13.301,6.712-37.47,16.17-59.447,10.282c-22.131-5.93-38.245-26.125-46.357-38.575     C251.777,288.813,275.947,279.352,297.924,285.243z M307.372,182.664c-12.463-8.162-32.739-24.366-38.627-46.341     c-5.931-22.131,3.503-46.183,10.23-59.433c12.462,8.162,32.739,24.366,38.627,46.341     C323.532,145.363,314.099,169.414,307.372,182.664z M388.768,194.399c22.131,5.929,38.244,26.123,46.355,38.575     c-13.301,6.712-37.471,16.17-59.448,10.28c-22.131-5.929-38.245-26.123-46.355-38.575     C342.621,197.969,366.791,188.51,388.768,194.399z M449.702,98.063c-16.216,16.216-41.792,20.066-56.624,20.86     c0.795-14.841,4.646-40.412,20.859-56.624c16.216-16.216,41.792-20.066,56.624-20.86C469.765,56.28,465.915,81.85,449.702,98.063     z"/>
			<path d="M346.814,447.519l-1.206,1.012c-2.982,2.501-4.519,6.086-4.519,9.695c0,2.867,0.97,5.75,2.956,8.119     c4.488,5.35,12.463,6.051,17.814,1.563l1.206-1.012c5.349-4.486,6.049-12.463,1.563-17.814     C360.141,443.732,352.166,443.033,346.814,447.519z"/>
		</g>
	</g>
</g>
<g>
</g>
<g>
</g>
<g>
</g>
<g>
</g>
<g>
</g>
<g>
</g>
<g>
</g>
<g>
</g>
<g>
</g>
<g>
</g>
<g>
</g>
<g>
</g>
<g>
</g>
<g>
</g>
<g>
</g>
</svg>
