<?xml version="1.0" encoding="iso-8859-1"?>
<!-- Generator: Adobe Illustrator 19.0.0, SVG Export Plug-In . SVG Version: 6.00 Build 0)  -->
<svg xmlns="http://www.w3.org/2000/svg" xmlns:xlink="http://www.w3.org/1999/xlink" version="1.1" id="Layer_1" x="0px" y="0px" viewBox="0 0 511.999 511.999" style="enable-background:new 0 0 511.999 511.999;" xml:space="preserve">
<g>
	<g>
		<g>
			<path d="M467.623,44.355C439.02,15.753,400.99,0,360.539,0s-78.481,15.753-107.083,44.355     c-25.513,25.508-55.762,73.683-77.06,122.732c-14.113,32.5-35.775,92.321-27.61,137.953l-0.452,0.452l-58.535,58.536     c-21.939-16.604-53.406-14.907-73.401,5.086c-21.848,21.848-21.848,57.399,0.005,79.252c8.57,8.56,19.627,14.045,31.426,15.789     c1.75,11.814,7.239,22.874,15.798,31.422c10.582,10.589,24.653,16.421,39.62,16.421s29.038-5.832,39.618-16.418     c19.979-19.979,21.686-51.417,5.081-73.394l58.541-58.531l-0.007-0.002c0.011-0.011,0.021-0.024,0.033-0.035l0.426-0.426     c45.629,8.17,105.453-13.492,137.953-27.605c49.044-21.297,97.218-51.542,122.731-77.053     c28.609-28.609,44.364-66.643,44.364-107.094C511.987,110.989,496.23,72.958,467.623,44.355z M183.995,354.175l-59.763,59.749     c-2.233,2.233-3.43,5.296-3.302,8.45c0.127,3.154,1.567,6.111,3.971,8.156c0.729,0.62,1.392,1.225,1.975,1.802     c6.313,6.311,9.789,14.704,9.789,23.631s-3.476,17.319-9.791,23.633c-6.311,6.316-14.703,9.794-23.628,9.794     c-8.926,0-17.316-3.478-23.636-9.801c-6.724-6.716-10.269-16.036-9.725-25.566c0.183-3.218-1.015-6.362-3.296-8.641     c-2.125-2.124-5.002-3.308-7.989-3.308c-0.217,0-0.436,0.006-0.655,0.019c-9.516,0.549-18.827-2.993-25.56-9.719     c-13.033-13.034-13.033-34.241,0-47.274c13.03-13.03,34.233-13.031,47.21-0.052c0.627,0.635,1.233,1.298,1.853,2.027     c2.045,2.404,5.002,3.845,8.155,3.971c3.154,0.116,6.218-1.069,8.45-3.301l59.755-59.756l-0.002-0.003     c5.052,2.144,9.754,2.371,13.323,2.539c4.514,0.213,5.781,0.355,7.878,2.454c2.094,2.091,2.236,3.359,2.45,7.872     c0.17,3.568,0.396,8.269,2.541,13.323L183.995,354.175z M451.636,242.548c-23.666,23.666-69.099,52.046-115.749,72.302     c-53.452,23.211-100.779,32.338-129.849,25.043c-0.665-0.166-1.336-0.271-2.007-0.315c-0.274-5.748-0.773-14.33-9.037-22.585     c-8.261-8.27-16.844-8.769-22.593-9.041c-0.044-0.67-0.148-1.343-0.315-2.009c-7.291-29.072,1.838-76.401,25.049-129.851     c20.258-46.653,48.64-92.086,72.309-115.749c24.331-24.332,56.683-37.733,91.096-37.733s66.765,13.401,91.098,37.734     c24.338,24.332,37.74,56.686,37.74,91.097C489.378,185.854,475.974,218.209,451.636,242.548z"/>
			<path d="M462.759,133.944c-1.046-6.154-6.879-10.3-13.039-9.252c-6.155,1.046-10.296,6.883-9.252,13.039     c4.412,25.967-4.023,52.538-22.563,71.078c-9.187,9.188-25.953,21.57-44.848,33.121c-5.327,3.256-7.005,10.215-3.749,15.542     c2.131,3.486,5.848,5.41,9.655,5.41c2.01,0,4.046-0.537,5.886-1.662c20.634-12.615,38.51-25.89,49.043-36.423     C457.604,201.085,468.395,167.122,462.759,133.944z"/>
			<path d="M418.644,94.823c2.216,2.272,5.155,3.414,8.096,3.414c2.844,0,5.692-1.067,7.889-3.209     c4.471-4.358,4.561-11.515,0.203-15.986c-0.311-0.319-0.625-0.636-0.942-0.953c-4.414-4.414-11.573-4.414-15.988,0     c-4.414,4.414-4.414,11.573,0,15.988C418.153,94.323,418.401,94.572,418.644,94.823z"/>
		</g>
	</g>
</g>
<g>
</g>
<g>
</g>
<g>
</g>
<g>
</g>
<g>
</g>
<g>
</g>
<g>
</g>
<g>
</g>
<g>
</g>
<g>
</g>
<g>
</g>
<g>
</g>
<g>
</g>
<g>
</g>
<g>
</g>
</svg>
