<?xml version="1.0" encoding="iso-8859-1"?>
<!-- Generator: Adobe Illustrator 19.0.0, SVG Export Plug-In . SVG Version: 6.00 Build 0)  -->
<svg xmlns="http://www.w3.org/2000/svg" xmlns:xlink="http://www.w3.org/1999/xlink" version="1.1" id="Layer_1" x="0px" y="0px" viewBox="0 0 512 512" style="enable-background:new 0 0 512 512;" xml:space="preserve">
<g>
	<g>
		<g>
			<path d="M509.777,118.702c-2.014-2.603-5.119-4.127-8.41-4.127H102.9L91.807,84.846C84.558,65.421,65.758,52.37,45.026,52.37     H10.633C4.761,52.37,0,57.13,0,63.003s4.761,10.633,10.633,10.633h34.393c11.902,0,22.695,7.492,26.856,18.645l13.272,35.568     l27.029,189.517v34.601c0,17.444,10.238,32.539,25.018,39.601c-5.356,7.115-8.536,15.958-8.536,25.529     c0,23.453,19.081,42.534,42.534,42.534c23.453,0,42.534-19.081,42.534-42.534c0-7.744-2.091-15.006-5.722-21.267h158.816     c-3.631,6.261-5.722,13.523-5.722,21.267c0,23.453,19.081,42.534,42.534,42.534c23.453,0,42.534-19.081,42.534-42.534     c0-7.744-2.091-15.006-5.722-21.267h6.263c5.873,0,10.633-4.761,10.633-10.633s-4.761-10.633-10.633-10.633H156.046     c-12.459,0-22.596-10.137-22.596-22.596v-24.723h318.263c4.845,0,9.077-3.274,10.293-7.963l49.654-191.402     C512.486,124.693,511.791,121.305,509.777,118.702z M403.637,395.83c11.727,0,21.267,9.54,21.267,21.267     c0,11.727-9.54,21.267-21.267,21.267c-11.727,0-21.267-9.54-21.267-21.267C382.37,405.37,391.91,395.83,403.637,395.83z      M171.198,395.83c11.727,0,21.267,9.54,21.267,21.267c0,11.727-9.54,21.267-21.267,21.267s-21.267-9.54-21.267-21.267     C149.931,405.37,159.472,395.83,171.198,395.83z M107.776,135.842h58.369l3.455,44.423h-55.488L107.776,135.842z M122.806,241.23     l-5.661-39.698h54.109l3.088,39.698H122.806z M132.041,305.977l-6.201-43.48h50.157l3.381,43.48H132.041z M187.476,135.842     h50.027l1.604,44.423h-48.176L187.476,135.842z M192.584,201.533h47.29l1.433,39.698h-45.635L192.584,201.533z M200.708,305.977     l-3.381-43.48h44.75l1.571,43.48H200.708z M308.366,305.977h-43.439l-1.571-43.48h47.223L308.366,305.977z M311.664,241.23     H262.59l-1.433-39.698h52.529L311.664,241.23z M314.768,180.266h-54.38l-1.605-44.423h58.247L314.768,180.266z M373.014,305.977     H329.66l2.214-43.48h47.178L373.014,305.977z M382.006,241.23h-49.049l2.021-39.698h52.541L382.006,241.23z M336.062,180.266     l2.263-44.423h58.318l-6.169,44.423H336.062z M443.486,305.977h-49.001l6.039-43.48h54.242L443.486,305.977z M460.282,241.23     h-56.806l5.513-39.698h61.59L460.282,241.23z M476.098,180.266h-64.154l6.169-44.423h69.509L476.098,180.266z"/>
			<path d="M488.261,374.563h-1.063c-5.873,0-10.633,4.761-10.633,10.633s4.761,10.633,10.633,10.633h1.063     c5.873,0,10.633-4.761,10.633-10.633S494.134,374.563,488.261,374.563z"/>
		</g>
	</g>
</g>
<g>
</g>
<g>
</g>
<g>
</g>
<g>
</g>
<g>
</g>
<g>
</g>
<g>
</g>
<g>
</g>
<g>
</g>
<g>
</g>
<g>
</g>
<g>
</g>
<g>
</g>
<g>
</g>
<g>
</g>
</svg>
